<svg id="Layer_1" data-name="Layer 1" xmlns="http://www.w3.org/2000/svg" viewBox="0 0 625.27 163.73"><defs><style>.cls-1{fill:#005070;fill-rule:evenodd;}</style></defs><title>breezing</title><path class="cls-1" d="M164.21,189.55l1.51-7.76a12.35,12.35,0,0,0-4.35-.57c-13.24,0-25.71,8.89-35,19.66l2.08-8.88c1.51-6.43.76-10-4.35-10h-2.84L98.6,280.48h9.46l15.88-69c10.59-12.29,22.31-22.12,36.68-22.12C162.32,189.35,164.21,189.55,164.21,189.55Z" transform="translate(-2.37 -148.13)"/><path class="cls-1" d="M207.13,180.84c-31.39,0-53.32,29.68-53.32,62.2,0,22.31,12.48,38.19,37.05,38.19,17,0,28.36-6.05,34.22-10.58l2.08-7.94h-4.53c-6,5.67-15.88,10.78-31,10.78-19.67,0-28.36-11.54-28.36-30.44a59.62,59.62,0,0,1,.94-11.53h70.91c1.51-6.43,2.83-13.42,2.83-19.66,0-18.91-10.21-30.81-30.82-31Zm20.42,43.48H165.73c5.67-20.42,20.79-36.3,41-36.3,14.36,0,22.5,7.75,22.5,23.82A50.48,50.48,0,0,1,227.55,224.33Z" transform="translate(-2.37 -148.13)"/><path class="cls-1" d="M282.76,273.49c-19.66,0-28.36-11.54-28.36-30.44a59.29,59.29,0,0,1,1-11.53h70.89c1.52-6.43,2.84-13.42,2.84-19.66,0-18.91-10.21-30.81-30.82-31-31.38,0-53.31,29.68-53.31,62.2,0,22.31,12.47,38.19,37.05,38.19,17,0,28.36-6.05,34.22-10.58l2.07-7.94h-4.54c-6,5.67-15.88,10.78-31,10.78ZM297.89,188h0c14.37,0,22.5,7.75,22.5,23.82a50.92,50.92,0,0,1-1.69,12.48H256.86C262.54,203.91,277.66,188,297.89,188Z" transform="translate(-2.37 -148.13)"/><polygon class="cls-1" points="415.21 41.22 416.9 33.84 347.14 33.84 345.44 41.22 403.67 41.22 321.99 124.97 320.49 132.35 393.08 132.35 394.59 124.97 333.34 124.97 415.21 41.22"/><path class="cls-1" d="M439.32,182h-3l-22.68,98.5h9.44l20.42-89C445.37,183.3,444,182,439.32,182Z" transform="translate(-2.37 -148.13)"/><path class="cls-1" d="M445.94,166.85a6.38,6.38,0,0,0,6.43-6.43,6.43,6.43,0,1,0-12.86,0A6.37,6.37,0,0,0,445.94,166.85Z" transform="translate(-2.37 -148.13)"/><path class="cls-1" d="M510,180.84c-16.83,0-32.9,9.27-46.14,19.85L466,192c1.51-6.43.75-10-4.35-10H458.8l-22.69,98.5h9.45L461.82,210c14.94-12.29,30.44-21.18,44.62-21.18,10.58,0,15.88,6.43,12.29,21.94L504,274.81c-.95,4.35-.2,5.67,3.4,5.67h4.73l16.26-70.14C532.91,190.3,524.22,180.84,510,180.84Z" transform="translate(-2.37 -148.13)"/><path class="cls-1" d="M624.8,182c-4.73,0-7.57,4.16-9.27,10.59-5.48-5.68-13.61-11.73-27.6-11.73-34.22,0-56,33.66-56,66.55,0,23.07,12.67,32.34,28,32.34,16.26,0,30.25-10,40.09-20.23L595.88,278c-4.73,20.23-18.34,26.28-36.87,26.28H524.47v3.48c0,3.34.91,4.09,8.64,4.09h25.71c23.63,0,40.64-7.94,46.5-33.66L627.63,182ZM602.3,249.85h0c-11.15,11-24,22.5-39.69,22.5-12.67,0-21-6.81-21-25,0-28.73,17.21-59.17,47.27-59.17,12.86,0,19.85,6.43,24.77,11.91Z" transform="translate(-2.37 -148.13)"/><path class="cls-1" d="M71.56,211.29v-.38c17.58-3.59,30.63-13.8,30.63-33.66,0-19.47-14.18-29.11-35.17-29.11H32.8L2.37,280.48H43.58c28.55,0,52.93-12.29,52.93-40.27,0-17.2-10.4-26.28-25-28.92ZM29,206.94h0l11.91-50.67H66.65c14.94,0,25.52,6.8,25.52,21.74,0,7.48-2.27,13.37-6.1,17.81h0c-6,6.68-17,9.45-22.37,10.45l-3.12.49h0c-10.43,1.64-15.26,2.47-32.65,5.54L29,206.94Zm15.13,65.42H14.08l11.83-51.22c18.9-3.35,24.27-4.28,33.91-5.81,16.73,1.26,26.48,9.28,26.48,24.51C86.3,262.9,67.4,272.35,44.15,272.35Z" transform="translate(-2.37 -148.13)"/></svg>