<svg id="Layer_1" data-name="Layer 1" xmlns="http://www.w3.org/2000/svg" viewBox="0 0 628.65 459.95"><defs><style>.cls-1{fill:#005070;fill-rule:evenodd;}</style></defs><title>esportiva</title><path class="cls-1" d="M318.81,204s17,29.22,20.15,34.76-3.53,16.62,11.59,13.43,17.13-2.69,24.35-1.85,5.71-4,5.71-4-14.44-3.36-17.29-6-11.92-4.53-12.76-5.71a54.19,54.19,0,0,1-8.79-15.9c-2.91-8.73-11.87-34.93-13-37.39s-21-34.25-21-34.25-3.81-4-8.73-4.93-42.54-5.61-44.78-5.38-1.79,0-1.79,0-.11-8.94,2.35-14.65,13.77-25.63,16.34-30.9c0,0,5.37-18.36,8.06-20.37s14.1-.9,21.94.78,23.4-2.46,26.75-6.72a25,25,0,0,0,4.25-7.16s6.49-9.93,12.2-17.15,9.15-9.15,9.66-9.4,11.42-13.6,12.17-15.45.67-8.14-.42-11.17S362.13,4.2,358,9.83s-5.26,4.94-5.26,4.94a14.42,14.42,0,0,0,1.51-5.15c0-2.18-2.8-3.05-3.64-2.13s-5.71,14.26-5.71,20.38-.76,4-.76,4-28,15.62-30.31,21.91a17.11,17.11,0,0,1-9.91-1c-5.62-2.18-32.4-9.39-38.19-5.19s-5.54,2-5.54,2-1.52-6.48,3-7.38S275.9,45.43,274.35,36c-.19-1.17,2-5.08,1.64-4.91s4.42-.67,4.42-.67-4.2-8.74-3.92-12.31c.57-7.17-1.26-12.52-6.2-15.13-9.84-5.2-25.57-3.25-30,4s-7.56,12.82-3.19,25.41c0,0,3,9.07.84,10.07s-8.26,5.66-10.95,5.22-12.76-.45-16.12,5.71,0,21,0,21l6.16,14.1a188.66,188.66,0,0,0,2.69,41.64s-13.21,3.47-16.57,12.87-9.63,35.82-9.63,35.82-16.12,1.85-22.16,47.52c0,0-4.18,8.9-5.28,9.24s-15-2.52-30.15,11.75-36.1,35.09-38.79,36.44-9.4.67-10.91,7.05.17,6.38,7.22,16.12,1.85,10.91,6,16,9.07,1,10.75,1.18,7.14-2.6,2.85-3.78-8.4-4.62-9-5.79-1.85-13.68-.67-16.71,3-9.32,3-9.32,25.83-15.62,33-18.3,27.76-17.91,30.78-19.37,8.06-1.9,12.2-5.48,22.84-18.92,30.9-33.25,24.18-30.9,24.18-30.9l1,4s17,2.52,29.55-1.51S292.34,175,292.34,175s8.84,2.12,11.7,5.82S318.81,204,318.81,204Z" transform="translate(-0.68 -0.02)"/><path class="cls-1" d="M314.59,52c.09-1.14-20.2-.2-20.2-.2s-4.55-.37-5-1.42,7.32-4.42,7.88-6.36-.64-5.07-1.84-3.32-8.22,5.1-8.4,5.74-4.72,10.76-6.44,11.9-28.16,12.14-32.14,17.57A66.6,66.6,0,0,0,236,67.94c-5.65-2.65-12.21-3.59-12.85-4.11s-1.63-6-16.88-9.7a13,13,0,0,1-5.82-2.46s1.49-6.9,4.84-7.34,6.84,2.72,11.45-.63c.91-.66,1.72-7.7,1.61-8.6s6,0,6,0-2.8-8.17-3.25-10.75,1-7.5,1-7.5,1.73-5.93.06-7.78-17.63-11.42-26.7-7.72-14.1,10.91-13.6,25-.67,13.77-.67,13.77l-5.56,4.63s-15.28-4.48-26.25,1.34c-17.13-3.53-33,3.71-34.8,4.27C108,52.5,101.63,61.19,100.25,62.68S86.88,68,80.59,92.5l-1,3.47s-15.68,13-21.85,18.34c-5.54,4.76-7.85,5.37-5.67,8s.89,1.74,7.06.14,9.58-6.17,11.45-6.42a33.18,33.18,0,0,0,3.41-.66s-3.24,6.34-4.85,7.75-2,9,3.83,2.45,9.71-16.85,9.71-16.85l4.7-6.11,0,0s3.53-6.22,4-7S105.06,80.5,112,70.55c0,0,25.63,1.43,34.59-3.16,0,0,1.53,1.65-.19,5.89-3.36,8.28-5.82,31.79-5.93,40.41s-1,8.73-1,8.73l-4.7,6.16s-28.55,11.19-31.68,25.75.22,16.79.34,18-18.91,19.25-21.15,46.79c-.23,2.81-23.62,0-29.22,11.08,0,0-21.6,22.95-27,26.53s-13.88,11.19-13.88,11.19S-8,269.78,5.13,286.74a16.3,16.3,0,0,1,4.11,15.2c-2.1,9.57,3,10.66,3.95,12,0,0,15.11,2.18,15.78,0s1.68-3.53-.59-3.95-8.06-.34-9.07-.84-2.6-16.54-1.85-19.48,1.6-12.09,1.6-12.09S25.53,269.5,57,253.72s35.37-19.81,36.6-20.48,5.26-2,9.29-3.81,18.36-18.36,18.36-18.36,25.07-30.73,27.31-36.1c0,0,27.86,8.8,66.75,3.53,0,0,3.09.59,3.82,11.87s3.85,13,9.28,20,15.06,24.23,18.54,31.17c0,0-4.5,14.08,2.63,15.19s1.15-2.38,12.47,3.62,15.19,8.74,18.48,9.45,7.69-.82,4.49-2.67S264,256.7,259,245s-16.58-58.32-16.58-58.32-7.91-26-10.34-28.12a15.48,15.48,0,0,0-5.93-2.87s-9.16-9.89-15.58-13.08c-19.48-9.68-42.71-9.46-42.71-9.46-1.51.34.84-5,.84-5s14.94-17.29,21-23.84S201.78,87.82,204.8,84.8c0,0,7.11-4.5,13.56-1s29.7,10.15,30.74,9.75,12.18-5.12,32-27.15c0,0,24.09-8.46,29.47-10.18S314.49,53.13,314.59,52Z" transform="translate(-0.68 -0.02)"/><path class="cls-1" d="M500.83,257.92c-2.35-.76-12.76-.08-15.11-1.55s-17.63-11.88-18.55-13.23-5.46-2.16-13.43-25.85S439,168.76,439,168.76l-4.53-1.17s-2.18-7.72-7.56-9.4-45-16.62-53.56-17.29-12.43-1-12.43-1-.06-9.07,12.82-26.87,20.6-28.53,20.6-28.53,26.11,4.53,35.85.76c9.51-3.69,16.53-13.87,16.53-13.87L453.7,63s8.68-11.08,12.71-13.77,24-7,24.35-8.4.34-7.05-1.43-7.22-12.76,3.53-14.94,3.27a5.1,5.1,0,0,1-3.19-1.43,14.28,14.28,0,0,1,7.72-4.62c4.79-.92,3.78-2.77,3.78-2.77s-9.32.25-11.92,1.34-8.4,4.53-10,9.32-12.85,13-15.28,14.61S430,58.94,423.59,67.84c0,0-12.64-8.36-24.31-4.27-.54.19-5.32-3.95-11.95-4.28-5-.26-5,.18-6.63.51-3.36.67,1.81-5.45,2.93-5.68s4.93.56,7.61-1.23,2.13-5.6,2.46-5.82,2.35-4.59,2.69-5,5-.9,5-.9-3.81-8.51-3.81-10.41,2-12.09,2-12.09,0-3.36-.9-3.81-15.22-9.85-25-5.93S353,15.33,360.21,45.55c0,0-4.59,8.73-5,8.42-2.58-1.94-11-2.29-18.73-1-4.18.71-6,3.3-9.65,4.15-5.21,1.23-9.06,2.32-9.32,2.39C308.84,62,295.4,71.86,295.4,71.86S289.88,83.29,289,85.13s-2.17,27.81-2.17,27.81l-1.29,4.3s-1.28,11.78.09,17.87c1.22,5.47,3.4,8.27,6.29,9.54,4.92,2.15,3.71.44,2.21-4.21-1.63-5.07-2.4-7.88-1.9-9.24a25.45,25.45,0,0,0,.79-2.55s3.12,4.48,3.49,6.08,5.34,4.59,3-1.71S294,119.44,294,119.44s1.12-2.87,1.35-3.77,6.54-19.63,10-31.28c0,0,12.23.79,24.69-8.88,0,0,1.41-1,1.41,1.58s-1,37.7-.87,38.82-1.45,7.72-1.79,8.84-2.13,5.71-12.31,14.22c0,0-23.4,5.71-20.49,28.21a46.79,46.79,0,0,0,1.34,5.71s-9.74-5.71-23.17,48.69c0,0-16,5.09-17.63,5.26s-15.45-2.85-22-.67-37.44,25.52-45.17,32.07c0,0-9.24,4.88-11.08,5.55s-19.06,7.38-9.07,16.62a35.3,35.3,0,0,1,5.21,19c-.34,10.75,1.68,10.75,6.3,14.86s5.88,4.11,7.22,3.53,3-2.18,2-3.36-3.95-2.43-5.21-5.71-2.77-6.88-2.43-9.49,1.34-18,1.18-20.15a4.28,4.28,0,0,1,1.68-3.95c.67-.42,9.07-11,22.72-13.57s39.74-13.66,41.31-14.89,11.42-5.37,12.76-5.71,13,3.13,18.36,1.57,4.7-3.58,9.63-10.19,23-20.93,26.53-26.81,10.24-12.09,13.43-21c0,0,25.35,7.39,52.05,1.85s29.55-7.22,29.55-7.22,4.7-2.18,6.21,2.52,1.85,15.62,7.39,24.68,34.17,42.57,34.17,42.57c.08.25-5,15.7,12.93,14a67.07,67.07,0,0,1,18.47.76s8.14.67,10.16-1.68S503.18,258.67,500.83,257.92Z" transform="translate(-0.68 -0.02)"/><path class="cls-1" d="M584.22,232.56s-.45,14.78,6.72,13.88.45-2.61,13,0,17,4.21,20.37,4,7.16-2.91,3.58-3.81-23.06-4.25-31.12-14.1-32-51.49-32-51.49S550,158.23,547.06,156.89a15.48,15.48,0,0,0-6.49-1.12s-11.64-6.49-18.58-8.28-28-2.69-28-2.69.9-6.49,1.57-6.94,6.49-9.85,7.39-11.19,19-25.84,21.47-31.36c0,0,2.57-.64,9.74.92s25.52,5.79,30.64,5.46c1.12-.07,11.58-14.43,24.56-41.07,0,0,20.82-14.78,25.52-17.91s2.91-4,2.69-5.15-19.48,5.37-19.48,5.37-4.48.9-5.15,0,5.82-6.27,5.82-8.28-2-4.7-2.69-2.69-6.49,7.16-6.49,7.84S588,51.44,586.69,53s-24.26,21.35-26.1,27.4c0,0-9.69-7.68-21-6.25-1.42.18-1.68-10.69-18.92-9.91,0,0-.11-3.71,2-4.75.85-.41,4.36,1.57,7.7,0,3.08-1.46,2.37-6.7,1.92-8s1.15-4.94,1.15-4.94l4.65-.5s-2.67-7.77-3.11-10.45.71-10.14.71-10.14-3.39-4.63-5.63-6S512.5,6.21,498,20.55c0,0-5.57,6.65-2.66,23.22.81,4.61,4.92,9.53-2.27,13.78-3.86,2.28-17.35-9.16-32.92,3-4.29,3.35-13.35,4.92-16.76,6.8-16.9,9.29-20.56,15.82-20.92,16.29-.67.9-2.28,1-4,8.14,0,0-13.86,34.66-16.77,40s-7.16,4.92-8.51,7.38-1.57,8.06,0,11.87,7.5,10.47,8.17,10.47,6.21-4.7,6.21-4.7-5.37-6.88-5.71-9.07a4.45,4.45,0,0,1,1.34-3.69l.84,6s.34,1.34,1.34,1.18,1.68-4.87,1.68-4.87-.67-8-.67-9.69,6.81-10.78,9.83-15.48,19.48-25.1,19.81-28.12a37.68,37.68,0,0,0,16.68-3.36c7.5-3.7,9.29-6.16,9.29-6.16s2-.66,1.81,5.55.5,29.22.5,29.22l-3,15.11S440,145.08,434,157.17s-1.34,20.65-.34,23.68c0,0-15.56,32-15.11,46.79l.34,2.57s-12.31,3.58-15.11,3.25-23.62,0-29.22,11.08c0,0-21.6,22.95-27,26.53s-13.88,11.19-13.88,11.19-20.26,1.85-7.08,18.81a16.3,16.3,0,0,1,4.11,15.2c-2.1,9.57,3,10.66,3.95,12,0,0,15.11,2.18,15.78,0s1.68-3.53-.59-3.95-8.06-.34-9.07-.84S338.21,306.95,339,304s1.6-12.09,1.6-12.09S347,283.83,378.48,268s35.37-19.81,36.6-20.48,7.16,0,11.19-1.79S443.85,231,443.85,231s6.1-6.83,25.91-38.56c0,0,30.73,4,66.66-11.75,0,0,3.13-.28,6.94,10.35s7.28,11.42,14.44,16.68S579,226.85,584.22,232.56Z" transform="translate(-0.68 -0.02)"/><path class="cls-1" d="M76.78,440.53l-1.83,1.4a10,10,0,0,0-3.63-3,10.62,10.62,0,0,0-4.65-1,10.28,10.28,0,0,0-5.13,1.33,9.54,9.54,0,0,0-3.66,3.57,9.88,9.88,0,0,0-1.3,5,9.47,9.47,0,0,0,2.9,7.07,10.07,10.07,0,0,0,7.33,2.83A10.3,10.3,0,0,0,74.95,454l1.83,1.39a11.67,11.67,0,0,1-4.32,3.41,13.56,13.56,0,0,1-5.78,1.2,12,12,0,0,1-9.59-4,12.21,12.21,0,0,1-2.94-8.25,11.47,11.47,0,0,1,3.57-8.56,12.29,12.29,0,0,1,8.93-3.47,13.11,13.11,0,0,1,5.86,1.28A11.36,11.36,0,0,1,76.78,440.53Z" transform="translate(-0.68 -0.02)"/><path class="cls-1" d="M86,435.65h2.2v23.74H86Z" transform="translate(-0.68 -0.02)"/><path class="cls-1" d="M100,434.24h3.38l-4.64,4.85H96.58l3.43-4.85Zm-2.19,8H100v17.13h-2.2Z" transform="translate(-0.68 -0.02)"/><path class="cls-1" d="M109.92,442.27h2.2v3.07a9.21,9.21,0,0,1,2.93-2.64,7.19,7.19,0,0,1,3.49-.87,6.08,6.08,0,0,1,3.41,1,5.81,5.81,0,0,1,2.2,2.63,13.91,13.91,0,0,1,.71,5.15v8.82h-2.2v-8.17a20.09,20.09,0,0,0-.25-4,4.34,4.34,0,0,0-1.47-2.56,4.44,4.44,0,0,0-2.83-.86,5.43,5.43,0,0,0-3.58,1.32,6.2,6.2,0,0,0-2.09,3.27,22.78,22.78,0,0,0-.31,4.66v6.28h-2.2Z" transform="translate(-0.68 -0.02)"/><path class="cls-1" d="M135.67,435.21a1.74,1.74,0,0,1,1.28.53,1.76,1.76,0,0,1,.53,1.29,1.81,1.81,0,0,1-3.62,0,1.76,1.76,0,0,1,.53-1.29,1.73,1.73,0,0,1,1.27-.53Zm-1.09,7.05h2.2v17.13h-2.2Z" transform="translate(-0.68 -0.02)"/><path class="cls-1" d="M163.3,445.82l-1.75,1.09a7.32,7.32,0,0,0-6.18-3,7.15,7.15,0,0,0-5.2,2,6.57,6.57,0,0,0-2.07,4.89,6.94,6.94,0,0,0,1,3.52,6.67,6.67,0,0,0,2.61,2.56,7.89,7.89,0,0,0,9.88-2.1l1.75,1.15a8.25,8.25,0,0,1-3.3,2.87,10.54,10.54,0,0,1-4.71,1,9.31,9.31,0,0,1-6.74-2.58,8.4,8.4,0,0,1-2.68-6.28,9,9,0,0,1,1.25-4.62,8.81,8.81,0,0,1,3.44-3.33,10,10,0,0,1,4.9-1.2,10.46,10.46,0,0,1,3.28.52,9.14,9.14,0,0,1,2.68,1.35A7.35,7.35,0,0,1,163.3,445.82Z" transform="translate(-0.68 -0.02)"/><path class="cls-1" d="M189.92,442.27v17.13h-2.17v-2.94a9.45,9.45,0,0,1-3.11,2.53,8.35,8.35,0,0,1-3.53.85v-2a6.89,6.89,0,0,0,3.42-.91,6.39,6.39,0,0,0,2.49-2.47,7.05,7.05,0,0,0,.87-3.51,6.81,6.81,0,0,0-2-5,6.48,6.48,0,0,0-4.82-2h0v-2.12a8,8,0,0,1,3.64.9,8.69,8.69,0,0,1,3,2.69v-3.15Zm-8.82,17.56h-.24a8.36,8.36,0,0,1-6.21-2.64,8.84,8.84,0,0,1-2.57-6.41,8.68,8.68,0,0,1,2.6-6.33,8.47,8.47,0,0,1,6.25-2.63h.17v2.12a6.64,6.64,0,0,0-5.87,3.44,6.94,6.94,0,0,0,0,6.92,6.77,6.77,0,0,0,2.49,2.57,6.52,6.52,0,0,0,3.36.92h0Z" transform="translate(-0.68 -0.02)"/><path class="cls-1" d="M231.54,435.65v23.74h-2.17v-2.94a9.44,9.44,0,0,1-3.11,2.53,8.35,8.35,0,0,1-3.53.85v-2a6.89,6.89,0,0,0,3.42-.91,6.38,6.38,0,0,0,2.49-2.47,7,7,0,0,0,.87-3.51,6.82,6.82,0,0,0-2-5,6.49,6.49,0,0,0-4.82-2h0v-2.12a8,8,0,0,1,3.64.9,8.69,8.69,0,0,1,3,2.69v-9.76Zm-8.82,24.18h-.24a8.36,8.36,0,0,1-6.21-2.64,8.84,8.84,0,0,1-2.57-6.41,8.68,8.68,0,0,1,2.6-6.33,8.47,8.47,0,0,1,6.25-2.63h.17v2.12a6.64,6.64,0,0,0-5.87,3.44,6.95,6.95,0,0,0,0,6.92,6.78,6.78,0,0,0,2.49,2.57,6.52,6.52,0,0,0,3.36.92h0Z" transform="translate(-0.68 -0.02)"/><path class="cls-1" d="M256.27,453.71l1.86,1a10.12,10.12,0,0,1-2.11,2.9,8.38,8.38,0,0,1-2.69,1.68,9.4,9.4,0,0,1-3.39.57h0v-2a7.32,7.32,0,0,0,2.4-.45,6.69,6.69,0,0,0,2.1-1.21,10.29,10.29,0,0,0,1.88-2.43Zm-6.38-11.88a8.44,8.44,0,0,1,6.92,3.32,9.27,9.27,0,0,1,1.89,5.86h-8.81v-1.9h6.38a7.31,7.31,0,0,0-1.28-2.82,6.09,6.09,0,0,0-2.23-1.7,6.83,6.83,0,0,0-2.87-.65Zm0,18a8.17,8.17,0,0,1-6.51-2.75,9.27,9.27,0,0,1-2.36-6.21,9.16,9.16,0,0,1,2-5.81,8.18,8.18,0,0,1,6.79-3.24h.08v2.11h0a6.28,6.28,0,0,0-4.33,1.62,7.32,7.32,0,0,0-2,3.54h6.38V451h-6.6a7,7,0,0,0,1.91,4.89,6.08,6.08,0,0,0,4.55,1.91h.14Z" transform="translate(-0.68 -0.02)"/><path class="cls-1" d="M290.05,436.28a15.83,15.83,0,0,1,2.64.27,6,6,0,0,1,3.35,2,5.78,5.78,0,0,1,1.29,3.82,6.18,6.18,0,0,1-.89,3.33,5.54,5.54,0,0,1-2.54,2.17,10.65,10.65,0,0,1-3.85.73v-2.24a8.11,8.11,0,0,0,2.53-.42,3.57,3.57,0,0,0,1.73-1.41,3.91,3.91,0,0,0,.62-2.16,3.75,3.75,0,0,0-.63-2.12,3.51,3.51,0,0,0-1.66-1.36,8.23,8.23,0,0,0-2.6-.4v-2.23Zm0,13.28,7.61,9.83H294.8l-4.75-6.13Zm-7.2-13.33h4.61q1.48,0,2.59,0v2.23h-4.89v7.87l4,0,.9,0v2.24l-.72,0,.72.93v3.7l-3.58-4.62h-1.31v10.75h-2.31Z" transform="translate(-0.68 -0.02)"/><path class="cls-1" d="M321.67,453.71l1.86,1a10.12,10.12,0,0,1-2.11,2.9,8.37,8.37,0,0,1-2.69,1.68,9.4,9.4,0,0,1-3.39.57h0v-2a7.32,7.32,0,0,0,2.4-.45,6.68,6.68,0,0,0,2.1-1.21,10.28,10.28,0,0,0,1.88-2.43Zm-6.38-11.88a8.44,8.44,0,0,1,6.92,3.32,9.27,9.27,0,0,1,1.89,5.86h-8.81v-1.9h6.38a7.31,7.31,0,0,0-1.28-2.82,6.09,6.09,0,0,0-2.23-1.7,6.83,6.83,0,0,0-2.87-.65Zm0,18a8.17,8.17,0,0,1-6.51-2.75,9.27,9.27,0,0,1-2.36-6.21,9.16,9.16,0,0,1,2-5.81,8.18,8.18,0,0,1,6.79-3.24h.08v2.11h0a6.28,6.28,0,0,0-4.33,1.62,7.32,7.32,0,0,0-2,3.54h6.38V451h-6.6a7,7,0,0,0,1.91,4.89,6.08,6.08,0,0,0,4.55,1.91h.14Z" transform="translate(-0.68 -0.02)"/><path class="cls-1" d="M333.52,435.65h2.2v9.68a9.37,9.37,0,0,1,2.94-2.64,7.16,7.16,0,0,1,3.48-.87,6.08,6.08,0,0,1,3.41,1,5.82,5.82,0,0,1,2.2,2.62,13.89,13.89,0,0,1,.71,5.16v8.82h-2.2v-8.17a20.88,20.88,0,0,0-.24-4,4.48,4.48,0,0,0-1.49-2.56,4.4,4.4,0,0,0-2.83-.86,5.43,5.43,0,0,0-3.58,1.32,6.2,6.2,0,0,0-2.09,3.27,22.64,22.64,0,0,0-.31,4.66v6.28h-2.2Z" transform="translate(-0.68 -0.02)"/><path class="cls-1" d="M375.57,442.27v17.13h-2.17v-2.94a9.44,9.44,0,0,1-3.11,2.53,8.35,8.35,0,0,1-3.53.85v-2a6.89,6.89,0,0,0,3.42-.91,6.38,6.38,0,0,0,2.49-2.47,7.05,7.05,0,0,0,.87-3.51,6.82,6.82,0,0,0-2-5,6.49,6.49,0,0,0-4.82-2h0v-2.12a8,8,0,0,1,3.64.9,8.69,8.69,0,0,1,3,2.69v-3.15Zm-8.82,17.56h-.24a8.36,8.36,0,0,1-6.21-2.64,8.84,8.84,0,0,1-2.57-6.41,8.68,8.68,0,0,1,2.6-6.33,8.47,8.47,0,0,1,6.25-2.63h.17v2.12a6.64,6.64,0,0,0-5.86,3.44,6.94,6.94,0,0,0,0,6.92,6.76,6.76,0,0,0,2.49,2.57,6.52,6.52,0,0,0,3.36.92h0Z" transform="translate(-0.68 -0.02)"/><path class="cls-1" d="M394.81,441.83H395a8.35,8.35,0,0,1,6.2,2.64,8.83,8.83,0,0,1,2.57,6.4,8.7,8.7,0,0,1-2.59,6.34,8.46,8.46,0,0,1-6.24,2.63h-.17v-2.12a6.64,6.64,0,0,0,5.86-3.45,7,7,0,0,0,0-6.94,6.75,6.75,0,0,0-2.49-2.57,6.46,6.46,0,0,0-3.34-.92h0ZM386,459.39V435.65h2.2v9.56a9.28,9.28,0,0,1,3.1-2.54,8.34,8.34,0,0,1,3.52-.84v2a6.86,6.86,0,0,0-3.41.92,6.42,6.42,0,0,0-2.5,2.48,7.07,7.07,0,0,0-.87,3.51,6.83,6.83,0,0,0,2,5,6.47,6.47,0,0,0,4.81,2h0v2.12a7.93,7.93,0,0,1-3.62-.9,8.83,8.83,0,0,1-3-2.69v3.15Z" transform="translate(-0.68 -0.02)"/><path class="cls-1" d="M413.92,435.21a1.75,1.75,0,0,1,1.29.53,1.77,1.77,0,0,1,.53,1.29,1.81,1.81,0,1,1-1.82-1.83Zm-1.09,7.05H415v17.13h-2.2Z" transform="translate(-0.68 -0.02)"/><path class="cls-1" d="M424.6,435.65h2.2v23.74h-2.2Z" transform="translate(-0.68 -0.02)"/><path class="cls-1" d="M437.46,435.21a1.75,1.75,0,0,1,1.29.53,1.77,1.77,0,0,1,.53,1.29,1.81,1.81,0,1,1-3.09-1.29,1.73,1.73,0,0,1,1.27-.53Zm-1.09,7.05h2.2v17.13h-2.2Z" transform="translate(-0.68 -0.02)"/><path class="cls-1" d="M450.39,435.91h2.2v6.36h3.49v1.9H452.6v15.22h-2.2V444.17h-3v-1.9h3Z" transform="translate(-0.68 -0.02)"/><path class="cls-1" d="M481.78,442.27v17.13h-2.17v-2.94A9.45,9.45,0,0,1,476.5,459a8.35,8.35,0,0,1-3.53.85v-2a6.89,6.89,0,0,0,3.42-.91,6.39,6.39,0,0,0,2.49-2.47,7.05,7.05,0,0,0,.87-3.51,6.82,6.82,0,0,0-2-5,6.49,6.49,0,0,0-4.82-2h0v-2.12a8,8,0,0,1,3.64.9,8.69,8.69,0,0,1,3,2.69v-3.15ZM473,459.83h-.24a8.36,8.36,0,0,1-6.21-2.64,8.84,8.84,0,0,1-2.57-6.41,8.68,8.68,0,0,1,2.6-6.33,8.47,8.47,0,0,1,6.25-2.63H473v2.12a6.65,6.65,0,0,0-5.87,3.44,6.94,6.94,0,0,0,0,6.92,6.76,6.76,0,0,0,2.49,2.57,6.52,6.52,0,0,0,3.36.92h0Z" transform="translate(-0.68 -0.02)"/><path class="cls-1" d="M508.68,445.82l-1.75,1.09a7.32,7.32,0,0,0-6.18-3,7.15,7.15,0,0,0-5.2,2,6.57,6.57,0,0,0-2.07,4.89,6.94,6.94,0,0,0,1,3.52,6.67,6.67,0,0,0,2.61,2.56,7.89,7.89,0,0,0,9.88-2.1l1.75,1.15a8.25,8.25,0,0,1-3.3,2.87,10.54,10.54,0,0,1-4.71,1,9.31,9.31,0,0,1-6.74-2.58,8.4,8.4,0,0,1-2.68-6.28,9,9,0,0,1,1.25-4.62,8.82,8.82,0,0,1,3.44-3.33,10,10,0,0,1,4.9-1.2,10.46,10.46,0,0,1,3.28.52,9.13,9.13,0,0,1,2.68,1.35A7.35,7.35,0,0,1,508.68,445.82Z" transform="translate(-0.68 -0.02)"/><path class="cls-1" d="M519,435.21a1.75,1.75,0,0,1,1.29.53,1.77,1.77,0,0,1,.53,1.29,1.82,1.82,0,0,1-1.82,1.81,1.82,1.82,0,0,1-1.8-1.81,1.76,1.76,0,0,1,.53-1.29,1.73,1.73,0,0,1,1.27-.53Zm-1.09,7.05h2.2v17.13h-2.2Z" transform="translate(-0.68 -0.02)"/><path class="cls-1" d="M538.12,441.82a8.48,8.48,0,0,1,6.56,2.86,9.2,9.2,0,0,1-.13,12.46,8.39,8.39,0,0,1-6.43,2.68h0v-2.09a6.68,6.68,0,0,0,3.36-.87,6.38,6.38,0,0,0,2.43-2.48,7,7,0,0,0,.9-3.46,6.78,6.78,0,0,0-2-4.91,6.37,6.37,0,0,0-4.72-2v-2.16Zm0-2.91v-3.13l1.09-1.55h3.38Zm0,20.92a8.4,8.4,0,0,1-6.43-2.68,9.18,9.18,0,0,1-.13-12.44,8.48,8.48,0,0,1,6.57-2.88V444h0a6.36,6.36,0,0,0-4.72,2,6.79,6.79,0,0,0-2,4.91,7,7,0,0,0,.9,3.46,6.38,6.38,0,0,0,2.43,2.48,6.68,6.68,0,0,0,3.36.87h0v2.09Zm0-24v3.13l-.17.17h-2.17Z" transform="translate(-0.68 -0.02)"/><path class="cls-1" d="M556.44,442.27h2.2v3.07a9.21,9.21,0,0,1,2.93-2.64,7.19,7.19,0,0,1,3.49-.87,6.08,6.08,0,0,1,3.41,1,5.81,5.81,0,0,1,2.2,2.63,13.91,13.91,0,0,1,.71,5.15v8.82h-2.2v-8.17a20.1,20.1,0,0,0-.25-4,4.34,4.34,0,0,0-1.47-2.56,4.44,4.44,0,0,0-2.83-.86,5.44,5.44,0,0,0-3.58,1.32,6.2,6.2,0,0,0-2.09,3.27,22.78,22.78,0,0,0-.31,4.66v6.28h-2.2Z" transform="translate(-0.68 -0.02)"/><path class="cls-1" d="M80.55,422.85c-1.29,0-25.55-.81-27.16-.81.24-4.27.24-21.52.24-23.37v-10.8c0-1.29-.16-20.63-.24-22.16,1.93,0,23-1,25.55-1.37l.32,6.37c-2.58,0-17.09.4-18.38.4v20.23c1.45,0,11.77-.4,15.72-.89l.24,6.37c-1.77,0-14.34-.32-16-.32v19.67c1.93,0,12.73.24,19.34-.24Z" transform="translate(-0.68 -0.02)"/><path class="cls-1" d="M105.94,417.45c7.9-1.61,18-5.64,18-12.17,0-4-2.58-6.12-8.38-9.27-6.85-3.71-11.61-7.09-11.61-12.82,0-8.54,11.93-16.36,23-18.86l1.69,6.2c-4.92.81-16.84,4.51-16.84,11.28,0,4.19,5.72,6.77,9.11,8.78,6.13,3.63,11,6.21,11,12.73,0,7.9-8.38,16.52-23.86,20.15Z" transform="translate(-0.68 -0.02)"/><path class="cls-1" d="M175.21,366.84c10.26,1.91,16.64,7,16.64,15.31,0,8.75-6.38,16.18-16.64,20.42V396.5c5.38-2.83,8.83-7.13,8.83-13.14,0-1.88-.83-7.79-8.83-10.45ZM159,422c.16-3.47.4-22.89.4-28.61v-8.87c0-1.85-.24-17.73-.24-18.94a110.35,110.35,0,0,1,15.15,1l.93.16v6.07a29.34,29.34,0,0,0-8.83-1.32v28h0a34.66,34.66,0,0,0,8.83-3.06v6.06a47.73,47.73,0,0,1-8.83,2.64V410c0,1.61,0,10.4.16,12.09Z" transform="translate(-0.68 -0.02)"/><path class="cls-1" d="M239.37,364.43q1.33-.09,2.7-.1c15.23,0,26.76,10.07,26.76,27.48,0,12.23-7.94,30.5-29.46,31.47v-5.95C251,416.8,261,407.62,261,392.22h0c0-14.43-9.51-21.92-20.07-21.92-.53,0-1.06,0-1.57,0ZM210,396.74c0-17,11.49-31,29.38-32.3v5.92c-13.49.8-21.64,11.9-21.64,25.18,0,12,7.9,21.84,20.55,21.84l1.09,0v5.95c-.59,0-1.2,0-1.81,0C220,423.33,210,410.92,210,396.74Z" transform="translate(-0.68 -0.02)"/><path class="cls-1" d="M300.66,397.38c0,3.06.24,23.45.4,24.66h-7.82c.32-1.93.16-27.48.16-29.17v-6.61c0-2.42-.16-19.1-.4-20.63a152.58,152.58,0,0,1,16.76.81c10.64,1.29,16.68,5.8,16.68,12.65s-4.59,12.17-11.2,16.36c2,2.74,16.52,20.71,18.78,23.13l-6.12,4.92c-.89-1.13-19-24.9-21.44-28.29,4-2.18,12.09-7.09,12.09-15,0-3.63-2.66-9-17.89-9.19Z" transform="translate(-0.68 -0.02)"/><path class="cls-1" d="M367.63,422c.4-2.1.48-25.63.48-38.44v-12c-9.27,0-20.71.4-22.81.73v-6.85c3.22.64,22.32,1,23.21,1h7c1.53,0,19.1-.32,22.65-1v6.85c-1.13-.32-16-.73-22.81-.73v13.3c0,16.36.81,35.54,1,37.15Z" transform="translate(-0.68 -0.02)"/><path class="cls-1" d="M425.74,397.7c0,8.06.24,22.49.32,24.34h-7.82c.16-3.55.24-22.41.24-24.5v-8.7c0-1.37-.24-21.28-.4-23.21h8.06c-.16,1.45-.4,13.7-.4,23.37Z" transform="translate(-0.68 -0.02)"/><path class="cls-1" d="M505.7,368.21c-2.82,4.19-27.4,50.93-30.3,56.5h-.16c-1.69-2.5-25.31-52.79-27.72-56.5l6.93-3.87c1.29,3.63,20.07,43,21.68,45.54,1.37-1.93,22-43,23-45.54Z" transform="translate(-0.68 -0.02)"/><path class="cls-1" d="M540.88,362.81h0C548,374.25,567.11,410.6,572.59,419l-6.85,4.51c-1.61-3.06-10.15-19.58-11-20.87l-13.82.56v-5.23l11.4-.48h0c-.84-1.68-9.78-18.62-11.4-21.49Zm-29.7,56.58c4.43-7.74,27.64-53.52,29.58-56.58h.12V376l-.2-.35c-1.21,1.77-10.48,21.52-11.2,22.81l11.4-.48v5.23l-14.14.57c-1,1.53-7.58,17.08-8.95,19.83Z" transform="translate(-0.68 -0.02)"/></svg>