<svg id="Layer_1" data-name="Layer 1" xmlns="http://www.w3.org/2000/svg" viewBox="0 0 624.56 352.26"><defs><style>.cls-1,.cls-2{fill:#005070;}.cls-1{fill-rule:evenodd;}</style></defs><title>evolution</title><polygon class="cls-1" points="28.93 351.57 23.82 351.57 4.91 331.26 4.91 351.57 0.81 351.57 0.81 326.81 5.91 326.81 24.82 347.12 24.82 326.81 28.93 326.81 28.93 351.57"/><path class="cls-1" d="M63.6,398.53A6.26,6.26,0,0,1,60.29,404c-2.21,1.4-5.19,2.1-8.89,2.1s-6.73-.7-8.93-2.1a6.24,6.24,0,0,1-3.32-5.42V384.4h4.11v13.31q0,4.65,8.15,4.65t8.1-4.65V384.4H63.6Z" transform="translate(-2.72 -53.87)"/><polygon class="cls-1" points="89.3 334.22 79.26 334.22 79.26 351.57 75.14 351.57 75.14 334.22 65.08 334.22 65.08 330.53 89.3 330.53 89.3 334.22"/><path class="cls-1" d="M121.25,405.44h-4.71l-5.5-7.73H100.59v7.73H96.48v-21h17a7.63,7.63,0,0,1,5.34,1.81,6.26,6.26,0,0,1,2,4.86c0,3.48-1.75,5.62-5.23,6.4l5.68,8ZM112.87,394h0c2.48,0,3.73-1,3.73-2.88s-1.33-3.05-4-3.05h-12V394Z" transform="translate(-2.72 -53.87)"/><path class="cls-1" d="M151.94,405.44h-4.51L145,400.93H130.86l-2.43,4.52h-4.51l11.46-21h5.09l11.46,21Zm-9-8.21h0l-5-9.32-5,9.32Z" transform="translate(-2.72 -53.87)"/><path class="cls-1" d="M181.15,389.46l-3.76,1.3a11.7,11.7,0,0,0-8.59-3.35,11.31,11.31,0,0,0-7.14,2.06,6.75,6.75,0,0,0,0,10.77,13,13,0,0,0,15.8-1.37l3.53,1.88A15.55,15.55,0,0,1,168.77,406q-6.29,0-10.18-3.13a10.13,10.13,0,0,1,.53-16.34,16.92,16.92,0,0,1,22,2.94Z" transform="translate(-2.72 -53.87)"/><polygon class="cls-1" points="206.83 351.57 184.18 351.57 184.18 330.53 206.05 330.53 206.05 334.22 188.29 334.22 188.29 338.77 200.63 338.77 200.63 342.47 188.29 342.47 188.29 347.88 206.83 347.88 206.83 351.57"/><path class="cls-1" d="M239.08,398.53a6.26,6.26,0,0,1-3.32,5.42c-2.2,1.4-5.18,2.1-8.89,2.1s-6.72-.7-8.93-2.1a6.24,6.24,0,0,1-3.32-5.42V384.4h4.11v13.31q0,4.65,8.14,4.65t8.1-4.65V384.4h4.11Z" transform="translate(-2.72 -53.87)"/><polygon class="cls-1" points="264.78 334.22 254.72 334.22 254.72 351.57 250.62 351.57 250.62 334.22 240.56 334.22 240.56 330.53 264.78 330.53 264.78 334.22"/><rect class="cls-2" x="269.22" y="330.53" width="4.11" height="21.04"/><path class="cls-1" d="M308.42,389.46l-3.77,1.3a11.69,11.69,0,0,0-8.59-3.35,11.3,11.3,0,0,0-7.14,2.06,6.76,6.76,0,0,0,0,10.77,13,13,0,0,0,15.8-1.37l3.52,1.88A15.55,15.55,0,0,1,296,406q-6.3,0-10.18-3.13a10.14,10.14,0,0,1,.52-16.34,16.93,16.93,0,0,1,22,2.94Z" transform="translate(-2.72 -53.87)"/><path class="cls-1" d="M339,405.44h-4.52l-2.42-4.52H318l-2.43,4.52H311l11.47-21h5.09l11.46,21Zm-9-8.21h0l-5-9.32-5,9.32Z" transform="translate(-2.72 -53.87)"/><polygon class="cls-1" points="360.71 351.57 340.36 351.57 340.36 330.53 344.46 330.53 344.46 347.88 360.71 347.88 360.71 351.57"/><path class="cls-1" d="M407.6,386.32l-3.73,1.34q-3.76-4-10.53-4a12.86,12.86,0,0,0-8.37,2.64,8.69,8.69,0,0,0,0,13.5q3.19,2.58,8.64,2.58,6.56,0,10.32-4.07l3.53,2a15.94,15.94,0,0,1-6,4.5,21.15,21.15,0,0,1-8.06,1.39,17.62,17.62,0,0,1-10.92-3.28,12.16,12.16,0,0,1,.07-19.64,17.46,17.46,0,0,1,10.85-3.32Q402.63,379.88,407.6,386.32Z" transform="translate(-2.72 -53.87)"/><path class="cls-1" d="M440.34,394.87a10,10,0,0,1-4.41,8.41,17.41,17.41,0,0,1-18.86,0,10.15,10.15,0,0,1,0-16.76,17,17,0,0,1,18.78,0,9.93,9.93,0,0,1,4.45,8.35Zm-4.28,0h0a6.56,6.56,0,0,0-2.67-5.37,12.34,12.34,0,0,0-13.83,0,6.79,6.79,0,0,0-.06,10.79,11,11,0,0,0,7,2.07,10.87,10.87,0,0,0,6.94-2.07A6.59,6.59,0,0,0,436.07,394.85Z" transform="translate(-2.72 -53.87)"/><polygon class="cls-1" points="473.06 351.57 468.95 351.57 468.86 334.27 458.29 348.6 447.75 334.12 447.64 334.27 447.64 351.57 443.54 351.57 443.54 330.53 449.7 330.53 458.29 342.43 466.89 330.53 473.06 330.53 473.06 351.57"/><path class="cls-1" d="M500,384.4a7.59,7.59,0,0,1,5.33,1.81,6.24,6.24,0,0,1,2,4.86,6,6,0,0,1-2.07,4.91,9,9,0,0,1-5.94,1.73H487.08v7.73H483v-21Zm-.62,9.62h0c2.49,0,3.74-1,3.74-2.88s-1.33-3.05-4-3.05h-12V394Z" transform="translate(-2.72 -53.87)"/><path class="cls-1" d="M536.44,405.44h-4.52l-2.42-4.52H515.36l-2.43,4.52h-4.51l11.46-21H525l11.46,21Zm-9-8.21h0l-5-9.32-5,9.32Z" transform="translate(-2.72 -53.87)"/><polygon class="cls-1" points="562.29 351.57 556.16 351.57 541.86 334.02 541.86 351.57 537.75 351.57 537.75 330.53 543.88 330.53 558.18 348.09 558.18 330.53 562.29 330.53 562.29 351.57"/><polygon class="cls-1" points="594.04 330.53 582.06 343.29 582.06 351.57 577.96 351.57 577.96 343.29 566.05 330.53 571.06 330.53 580.06 340.13 589.06 330.53 594.04 330.53"/><polygon class="cls-1" points="58.4 314.04 0 314.04 0 258.09 56.38 258.09 56.38 269.69 12.45 269.69 12.45 279.26 42.99 279.26 42.99 290.85 12.45 290.85 12.45 302.45 58.4 302.45 58.4 314.04"/><polygon class="cls-1" points="107.56 314.04 93.38 314.04 62.44 258.06 78.62 258.06 100.47 298.4 122.32 258.06 138.51 258.06 107.56 314.04"/><path class="cls-1" d="M177.52,369.42c-9.66,0-17.88-2.43-24.44-7.22-7.78-5.66-11.71-13.2-11.71-22.4s4-16.58,11.81-22.25c6.71-4.9,14.91-7.38,24.35-7.38s17.54,2.49,24.26,7.38c7.84,5.72,11.81,13.2,11.81,22.24s-3.94,16.67-11.71,22.39c-6.51,4.8-14.71,7.23-24.36,7.23Zm0-45.76h0c-6.38,0-11.64,1.59-15.62,4.73a14.4,14.4,0,0,0-.14,22.92c3.89,3.06,9.18,4.61,15.75,4.61s11.76-1.55,15.62-4.61a14.5,14.5,0,0,0-.12-23C189,325.24,183.83,323.67,177.48,323.67Z" transform="translate(-2.72 -53.87)"/><polygon class="cls-1" points="275.23 314.04 220.93 314.04 220.93 258.06 235.43 258.06 235.43 300.55 275.23 300.55 275.23 314.04"/><path class="cls-1" d="M316,369.42c-9.54,0-17.31-1.86-23.05-5.5-6.08-3.85-9.16-9-9.16-15.16V311.94H298.3v34.82c0,2.27,0,9.18,17.73,9.18s17.65-6.91,17.65-9.18V311.93h14.49v36.83c0,6.21-3.08,11.31-9.16,15.16C333.25,367.56,325.52,369.42,316,369.42Z" transform="translate(-2.72 -53.87)"/><polygon class="cls-1" points="390.45 314.04 375.95 314.04 375.95 271.55 351.32 271.55 351.32 258.06 415.1 258.06 415.1 271.55 390.45 271.55 390.45 314.04"/><rect class="cls-2" x="421.55" y="258.06" width="14.5" height="55.97"/><path class="cls-1" d="M485,369.42c-9.66,0-17.88-2.43-24.44-7.22-7.77-5.66-11.72-13.2-11.72-22.4s4-16.58,11.81-22.25c6.72-4.9,14.92-7.38,24.35-7.38s17.53,2.49,24.26,7.38c7.83,5.73,11.8,13.21,11.8,22.25s-3.94,16.68-11.71,22.39c-6.52,4.8-14.71,7.23-24.36,7.23Zm0-45.76h0c-6.39,0-11.66,1.59-15.62,4.73a14.41,14.41,0,0,0-.14,22.92c3.89,3.06,9.19,4.61,15.76,4.61s11.75-1.55,15.61-4.61a14.49,14.49,0,0,0-.12-23C496.48,325.24,491.28,323.67,484.94,323.67Z" transform="translate(-2.72 -53.87)"/><polygon class="cls-1" points="592.91 314.04 574.64 314.04 542.87 275.07 542.87 314.04 528.39 314.04 528.39 258.06 546.65 258.06 578.42 297.05 578.42 258.06 592.91 258.06 592.91 314.04"/><path class="cls-1" d="M299.18,53.87a76.63,76.63,0,1,0,76.94,76.63,76.8,76.8,0,0,0-76.94-76.63Zm0,148.2h0a60.16,60.16,0,1,1,60.41-60.16A60.29,60.29,0,0,1,299.18,202.07Z" transform="translate(-2.72 -53.87)"/><path class="cls-1" d="M150.34,175.54a76.91,76.91,0,1,0,97.6-47.93,76.59,76.59,0,0,0-97.6,47.93Zm140.9,47.65h0a60.38,60.38,0,1,1-37.78-76.32A60.45,60.45,0,0,1,291.23,223.19Z" transform="translate(-2.72 -53.87)"/><path class="cls-1" d="M350.42,127.61A76.66,76.66,0,1,0,448,175.54a76.56,76.56,0,0,0-97.59-47.93Zm-5.53,19.26h0a60.19,60.19,0,1,1-37.77,76.32A60.46,60.46,0,0,1,344.89,146.87Z" transform="translate(-2.72 -53.87)"/><path class="cls-1" d="M299.18,102.19a52.42,52.42,0,1,0,52.64,52.43,52.54,52.54,0,0,0-52.64-52.43Zm0,101.38h0a41.15,41.15,0,1,1,41.31-41.15A41.24,41.24,0,0,1,299.18,203.57Z" transform="translate(-2.72 -53.87)"/><path class="cls-1" d="M197.37,185.42a52.61,52.61,0,1,0,66.76-32.79,52.35,52.35,0,0,0-66.76,32.79ZM293.73,218h0a41.3,41.3,0,1,1-25.83-52.21A41.33,41.33,0,0,1,293.73,218Z" transform="translate(-2.72 -53.87)"/><path class="cls-1" d="M334.23,152.63A52.44,52.44,0,1,0,401,185.42a52.39,52.39,0,0,0-66.75-32.79Zm-3.78,13.17h0A41.17,41.17,0,1,1,304.62,218,41.39,41.39,0,0,1,330.45,165.8Z" transform="translate(-2.72 -53.87)"/><path class="cls-1" d="M614,311.93a13.58,13.58,0,0,1,6.58,1.71,12.42,12.42,0,0,1,4.95,4.91,13.39,13.39,0,0,1,0,13.33,12.66,12.66,0,0,1-4.93,4.93,13.35,13.35,0,0,1-13.27,0,12.53,12.53,0,0,1-4.92-4.93,13.36,13.36,0,0,1,0-13.33,12.37,12.37,0,0,1,4.95-4.91,13.61,13.61,0,0,1,6.57-1.71Zm0,2.61h0a10.85,10.85,0,0,0-5.26,1.38,10,10,0,0,0-4,3.95,10.79,10.79,0,0,0,0,10.73,10.21,10.21,0,0,0,4,4,10.69,10.69,0,0,0,10.65,0,10.09,10.09,0,0,0,4-4,10.61,10.61,0,0,0,1.43-5.34,10.77,10.77,0,0,0-1.45-5.39,9.93,9.93,0,0,0-4-3.95,10.93,10.93,0,0,0-5.29-1.38Zm-6,17.85h2.87v-5.81h.75a3.13,3.13,0,0,1,2,.6,9.44,9.44,0,0,1,2,2.91l1.19,2.3h3.54l-1.67-2.85c-.59-1-.94-1.59-1-1.72a7.38,7.38,0,0,0-1-1.09,3.72,3.72,0,0,0-1-.53,4.56,4.56,0,0,0,2.82-1.35,3.73,3.73,0,0,0,1-2.61,3.89,3.89,0,0,0-.53-2,3.54,3.54,0,0,0-1.32-1.36,5.46,5.46,0,0,0-2.21-.56c-.33,0-1.83,0-4.52,0h-2.87v14.14Zm2.87-8H612a13.65,13.65,0,0,0,3.08-.19,1.87,1.87,0,0,0,.95-.66,1.83,1.83,0,0,0,.35-1.09,1.73,1.73,0,0,0-.35-1.05,1.79,1.79,0,0,0-1-.66,13.26,13.26,0,0,0-3.07-.2h-1.17Z" transform="translate(-2.72 -53.87)"/></svg>