<svg id="Layer_1" data-name="Layer 1" xmlns="http://www.w3.org/2000/svg" viewBox="0 0 622.19 271.86"><defs><style>.cls-1{fill:#005070;}.cls-1,.cls-2{fill-rule:evenodd;}.cls-2{fill:#006488;}</style></defs><title>g-se</title><path class="cls-1" d="M605.08,113H192.39a125.93,125.93,0,0,0-49.75-10.51c-75,0-125.42,71.82-125.42,128.22,0,51,38.5,126.82,125.42,126.82,67.17,0,101.59-48.34,101.59-48.34h76.45V279.84h3.91a82.75,82.75,0,0,0,24.81,13.61,80.52,80.52,0,0,0,26.39,4.76,85.24,85.24,0,0,0,8.56-.56,34,34,0,0,0,8.66-1.86,21.54,21.54,0,0,0,6.75-4.19q2.65-2.52,2.65-7.46a10.07,10.07,0,0,0-3.86-7.88q-3.86-3.31-11.31-5.08-7.82-1.86-16.52-3.5a126.62,126.62,0,0,1-16.33-4.15q-17.5-5.69-25.18-15.43t-7.68-24.2q0-19.39,17.36-31.66T383.52,180a138.2,138.2,0,0,1,27,2.66,126.24,126.24,0,0,1,23.13,6.67v32h-3.82A73.71,73.71,0,0,0,409.35,210a70.58,70.58,0,0,0-24.81-4.52,65.53,65.53,0,0,0-8.89.61,34.82,34.82,0,0,0-8.52,2.28,16.28,16.28,0,0,0-6.24,4.24,9.33,9.33,0,0,0-2.61,6.48,9.68,9.68,0,0,0,4.19,8.44q4.19,2.94,15.82,5.36,7.63,1.59,14.66,3.08a153.39,153.39,0,0,1,15.12,4.1q15.92,5.22,23.5,14.22t7.59,23.36q0,19.06-15,31.48H458.9V182.49H559.14v26.85H494.45v24h60v26.86h-60v34.31h64.69v14.69h45.93a21,21,0,0,0,21-21V134a21,21,0,0,0-21-21ZM214.25,313.41h0a187.18,187.18,0,0,1-24.67,7.23A134.2,134.2,0,0,1,159,324.23q-35.37,0-55.38-19.25t-20-53.2q0-32.35,20.2-52.17t56.31-19.82a132.94,132.94,0,0,1,26.06,2.47q12.38,2.47,27.55,9.84v32.54h-4q-2.61-2-7.63-5.55a92.56,92.56,0,0,0-9.68-6.11,63.56,63.56,0,0,0-12.61-5.13,53.46,53.46,0,0,0-15.31-2.14,50.33,50.33,0,0,0-17.22,2.8,39.89,39.89,0,0,0-13.87,8.58,39.11,39.11,0,0,0-9.26,14.22,54,54,0,0,0-3.4,19.91q0,23,12.19,35.25t36,12.22q2,0,4.51-.09t4.51-.28V271.08H150.3v-26.2h63.95v68.54ZM305.08,273h-71V246.18h71Z" transform="translate(-3.9 -94.07)"/><path class="cls-2" d="M275.73,211.78H265.24c0-10.09-22-99.52-119.11-99.52-68.24,0-117.77,61.41-117.77,115.66,0,54,38.4,121.18,119.87,121.18,65,0,89.68-40.64,89.68-40.64h14s-35.6,57.45-110,57.45S3.9,305.67,3.9,228.6c0-69,59-134.53,138.73-134.53C230.18,94.07,275.73,175.41,275.73,211.78Z" transform="translate(-3.9 -94.07)"/></svg>