<svg id="Capa_1" data-name="Capa 1" xmlns="http://www.w3.org/2000/svg" viewBox="0 0 205 150"><defs><style>.cls-1,.cls-2{fill:#005070;}.cls-1{fill-rule:evenodd;}</style></defs><title>Logos página web</title><path class="cls-1" d="M195,42.49a2.57,2.57,0,0,1-3.67,0,2.61,2.61,0,0,1,0-3.66A2.59,2.59,0,1,1,195,42.49h0Zm-3.41-3.41h0a2.15,2.15,0,0,0-.65,1.57,2.19,2.19,0,0,0,.64,1.59,2.23,2.23,0,0,0,3.81-1.59,2.24,2.24,0,0,0-2.22-2.23,2.15,2.15,0,0,0-1.58.66h0Zm1.52,0.14h-1v2.85h0.51V41H193a1.2,1.2,0,0,1,.56.09,0.68,0.68,0,0,1,.26.65v0.22l0,0.09s0,0,0,0,0,0,0,0h0.48l0,0a0.32,0.32,0,0,1,0-.15c0-.07,0-0.14,0-0.21V41.47A0.86,0.86,0,0,0,194.1,41a0.69,0.69,0,0,0-.49-0.28A1,1,0,0,0,194,40.6a0.61,0.61,0,0,0,.27-0.55,0.71,0.71,0,0,0-.43-0.73,2.19,2.19,0,0,0-.78-0.1h0Zm0.55,0.45h0a1.27,1.27,0,0,0-.61-0.11h-0.43v1H193a1.4,1.4,0,0,0,.48-0.06,0.44,0.44,0,0,0,.29-0.45A0.43,0.43,0,0,0,193.62,39.67Z"/><polygon class="cls-1" points="74.09 41.87 88.4 23.73 79.82 26.47 64.06 45.42 74.09 41.87"/><polygon class="cls-1" points="92.29 34.83 81 39.43 14.08 113.54 9.28 126.27 92.29 34.83"/><polygon class="cls-1" points="33.75 61.2 23.42 65.36 20.43 70.3 31.92 66.12 33.75 61.2"/><path class="cls-1" d="M12.31,77L32.9,39.3H15.73a6,6,0,0,0-5.94,5.89v69.6L26,71.94Z"/><path class="cls-1" d="M93.26,39.3L22.95,116.36H97.47v0h85a5.94,5.94,0,0,0,5.93-5.94V45.24a5.94,5.94,0,0,0-5.93-5.95H93.26Zm93.41,71.14h0a4.25,4.25,0,0,1-4.24,4.25H99V41h83.43a4.26,4.26,0,0,1,4.24,4.26v65.19Z"/><path class="cls-1" d="M131.92,73.36V66.52c0-2.29-1.54-2.87-3-2.87h-1.56c-1.46,0-3,.58-3,2.87v6.84c0,2.25,1.55,2.84,3,2.84h1.56c1.48,0,3-.59,3-2.84h0Zm-4.53,1.5h0a1.53,1.53,0,0,1-1.65-1.76V66.77A1.52,1.52,0,0,1,127.4,65h1.45a1.52,1.52,0,0,1,1.65,1.75V73.1a1.52,1.52,0,0,1-1.63,1.76h-1.48Z"/><path class="cls-1" d="M108.1,70.44c1.2,0,2.63.18,2.55,1.57v1.43c0,1.19-1.23,1.43-2.31,1.43s-3.37-.2-3.37-0.2l-0.14.14V76s2.3,0.2,3.89.2,3.34-.49,3.34-2.65V71.74c0-2.18-1.89-2.65-3.34-2.65s-2.63-.08-2.63-1.43V66.39c0-1.19,1.21-1.39,2.29-1.39s2.93,0.2,2.93.2l0.13-.14V63.85s-1.85-.2-3.45-0.2-3.31.39-3.31,2.55v1.53C104.67,69.89,106.5,70.44,108.1,70.44Z"/><path class="cls-1" d="M156.8,70.44c1.18,0,2.61.18,2.54,1.57v1.43c0,1.19-1.24,1.43-2.32,1.43s-3.37-.2-3.37-0.2l-0.13.14V76s2.29,0.2,3.89.2,3.34-.49,3.34-2.65V71.74c0-2.18-1.9-2.65-3.34-2.65s-2.64-.08-2.64-1.43V66.39c0-1.19,1.21-1.39,2.29-1.39s2.94,0.2,2.94.2l0.13-.14V63.85s-1.86-.2-3.46-0.2-3.31.39-3.31,2.55v1.53C153.36,69.89,155.19,70.44,156.8,70.44Z"/><path class="cls-1" d="M116.1,71.16h3.17c1.46,0,3-.58,3-2.91V66.77c0-2.34-1.54-2.92-3-2.92h-4.57V76h1.41V71.16h0Zm0-6h3.17a1.46,1.46,0,0,1,1.59,1.62v1.37a1.44,1.44,0,0,1-1.58,1.61H116.1V65.2Z"/><polygon class="cls-1" points="151.74 63.85 144.03 63.85 144.03 65.2 147.19 65.2 147.19 75.99 148.59 75.99 148.59 65.2 151.74 65.2 151.74 63.85"/><path class="cls-1" d="M141.11,76h1.7L140,70.9A2.6,2.6,0,0,0,142.33,68V66.77c0-2.34-1.54-2.92-3-2.92h-4.57V76h1.42V71h2.2l2.75,5h0Zm-5-10.8h3.15a1.46,1.46,0,0,1,1.6,1.62V68a1.44,1.44,0,0,1-1.58,1.62h-3.18V65.2Z"/><path class="cls-1" d="M121.69,91.13L121.56,91s-1.89.19-3.11,0.19-2.35-.19-2.35-1.58V82.91c0-1.39,1.21-1.58,2.35-1.58s3.11,0.19,3.11.19l0.13-.13V80.18s-2-.19-3.62-0.19-3.37.39-3.37,2.55V90c0,2.16,1.91,2.55,3.37,2.55s3.62-.2,3.62-0.2v-1.2Z"/><rect class="cls-2" x="124.33" y="80.18" width="1.41" height="12.15"/><path class="cls-1" d="M112.05,89.88V88.06c0-2.18-1.89-2.65-3.34-2.65s-2.64-.09-2.64-1.43V82.72c0-1.19,1.21-1.38,2.29-1.38s2.93,0.19,2.93.19l0.13-.13V80.17S109.58,80,108,80s-3.31.39-3.31,2.54v1.52c0,2.16,1.84,2.72,3.43,2.72,1.2,0,2.62.18,2.55,1.56v1.43c0,1.19-1.23,1.43-2.32,1.43S105,91,105,91l-0.14.13v1.2s2.3,0.2,3.89.2S112.05,92,112.05,89.88Z"/><polygon class="cls-1" points="136.16 81.53 136.16 80.17 128.97 80.17 128.97 92.33 136.16 92.33 136.16 91 130.38 91 130.38 86.73 135 86.73 135 85.41 130.38 85.41 130.38 81.53 136.16 81.53"/><path class="cls-1" d="M156.4,92.33v-1.2L156.27,91s-1.89.19-3.11,0.19-2.35-.19-2.35-1.58V82.91c0-1.39,1.22-1.58,2.35-1.58s3.11,0.19,3.11.19l0.13-.13V80.18s-2-.19-3.63-0.19-3.37.39-3.37,2.55V90c0,2.16,1.91,2.55,3.37,2.55S156.4,92.33,156.4,92.33Z"/><polygon class="cls-1" points="165.85 91 160.06 91 160.06 86.73 164.69 86.73 164.69 85.4 160.06 85.4 160.06 81.53 165.85 81.53 165.85 80.17 158.66 80.17 158.66 92.33 165.85 92.33 165.85 91"/><polygon class="cls-1" points="146.57 92.33 146.57 80.17 145.16 80.17 145.16 89.88 140.47 80.17 138.8 80.17 138.8 92.33 140.21 92.33 140.21 82.98 144.78 92.33 146.57 92.33"/><polygon class="cls-1" points="115.86 106.21 111.16 96.51 109.49 96.51 109.49 108.66 110.9 108.66 110.9 99.31 115.47 108.66 117.27 108.66 117.27 96.51 115.86 96.51 115.86 106.21"/><path class="cls-1" d="M124,101.73c-1.44,0-2.64-.07-2.64-1.43V99.05c0-1.19,1.21-1.39,2.29-1.39s2.94,0.2,2.94.2l0.14-.14V96.51s-1.85-.19-3.46-0.19-3.32.38-3.32,2.55v1.52c0,2.15,1.84,2.72,3.43,2.72,1.2,0,2.62.18,2.56,1.56v1.43c0,1.19-1.24,1.42-2.32,1.42s-3.37-.19-3.37-0.19l-0.13.13v1.2s2.29,0.2,3.89.2,3.34-.49,3.34-2.64v-1.82C127.3,102.21,125.4,101.73,124,101.73Z"/><rect class="cls-2" x="104.86" y="96.5" width="1.4" height="12.15"/><polygon class="cls-1" points="176.85 97.86 176.85 96.5 169.66 96.5 169.66 108.65 176.85 108.65 176.85 107.32 171.07 107.32 171.07 103.06 175.7 103.06 175.7 101.73 171.07 101.73 171.07 97.86 176.85 97.86"/><polygon class="cls-1" points="160.16 97.86 163.31 97.86 163.31 108.65 164.71 108.65 164.71 97.86 167.84 97.86 167.84 96.5 160.16 96.5 160.16 97.86"/><path class="cls-1" d="M156.94,105.76a1.52,1.52,0,0,1-1.63,1.75h-1.5a1.52,1.52,0,0,1-1.63-1.75V96.51h-1.41V106c0,2.25,1.55,2.85,3,2.85h1.57c1.46,0,3-.59,3-2.85v-9.5h-1.41v9.25Z"/><polygon class="cls-1" points="128.53 97.86 131.68 97.86 131.68 108.65 133.08 108.65 133.08 97.86 136.23 97.86 136.23 96.5 128.53 96.5 128.53 97.86"/><polygon class="cls-1" points="141.25 97.86 144.4 97.86 144.4 108.65 145.81 108.65 145.81 97.86 148.95 97.86 148.95 96.5 141.25 96.5 141.25 97.86"/><rect class="cls-2" x="138.04" y="96.5" width="1.4" height="12.15"/><path class="cls-1" d="M112.54,59.69s-2.8.19-4.41,0.19-3.52-.39-3.52-2.55V49.87c0-2.17,2-2.55,3.52-2.55s4,0.19,4,.19v2l-0.14.14s-1.89-.19-3.11-0.19-2,.19-2,1.59v5.14c0,1.4.69,1.59,2,1.59,0.26,0,1,0,1.32,0V55.15h-1L109.07,55v-1.8h3.47v6.48Z"/><path class="cls-1" d="M120.13,47.41l3.05,12.28h-2.63l-0.81-3.75h-2.65l-0.75,3.75h-2.63l3.06-12.28h3.37Zm-2.69,6.4h1.94l-0.93-4.37Z"/><polygon class="cls-1" points="128.02 49.63 128.02 59.69 125.69 59.69 125.69 49.63 122.79 49.63 122.79 47.51 130.92 47.51 130.92 49.63 128.02 49.63"/><path class="cls-1" d="M132.27,57.14V50.06c0-2.16,1.57-2.74,3-2.74h2c1.47,0,3,.58,3,2.74v7.08c0,2.17-1.56,2.75-3,2.75h-2c-1.47,0-3-.58-3-2.75h0Zm2.32-.78h0c0,1.22.52,1.4,1.27,1.4h0.93c0.75,0,1.27-.18,1.27-1.4V50.84c0-1.22-.54-1.38-1.31-1.38h-0.87c-0.76,0-1.3.15-1.3,1.38v5.53Z"/><path class="cls-1" d="M150.83,51.82c0,1.7-.56,2.63-2,3l2.45,4.85h-2.7L146.29,55H145v4.74h-2.32V47.51h5.09c1.47,0,3,.58,3,2.94v1.38h0Zm-3.4,1h0c0.75,0,1.08-.17,1.08-1V50.64c0-.82-0.34-1-1.12-1H145v3.19h2.4Z"/><path class="cls-1" d="M158.89,47.41L162,59.69h-2.63l-0.81-3.75h-2.65l-0.75,3.75h-2.63l3.05-12.28h3.37Zm-2.69,6.4h1.93l-0.92-4.37Z"/><path class="cls-1" d="M171.64,56.4c0,2.51-1.54,3.29-3.48,3.29h-4.64V47.51h4.64c1.94,0,3.48.77,3.48,3.28V56.4h0Zm-2.32-5.22h0a1.33,1.33,0,0,0-1.55-1.55h-1.93v7.93h1.93A1.33,1.33,0,0,0,169.32,56V51.18Z"/><polygon class="cls-1" points="176.28 52.35 180.54 52.35 180.54 54.47 176.28 54.47 176.28 57.56 181.7 57.56 181.7 59.69 173.96 59.69 173.96 47.51 181.7 47.51 181.7 49.64 176.28 49.64 176.28 52.35"/></svg>