<svg id="Layer_1" data-name="Layer 1" xmlns="http://www.w3.org/2000/svg" viewBox="0 0 625 329.53"><defs><style>.cls-1,.cls-2{fill:#005070;}.cls-2,.cls-3{fill-rule:evenodd;}.cls-3{fill:#fff;}</style></defs><title>iisb</title><rect class="cls-1" y="0.76" width="305.38" height="328.02"/><path class="cls-2" d="M339.78,119.32v1.47H327.67v-1.47h1a2.68,2.68,0,0,0,2.55-2c.33-.86.5-2.91.5-6.16V76.05a34.21,34.21,0,0,0-.27-5.44,3.63,3.63,0,0,0-.86-1.72,2.65,2.65,0,0,0-1.92-1h-1V66.46h12.12v1.47h-1a2.66,2.66,0,0,0-2.52,2c-.35.86-.52,2.91-.52,6.16V111.2a34.19,34.19,0,0,0,.27,5.44,3.46,3.46,0,0,0,.87,1.72,2.57,2.57,0,0,0,1.89,1Zm.46-52.85h7.6l17.33,40.79V75.89q0-5-.59-6.27a2.58,2.58,0,0,0-2.47-1.68h-1V66.46h9.94v1.47h-1A2.68,2.68,0,0,0,367.46,70a22.43,22.43,0,0,0-.46,5.86v45.78h-.75L347.63,77.91v33.46q0,5,.57,6.27a2.61,2.61,0,0,0,2.47,1.68h1v1.47h-9.94v-1.47h1a2.69,2.69,0,0,0,2.6-2.09,22.44,22.44,0,0,0,.46-5.86V73.59a24.33,24.33,0,0,0-1.86-3.65,6.67,6.67,0,0,0-1.86-1.65,3.77,3.77,0,0,0-1.83-.36V66.46Zm51-1.23V84h-.77a40.23,40.23,0,0,0-1.34-8.6,12.45,12.45,0,0,0-2.77-5.08,5.17,5.17,0,0,0-3.71-1.88q-2.18,0-3.59,2.54a11.7,11.7,0,0,0-1.42,5.79,11.21,11.21,0,0,0,.9,4.53c.87,2,2.92,4.67,6.16,8a51.4,51.4,0,0,1,5.42,6.27,17.09,17.09,0,0,1,2.23,5.15,24.36,24.36,0,0,1,.78,6.21,21.51,21.51,0,0,1-2.49,10.63q-2.5,4.47-6.41,4.47a7.15,7.15,0,0,1-2.32-.37,16.27,16.27,0,0,1-2.68-1.47,7.68,7.68,0,0,0-2.57-1.27.92.92,0,0,0-.82.6,8.26,8.26,0,0,0-.45,2.51h-.77v-18.6h.77a44.92,44.92,0,0,0,1.46,8.74,11.73,11.73,0,0,0,2.81,4.82,5.71,5.71,0,0,0,4.14,1.93,4.6,4.6,0,0,0,4.12-2.65,12.47,12.47,0,0,0,1.51-6.27,15.21,15.21,0,0,0-.57-4.06,13.11,13.11,0,0,0-1.78-3.82A57.94,57.94,0,0,0,382.57,97a51.78,51.78,0,0,1-5.18-6.2,18.2,18.2,0,0,1-2.33-5.12,22.5,22.5,0,0,1-.8-6.17,20.49,20.49,0,0,1,2.34-10.07c1.56-2.81,3.55-4.22,6-4.22a7.66,7.66,0,0,1,4.78,2.12,3.48,3.48,0,0,0,1.65,1,1,1,0,0,0,.89-.61,7.88,7.88,0,0,0,.55-2.5ZM420,66.46l.3,12.77h-.79a27.83,27.83,0,0,0-.63-4.81A7.84,7.84,0,0,0,417.21,71a3.76,3.76,0,0,0-2.82-1.11h-4v41.46q0,5,.56,6.27a2.57,2.57,0,0,0,2.43,1.68h1v1.47h-12v-1.47h1a2.68,2.68,0,0,0,2.57-2.09,22.44,22.44,0,0,0,.46-5.86V69.91H403a5.31,5.31,0,0,0-2.82.56,5.89,5.89,0,0,0-1.86,2.92,20.42,20.42,0,0,0-.92,5.85h-.79l.3-12.77Zm14.54,52.85v1.47H422.47v-1.47h1a2.68,2.68,0,0,0,2.55-2c.33-.86.5-2.91.5-6.16V76.05a34.19,34.19,0,0,0-.27-5.44,3.63,3.63,0,0,0-.86-1.72,2.65,2.65,0,0,0-1.92-1h-1V66.46h12.12v1.47h-1a2.66,2.66,0,0,0-2.52,2c-.35.86-.52,2.91-.52,6.16V111.2a34.16,34.16,0,0,0,.27,5.44,3.47,3.47,0,0,0,.87,1.72,2.57,2.57,0,0,0,1.89,1Zm25.73-52.85.3,12.77h-.79a27.85,27.85,0,0,0-.63-4.81A7.84,7.84,0,0,0,457.47,71a3.76,3.76,0,0,0-2.82-1.11h-4v41.46q0,5,.56,6.27a2.57,2.57,0,0,0,2.43,1.68h1v1.47h-12v-1.47h1a2.68,2.68,0,0,0,2.57-2.09,22.44,22.44,0,0,0,.46-5.86V69.91h-3.39a5.31,5.31,0,0,0-2.82.56,5.89,5.89,0,0,0-1.86,2.92,20.41,20.41,0,0,0-.92,5.85h-.79l.3-12.77Zm21.75,1.47V66.46H492v1.47h-1.06c-1.11,0-2,.89-2.56,2.68a22.66,22.66,0,0,0-.43,5.76v22a73.09,73.09,0,0,1-.84,12.67,17.92,17.92,0,0,1-3.31,7.73,8,8,0,0,1-6.71,3.22,8.32,8.32,0,0,1-7-3.09,19.16,19.16,0,0,1-3.39-8.29A86.39,86.39,0,0,1,466,97.27V76.05q0-5-.72-6.56A2.4,2.4,0,0,0,463,67.94h-1.06V66.46h12.2v1.47H473c-1.17,0-2,.71-2.5,2.12a21.58,21.58,0,0,0-.52,6V99.72q0,3.15.3,7.25a26.53,26.53,0,0,0,1.09,6.36,9.94,9.94,0,0,0,2.28,3.77,5,5,0,0,0,3.65,1.47,6.68,6.68,0,0,0,5-2.32,12.37,12.37,0,0,0,3-5.94,64.65,64.65,0,0,0,.8-12.28v-22q0-5.08-.58-6.35a2.59,2.59,0,0,0-2.41-1.76Zm35.12-1.47.3,12.77h-.79a27.81,27.81,0,0,0-.63-4.81A7.83,7.83,0,0,0,514.34,71a3.76,3.76,0,0,0-2.82-1.11h-4v41.46q0,5,.56,6.27a2.57,2.57,0,0,0,2.43,1.68h1v1.47h-12v-1.47h1a2.68,2.68,0,0,0,2.57-2.09,22.45,22.45,0,0,0,.46-5.86V69.91h-3.39a5.31,5.31,0,0,0-2.82.56,5.89,5.89,0,0,0-1.86,2.92,20.42,20.42,0,0,0-.92,5.85h-.79l.3-12.77Zm16.18-1.23q5.49,0,9.52,8t4,20q0,12.37-4.06,20.54T533,122q-5.82,0-9.79-8t-4-20.62q0-12.93,4.58-21.1,4-7.09,9.51-7.09ZM533,68.1q-3.78,0-6.07,5.41Q524,80.25,524,93.23q0,13.3,3,20.47,2.27,5.45,6,5.45,4,0,6.56-6t2.59-18.83q0-14-2.85-20.8Q537,68.1,533,68.1Zm37.68,52.69v-1.47h1.06c1.19,0,2-.74,2.54-2.2a23.07,23.07,0,0,0,.46-5.91V76.05q0-5.08-.58-6.35a2.59,2.59,0,0,0-2.41-1.76h-1.06V66.46h11.5q6.34,0,9.63,2.76t5.31,9.22a50,50,0,0,1,2,14.9q0,11.35-3.58,19-4,8.5-12.25,8.49Zm8.06-4a11.76,11.76,0,0,0,4.43,1.12q4.82,0,8-6.53t3.18-17.69q0-11.25-3.18-17.73T583,69.5a9.9,9.9,0,0,0-4.26,1.16V116.8Zm30.94-47.39V90.88h6.23q2.42,0,3.23-1.39c.73-1.23,1.12-3.39,1.21-6.47h.77v18.93h-.77a37.86,37.86,0,0,0-.58-5.11,4.55,4.55,0,0,0-1.23-2.2,3.73,3.73,0,0,0-2.62-.81h-6.23v17.92a32.6,32.6,0,0,0,.16,4.38,2.64,2.64,0,0,0,.58,1.24,2.09,2.09,0,0,0,1.59.46h4.79a7.18,7.18,0,0,0,3.48-.64,6.21,6.21,0,0,0,2.08-2.53,39.59,39.59,0,0,0,2.65-7.48h.85l-2.44,13.6H601.57v-1.47h1a2.65,2.65,0,0,0,1.9-.93,3.42,3.42,0,0,0,.91-1.93,35.19,35.19,0,0,0,.24-5.26V75.89q0-5.16-.54-6.35a2.58,2.58,0,0,0-2.51-1.6h-1V66.46h21.8l.3,12h-.81a32.63,32.63,0,0,0-1-5.94,3.79,3.79,0,0,0-4.51-3.07Z" transform="translate(-3 -65.23)"/><path class="cls-2" d="M339.49,211.54V213H330v-1.47h.79c.92,0,1.58-.66,2-2a28.3,28.3,0,0,0,.39-6.16V168.27a43.46,43.46,0,0,0-.21-5.44,4.08,4.08,0,0,0-.67-1.72,2,2,0,0,0-1.51-1H330v-1.47h9.5v1.47h-.8c-.9,0-1.56.66-2,2a27.17,27.17,0,0,0-.41,6.16v35.15a43.48,43.48,0,0,0,.21,5.44,3.88,3.88,0,0,0,.69,1.72,1.9,1.9,0,0,0,1.48,1Zm.36-52.85h6l13.59,40.79V168.11a24.59,24.59,0,0,0-.46-6.27q-.61-1.68-1.94-1.68h-.78v-1.47H364v1.47h-.79c-1,0-1.62.7-2,2.09a28.42,28.42,0,0,0-.36,5.86v45.78h-.59l-14.6-43.76v33.46a25.47,25.47,0,0,0,.45,6.27q.63,1.68,1.94,1.68h.79V213H341v-1.47h.78c1,0,1.63-.7,2-2.09a28.41,28.41,0,0,0,.36-5.86V165.81a27.24,27.24,0,0,0-1.46-3.65,5.93,5.93,0,0,0-1.46-1.65,2.44,2.44,0,0,0-1.44-.36v-1.47Zm48.35,0v1.47a3.55,3.55,0,0,0-1.78,1.86,27,27,0,0,0-1.53,6l-7.7,46.17h-.6l-8.29-46.79q-.64-3.63-.9-4.42a5.91,5.91,0,0,0-1-2,2.75,2.75,0,0,0-1.61-.9v-1.47h9v1.47a2.78,2.78,0,0,0-2,1.28,5.34,5.34,0,0,0-.46,2.36,40,40,0,0,0,.75,6.24l5.64,31.81L383,170.44a46.93,46.93,0,0,0,.77-6.45,5.39,5.39,0,0,0-.47-2.21,2.78,2.78,0,0,0-1.6-1.5l-.28-.12v-1.47Zm7.42,2.95V183.1h4.89a2.5,2.5,0,0,0,2.53-1.39q.85-1.84.95-6.47h.6v18.93H404a47.86,47.86,0,0,0-.46-5.11,5,5,0,0,0-1-2.2,2.54,2.54,0,0,0-2.06-.81h-4.89V204a41.43,41.43,0,0,0,.13,4.38,3,3,0,0,0,.46,1.24,1.42,1.42,0,0,0,1.24.46h3.75a4.61,4.61,0,0,0,2.73-.64,6.08,6.08,0,0,0,1.63-2.53,47.16,47.16,0,0,0,2.07-7.48h.67L406.38,213H389.29v-1.47h.79a1.94,1.94,0,0,0,1.49-.93,3.85,3.85,0,0,0,.71-1.93,44.78,44.78,0,0,0,.19-5.26V168.11a26.63,26.63,0,0,0-.42-6.35,2.06,2.06,0,0,0-2-1.6h-.79v-1.47h17.1l.23,12H406a40.9,40.9,0,0,0-.76-5.94,5.57,5.57,0,0,0-1.23-2.47,3.44,3.44,0,0,0-2.3-.6Zm28.8-4.18v18.76h-.6a50.47,50.47,0,0,0-1.05-8.6,13.73,13.73,0,0,0-2.17-5.08,3.82,3.82,0,0,0-2.91-1.88q-1.71,0-2.82,2.54a14.33,14.33,0,0,0-1.12,5.79,13.92,13.92,0,0,0,.7,4.53,31.5,31.5,0,0,0,4.83,8,50.25,50.25,0,0,1,4.25,6.27,19.77,19.77,0,0,1,1.75,5.15,30.73,30.73,0,0,1,.61,6.21,26.42,26.42,0,0,1-2,10.63q-2,4.47-5,4.47a4.52,4.52,0,0,1-1.82-.37,12.21,12.21,0,0,1-2.1-1.47,5.56,5.56,0,0,0-2-1.27c-.27,0-.49.2-.65.6a10.29,10.29,0,0,0-.35,2.51h-.6v-18.6h.6a56.26,56.26,0,0,0,1.14,8.74,12.76,12.76,0,0,0,2.2,4.82,4.15,4.15,0,0,0,3.25,1.93c1.36,0,2.44-.89,3.23-2.65a15.28,15.28,0,0,0,1.19-6.27,19.16,19.16,0,0,0-.45-4.06,15,15,0,0,0-1.39-3.82,56.41,56.41,0,0,0-3.49-5.09,51.18,51.18,0,0,1-4.06-6.2,20.92,20.92,0,0,1-1.83-5.12,28.35,28.35,0,0,1-.62-6.17A25.18,25.18,0,0,1,413,161.68c1.22-2.81,2.78-4.22,4.67-4.22,1.18,0,2.43.71,3.75,2.12.61.67,1,1,1.29,1s.52-.2.7-.61a9.72,9.72,0,0,0,.44-2.5ZM447,158.69l.23,12.77h-.62a35,35,0,0,0-.49-4.81,8.77,8.77,0,0,0-1.35-3.41,2.65,2.65,0,0,0-2.21-1.11h-3.12v41.46a25.59,25.59,0,0,0,.44,6.27q.62,1.68,1.91,1.68h.76V213h-9.44v-1.47h.8c.95,0,1.62-.7,2-2.09a28.44,28.44,0,0,0,.36-5.86V162.13h-2.66a3.43,3.43,0,0,0-2.21.56,6.21,6.21,0,0,0-1.46,2.92,25.6,25.6,0,0,0-.72,5.85h-.62l.23-12.77Zm11.4,52.85V213h-9.5v-1.47h.79c.92,0,1.58-.66,2-2a28.29,28.29,0,0,0,.39-6.16V168.27a43.46,43.46,0,0,0-.21-5.44,4.07,4.07,0,0,0-.67-1.72,2,2,0,0,0-1.51-1h-.79v-1.47h9.5v1.47h-.8c-.9,0-1.56.66-2,2a27.16,27.16,0,0,0-.41,6.16v35.15a43.48,43.48,0,0,0,.21,5.44,3.88,3.88,0,0,0,.69,1.72,1.9,1.9,0,0,0,1.48,1Zm21.31-54.08.57,17.13h-.6a39.8,39.8,0,0,0-2.23-9.6q-2-4.65-5.07-4.66-4.22,0-6.42,8.21A64.67,64.67,0,0,0,464.16,185a75.34,75.34,0,0,0,1.23,14.16q1.22,6.39,3.21,9.38c1.32,2,2.68,3,4.08,3a4.25,4.25,0,0,0,2.37-.76,8.74,8.74,0,0,0,2.2-2.25V192.77a34.8,34.8,0,0,0-.25-5.35,4.51,4.51,0,0,0-.79-1.93,2.26,2.26,0,0,0-1.87-.67v-1.47h8.57v1.47h-.41q-1.27,0-1.75,2.09a33.31,33.31,0,0,0-.32,5.86v16.65a14.85,14.85,0,0,1-3.7,3.66,7.4,7.4,0,0,1-4.07,1.16q-6.42,0-9.74-10.09a55.62,55.62,0,0,1-2.5-17.45A65.46,65.46,0,0,1,461.82,173q1.66-7.8,4.57-12,2.43-3.48,5.75-3.48a5,5,0,0,1,2.19.48,14.32,14.32,0,0,1,2.8,2.12c.61.56,1,.85,1.23.85s.38-.23.53-.7a12.07,12.07,0,0,0,.27-2.74Zm19,37.45h-8.59l-1.48,8.51a30.47,30.47,0,0,0-.56,4.72,4.73,4.73,0,0,0,.49,2.19,2.7,2.7,0,0,0,2.08,1.22V213h-7v-1.47a3.15,3.15,0,0,0,1.8-1.56,41.18,41.18,0,0,0,1.85-7.81l7.8-44.71h.55l7.71,45.19a34.32,34.32,0,0,0,1.69,7.07,2.83,2.83,0,0,0,2.12,1.82V213h-8.74v-1.47a2.13,2.13,0,0,0,1.79-1.08,4.94,4.94,0,0,0,.46-2.25,37.09,37.09,0,0,0-.65-5.57l-1.31-7.73Zm-.5-2.95L494.49,170,490.66,192Zm29.48-34.5.5,18.44h-.5c-.67-5.52-1.63-9.51-2.88-11.92s-2.74-3.65-4.49-3.65q-2.19,0-4,2.75c-1.18,1.83-2.11,4.74-2.79,8.75a92.12,92.12,0,0,0-1,14.94,74,74,0,0,0,1,12.78,22.1,22.1,0,0,0,2.89,8.29c1.29,1.93,2.75,2.88,4.4,2.88a4.68,4.68,0,0,0,3.79-2.25q1.65-2.25,3.61-9l.51.82q-1.66,7.23-3.88,10.58t-5.26,3.35q-5.5,0-8.51-10a61,61,0,0,1-2.25-17.54,70.32,70.32,0,0,1,1.48-14.94,29.78,29.78,0,0,1,4.08-10.56q2.6-3.75,5.68-3.74c1.59,0,3.17,1,4.72,2.88.45.59.78.89,1,.89s.55-.26.76-.76a11.28,11.28,0,0,0,.6-3Zm12.51,54.08V213h-9.5v-1.47h.79c.92,0,1.58-.66,2-2a28.31,28.31,0,0,0,.39-6.16V168.27a43.46,43.46,0,0,0-.21-5.44,4.08,4.08,0,0,0-.67-1.72,2,2,0,0,0-1.51-1h-.79v-1.47h9.5v1.47h-.8c-.9,0-1.56.66-2,2a27.17,27.17,0,0,0-.41,6.16v35.15a43.46,43.46,0,0,0,.21,5.44,3.88,3.88,0,0,0,.69,1.72,1.9,1.9,0,0,0,1.48,1Zm13-54.08q4.31,0,7.47,8t3.16,20q0,12.37-3.18,20.54T553,214.24q-4.57,0-7.68-8t-3.11-20.62q0-12.93,3.59-21.1,3.12-7.09,7.46-7.09Zm-.31,2.87q-3,0-4.76,5.41-2.23,6.74-2.24,19.72,0,13.3,2.31,20.47,1.78,5.45,4.7,5.45,3.12,0,5.15-6t2-18.83q0-14-2.24-20.8-1.79-5.45-5-5.45Zm11.8-1.64h6l13.59,40.79V168.11a24.57,24.57,0,0,0-.46-6.27q-.61-1.68-1.94-1.68h-.78v-1.47h7.8v1.47h-.79c-1,0-1.62.7-2,2.09a28.43,28.43,0,0,0-.36,5.86v45.78h-.59l-14.6-43.76v33.46a25.48,25.48,0,0,0,.45,6.27q.63,1.68,1.94,1.68h.79V213h-7.8v-1.47h.78c1,0,1.63-.7,2-2.09a28.4,28.4,0,0,0,.36-5.86V165.81a27.29,27.29,0,0,0-1.46-3.65,5.92,5.92,0,0,0-1.46-1.65,2.43,2.43,0,0,0-1.44-.36v-1.47Zm31.6,2.95V183.1h4.88a2.5,2.5,0,0,0,2.53-1.39q.85-1.84.95-6.47h.6v18.93h-.6a47.81,47.81,0,0,0-.46-5.11,5,5,0,0,0-1-2.2,2.54,2.54,0,0,0-2.06-.81h-4.88V204a41.53,41.53,0,0,0,.13,4.38,3,3,0,0,0,.46,1.24,1.42,1.42,0,0,0,1.24.46h3.75a4.61,4.61,0,0,0,2.73-.64,6.08,6.08,0,0,0,1.63-2.53,47.14,47.14,0,0,0,2.07-7.48H609L607.11,213H590v-1.47h.79a1.94,1.94,0,0,0,1.49-.93,3.85,3.85,0,0,0,.71-1.93,44.85,44.85,0,0,0,.19-5.26V168.11a26.64,26.64,0,0,0-.42-6.35,2.06,2.06,0,0,0-2-1.6H590v-1.47h17.1l.23,12h-.64a40.94,40.94,0,0,0-.76-5.94,5.57,5.57,0,0,0-1.23-2.47,3.44,3.44,0,0,0-2.3-.6Zm28.8-4.18v18.76h-.6a50.53,50.53,0,0,0-1.05-8.6,13.73,13.73,0,0,0-2.17-5.08,3.82,3.82,0,0,0-2.91-1.88q-1.71,0-2.82,2.54a14.33,14.33,0,0,0-1.12,5.79,13.92,13.92,0,0,0,.7,4.53,31.5,31.5,0,0,0,4.83,8,50.25,50.25,0,0,1,4.25,6.27,19.77,19.77,0,0,1,1.75,5.15,30.73,30.73,0,0,1,.61,6.21,26.42,26.42,0,0,1-2,10.63q-2,4.47-5,4.47a4.52,4.52,0,0,1-1.82-.37,12.24,12.24,0,0,1-2.1-1.47,5.55,5.55,0,0,0-2-1.27c-.27,0-.49.2-.65.6a10.3,10.3,0,0,0-.35,2.51h-.6v-18.6h.6a56.27,56.27,0,0,0,1.14,8.74,12.76,12.76,0,0,0,2.2,4.82,4.14,4.14,0,0,0,3.25,1.93c1.36,0,2.44-.89,3.23-2.65a15.28,15.28,0,0,0,1.19-6.27,19.13,19.13,0,0,0-.45-4.06,15,15,0,0,0-1.39-3.82,56.44,56.44,0,0,0-3.49-5.09,51.14,51.14,0,0,1-4.06-6.2,20.91,20.91,0,0,1-1.83-5.12,28.35,28.35,0,0,1-.62-6.17,25.18,25.18,0,0,1,1.83-10.07c1.22-2.81,2.78-4.22,4.67-4.22,1.18,0,2.43.71,3.75,2.12.61.67,1,1,1.29,1s.52-.2.7-.61a9.75,9.75,0,0,0,.43-2.5Z" transform="translate(-3 -65.23)"/><path class="cls-2" d="M348.82,365.79a8.1,8.1,0,0,1,4.05,3.85,19.87,19.87,0,0,1,1.86,9,24.55,24.55,0,0,1-1.23,7.77,11.18,11.18,0,0,1-3.37,5.41q-2.13,1.7-6.53,1.71H331.33v-1.47h1c1.08,0,1.86-.72,2.33-2.16a24.77,24.77,0,0,0,.44-6V348.8q0-5-.55-6.35a2.4,2.4,0,0,0-2.22-1.76h-1v-1.47h11.24a11.2,11.2,0,0,1,5,1,9.43,9.43,0,0,1,4.39,5.11,21.89,21.89,0,0,1,1.51,8.43,21.05,21.05,0,0,1-1.19,7.31,9.49,9.49,0,0,1-3.51,4.78Zm-10.06-2.23a7.42,7.42,0,0,0,1.62.42,13,13,0,0,0,2,.14,6.19,6.19,0,0,0,4.22-1.26,8,8,0,0,0,2.16-3.85,20.52,20.52,0,0,0,.74-5.65,16.47,16.47,0,0,0-1.86-8.1,5.9,5.9,0,0,0-5.42-3.35,6.81,6.81,0,0,0-3.46.87v20.77Zm0,26a10,10,0,0,0,4.41,1.08,5.8,5.8,0,0,0,5.32-3.26,16.27,16.27,0,0,0,1.83-8.06,21.46,21.46,0,0,0-.85-6.08,9.62,9.62,0,0,0-2.71-4.6,6.63,6.63,0,0,0-4.61-1.68c-.79,0-1.47,0-2,.08a5.85,5.85,0,0,0-1.36.27v22.25Zm30.29,2.47v1.47H357.88v-1.47h.92c1.08,0,1.86-.66,2.35-2a24.16,24.16,0,0,0,.46-6.16V348.8a37,37,0,0,0-.25-5.44,3.75,3.75,0,0,0-.79-1.72,2.38,2.38,0,0,0-1.77-1h-.92v-1.47h11.17v1.47h-.94c-1.06,0-1.84.66-2.32,2a23.22,23.22,0,0,0-.48,6.16v35.15a37,37,0,0,0,.25,5.44,3.58,3.58,0,0,0,.81,1.72,2.31,2.31,0,0,0,1.74,1ZM384.37,338q5.06,0,8.78,8t3.72,20q0,12.37-3.74,20.54t-9.06,8.17q-5.37,0-9-8t-3.66-20.62q0-12.93,4.22-21.1,3.67-7.09,8.77-7.09Zm-.37,2.87q-3.48,0-5.59,5.41Q375.78,353,375.78,366q0,13.3,2.72,20.47,2.09,5.45,5.52,5.45,3.67,0,6.05-6t2.39-18.83q0-14-2.63-20.8-2.1-5.45-5.83-5.45Zm30.49,52.69-10.07-45.71v36.29q0,5,.52,6.27a2.39,2.39,0,0,0,2.28,1.68h.93v1.47H399v-1.47h.94c1.11,0,1.9-.7,2.37-2.09a24.27,24.27,0,0,0,.43-5.86V348.63a24.92,24.92,0,0,0-.39-5.22,4.29,4.29,0,0,0-1-2,3.1,3.1,0,0,0-2.35-.78v-1.47h7.47l9.4,42.47,9.32-42.47h7.4v1.47h-.91c-1.13,0-1.93.7-2.4,2.09a24.27,24.27,0,0,0-.43,5.86v35.48q0,5,.54,6.27a2.39,2.39,0,0,0,2.28,1.68h.91v1.47H421.42v-1.47h.94c1.13,0,1.91-.7,2.37-2.09a24.27,24.27,0,0,0,.43-5.86V347.83l-10,45.71Zm27.11-51.38v21.47h5.74a3.06,3.06,0,0,0,3-1.39c.67-1.23,1-3.39,1.11-6.47h.71v18.93h-.71a40.87,40.87,0,0,0-.54-5.11,4.66,4.66,0,0,0-1.13-2.2,3.26,3.26,0,0,0-2.42-.81H441.6V384.5a35.33,35.33,0,0,0,.15,4.38,2.74,2.74,0,0,0,.54,1.24,1.83,1.83,0,0,0,1.46.46h4.41a6.18,6.18,0,0,0,3.21-.64,6.12,6.12,0,0,0,1.91-2.53,41.82,41.82,0,0,0,2.44-7.48h.79l-2.25,13.6h-20.1v-1.47h.92a2.37,2.37,0,0,0,1.75-.93,3.54,3.54,0,0,0,.84-1.93,38.21,38.21,0,0,0,.22-5.26V348.63q0-5.16-.5-6.35a2.38,2.38,0,0,0-2.31-1.6h-.92v-1.47h20.1l.28,12h-.75a35.14,35.14,0,0,0-.89-5.94,5.32,5.32,0,0,0-1.45-2.47,4.57,4.57,0,0,0-2.71-.6ZM481.09,338l.59,18.44h-.59c-.79-5.52-1.92-9.51-3.39-11.92s-3.23-3.65-5.28-3.65c-1.72,0-3.28.91-4.67,2.74s-2.48,4.74-3.28,8.75a78.59,78.59,0,0,0-1.19,14.94,63.2,63.2,0,0,0,1.13,12.78,20.08,20.08,0,0,0,3.4,8.29,6.52,6.52,0,0,0,5.17,2.88,5.74,5.74,0,0,0,4.46-2.25q1.94-2.25,4.25-9l.6.82q-2,7.23-4.56,10.58a7.69,7.69,0,0,1-6.19,3.35q-6.46,0-10-10a52.46,52.46,0,0,1-2.65-17.54,60.23,60.23,0,0,1,1.74-14.94,27.36,27.36,0,0,1,4.79-10.56q3.06-3.75,6.67-3.74,2.81,0,5.55,2.88c.53.59.92.89,1.15.89s.64-.26.9-.76a9.84,9.84,0,0,0,.71-3Zm20.58,37.45h-10.1l-1.74,8.51a26.11,26.11,0,0,0-.66,4.73,4.16,4.16,0,0,0,.57,2.19,3.29,3.29,0,0,0,2.45,1.22v1.47H484v-1.47a3.58,3.58,0,0,0,2.11-1.56,36.19,36.19,0,0,0,2.17-7.81L497.42,338h.65l9.07,45.19a30.17,30.17,0,0,0,2,7.07,3.24,3.24,0,0,0,2.49,1.82v1.47H501.33v-1.47a2.58,2.58,0,0,0,2.1-1.08,4.32,4.32,0,0,0,.54-2.25,31.79,31.79,0,0,0-.77-5.57l-1.54-7.73Zm-.59-2.95-4.39-21.92-4.51,21.92Zm1.57-52.36L497,333.88h-.65l2-13.77Zm8.88,19.09v1.47a3.26,3.26,0,0,1,1.69.36,6.35,6.35,0,0,1,1.72,1.65,25.1,25.1,0,0,1,1.72,3.65v37.77a24.28,24.28,0,0,1-.43,5.86c-.47,1.39-1.27,2.09-2.39,2.09h-.92v1.47h9.17v-1.47h-.93a2.41,2.41,0,0,1-2.28-1.68q-.52-1.25-.52-6.27V350.65l17.16,43.76h.69V348.63a24.27,24.27,0,0,1,.43-5.86c.47-1.39,1.26-2.09,2.38-2.09h.93v-1.47h-9.17v1.47h.92a2.39,2.39,0,0,1,2.27,1.68q.54,1.25.54,6.27V380l-16-40.79Zm41.09,52.85v1.47H541.45v-1.47h.92c1.08,0,1.86-.66,2.35-2a24.17,24.17,0,0,0,.46-6.16V348.8a37,37,0,0,0-.25-5.44,3.75,3.75,0,0,0-.79-1.72,2.38,2.38,0,0,0-1.77-1h-.92v-1.47h11.17v1.47h-.94c-1.06,0-1.84.66-2.32,2a23.2,23.2,0,0,0-.48,6.16v35.15a37.05,37.05,0,0,0,.25,5.44,3.58,3.58,0,0,0,.81,1.72,2.31,2.31,0,0,0,1.74,1ZM577.25,338l.59,18.44h-.59c-.79-5.52-1.92-9.51-3.39-11.92s-3.23-3.65-5.28-3.65c-1.72,0-3.28.91-4.67,2.74s-2.48,4.74-3.28,8.75a78.62,78.62,0,0,0-1.19,14.94,63.2,63.2,0,0,0,1.13,12.78,20.08,20.08,0,0,0,3.4,8.29,6.52,6.52,0,0,0,5.17,2.88,5.74,5.74,0,0,0,4.46-2.25q1.94-2.25,4.25-9l.6.82q-2,7.23-4.56,10.58a7.69,7.69,0,0,1-6.19,3.35q-6.46,0-10-10A52.47,52.47,0,0,1,555,367.22a60.21,60.21,0,0,1,1.74-14.94,27.36,27.36,0,0,1,4.79-10.56q3.06-3.75,6.67-3.74,2.81,0,5.55,2.88c.53.59.92.89,1.15.89s.64-.26.9-.76a9.84,9.84,0,0,0,.71-3Zm20.58,37.45h-10.1L586,383.94a26.09,26.09,0,0,0-.66,4.73,4.16,4.16,0,0,0,.57,2.19,3.29,3.29,0,0,0,2.45,1.22v1.47h-8.22v-1.47a3.57,3.57,0,0,0,2.11-1.56,36.18,36.18,0,0,0,2.17-7.81L593.57,338h.65l9.07,45.19a30.16,30.16,0,0,0,2,7.07,3.24,3.24,0,0,0,2.49,1.82v1.47H597.49v-1.47a2.58,2.58,0,0,0,2.1-1.08,4.32,4.32,0,0,0,.54-2.25,31.78,31.78,0,0,0-.77-5.57l-1.54-7.73Zm-.59-2.95-4.39-21.92-4.51,21.92Zm29-34.5v18.76h-.71a43.34,43.34,0,0,0-1.24-8.6,12.78,12.78,0,0,0-2.56-5.08,4.64,4.64,0,0,0-3.42-1.88q-2,0-3.31,2.54a12.49,12.49,0,0,0-1.31,5.79,12,12,0,0,0,.83,4.53c.8,2,2.69,4.67,5.68,8a50.56,50.56,0,0,1,5,6.27,17.85,17.85,0,0,1,2.06,5.15,26.3,26.3,0,0,1,.72,6.21,23,23,0,0,1-2.29,10.63q-2.3,4.47-5.91,4.47a6.13,6.13,0,0,1-2.14-.37,14.7,14.7,0,0,1-2.47-1.47,6.85,6.85,0,0,0-2.37-1.27.86.86,0,0,0-.76.6,8.87,8.87,0,0,0-.41,2.51h-.71v-18.6h.71a48.39,48.39,0,0,0,1.34,8.74,12,12,0,0,0,2.59,4.82,5.1,5.1,0,0,0,3.82,1.93,4.23,4.23,0,0,0,3.8-2.65,13.32,13.32,0,0,0,1.4-6.27,16.41,16.41,0,0,0-.52-4.06,13.63,13.63,0,0,0-1.64-3.82,56.91,56.91,0,0,0-4.1-5.09,51.14,51.14,0,0,1-4.77-6.2,19,19,0,0,1-2.15-5.12,24.28,24.28,0,0,1-.73-6.17,21.91,21.91,0,0,1,2.16-10.07c1.44-2.81,3.27-4.22,5.49-4.22a6.81,6.81,0,0,1,4.41,2.12c.72.67,1.23,1,1.52,1a.94.94,0,0,0,.82-.61,8.43,8.43,0,0,0,.51-2.5Z" transform="translate(-3 -65.23)"/><path class="cls-2" d="M425.85,245.53V264.3h-.63a48.45,48.45,0,0,0-1.1-8.6,13.44,13.44,0,0,0-2.27-5.08,4,4,0,0,0-3-1.88q-1.78,0-2.94,2.54a13.8,13.8,0,0,0-1.16,5.79,13.38,13.38,0,0,0,.73,4.53,31.23,31.23,0,0,0,5,8,50.13,50.13,0,0,1,4.44,6.27,19.21,19.21,0,0,1,1.83,5.15,29.46,29.46,0,0,1,.64,6.21,25.44,25.44,0,0,1-2,10.63q-2,4.47-5.25,4.47a4.9,4.9,0,0,1-1.9-.37,12.81,12.81,0,0,1-2.2-1.47,5.86,5.86,0,0,0-2.11-1.27c-.29,0-.51.2-.68.6a9.89,9.89,0,0,0-.37,2.51h-.63v-18.6h.63a54,54,0,0,0,1.19,8.74,12.52,12.52,0,0,0,2.3,4.82,4.37,4.37,0,0,0,3.39,1.93c1.42,0,2.55-.89,3.37-2.65a14.72,14.72,0,0,0,1.24-6.27,18.36,18.36,0,0,0-.47-4.06,14.59,14.59,0,0,0-1.46-3.82,56.37,56.37,0,0,0-3.65-5.09,51,51,0,0,1-4.24-6.2,20.33,20.33,0,0,1-1.91-5.12,27.19,27.19,0,0,1-.65-6.17,24.25,24.25,0,0,1,1.92-10.07c1.28-2.81,2.91-4.22,4.87-4.22,1.23,0,2.54.71,3.92,2.12.64.67,1.09,1,1.35,1s.54-.2.73-.61a9.36,9.36,0,0,0,.45-2.5Zm16.16,0q4.5,0,7.8,8t3.3,20q0,12.37-3.33,20.54t-8,8.17q-4.77,0-8-8t-3.25-20.62q0-12.93,3.75-21.1,3.26-7.09,7.79-7.09Zm-.33,2.87q-3.09,0-5,5.41-2.33,6.74-2.34,19.72,0,13.3,2.42,20.47,1.86,5.45,4.9,5.45,3.26,0,5.38-6t2.12-18.83q0-14-2.34-20.8-1.87-5.45-5.18-5.45Zm32.85,37.69.56.29-2,14.71H455.18v-1.47H456c1,0,1.68-.74,2.1-2.23a28.75,28.75,0,0,0,.36-5.89V256.35q0-5.08-.48-6.35-.66-1.76-2-1.76h-.87v-1.47h10.48v1.47a3.25,3.25,0,0,0-2.59.79,4.48,4.48,0,0,0-1,2.09,39.29,39.29,0,0,0-.27,6v34.25a25.29,25.29,0,0,0,.27,4.58,2.47,2.47,0,0,0,.63,1.26,5.08,5.08,0,0,0,2.67.4H467a5.82,5.82,0,0,0,3.74-.92,8.13,8.13,0,0,0,2-3.26,44.74,44.74,0,0,0,1.78-7.37Zm18-37.86v-1.47h8.14v1.47h-.87c-.91,0-1.61.89-2.1,2.68a27.57,27.57,0,0,0-.36,5.76v22a89,89,0,0,1-.69,12.67,20.14,20.14,0,0,1-2.71,7.73,6.21,6.21,0,0,1-5.49,3.22,6.37,6.37,0,0,1-5.74-3.09,21.62,21.62,0,0,1-2.78-8.29,105.25,105.25,0,0,1-.55-13.37V256.35q0-5-.59-6.56a2,2,0,0,0-1.9-1.56H476v-1.47h10v1.47h-.89c-1,0-1.64.71-2,2.12a26.18,26.18,0,0,0-.42,6V280q0,3.15.24,7.25a31.87,31.87,0,0,0,.9,6.36,10.52,10.52,0,0,0,1.87,3.77,3.75,3.75,0,0,0,3,1.47,5.13,5.13,0,0,0,4.07-2.32,13.53,13.53,0,0,0,2.45-5.94,78.64,78.64,0,0,0,.66-12.28v-22q0-5.08-.48-6.35-.66-1.76-2-1.76Zm29.57-2.7.52,18.44h-.52c-.7-5.52-1.71-9.51-3-11.92s-2.87-3.65-4.69-3.65c-1.53,0-2.91.92-4.15,2.75s-2.21,4.74-2.92,8.75a88.27,88.27,0,0,0-1.06,14.94,70.93,70.93,0,0,0,1,12.78,21.5,21.5,0,0,0,3,8.29c1.35,1.93,2.88,2.88,4.6,2.88a4.93,4.93,0,0,0,4-2.25q1.72-2.25,3.77-9l.53.82q-1.74,7.23-4.05,10.58t-5.5,3.35q-5.74,0-8.89-10a58.54,58.54,0,0,1-2.35-17.54,67.44,67.44,0,0,1,1.55-14.94,29,29,0,0,1,4.26-10.56q2.72-3.75,5.93-3.74c1.67,0,3.31,1,4.93,2.88.47.59.82.89,1,.89s.57-.26.8-.76a10.87,10.87,0,0,0,.63-3Zm13.07,54.08v1.47h-9.92v-1.47h.82c1,0,1.65-.66,2.09-2a27.13,27.13,0,0,0,.41-6.16V256.35a41.65,41.65,0,0,0-.22-5.44,4,4,0,0,0-.7-1.72,2.05,2.05,0,0,0-1.57-1h-.82v-1.47h9.92v1.47h-.83c-.94,0-1.63.66-2.06,2a26,26,0,0,0-.43,6.16V291.5a41.65,41.65,0,0,0,.22,5.44,3.79,3.79,0,0,0,.72,1.72,2,2,0,0,0,1.55,1Zm13.6-54.08q4.5,0,7.8,8t3.3,20q0,12.37-3.33,20.54t-8,8.17q-4.77,0-8-8t-3.25-20.62q0-12.93,3.75-21.1,3.26-7.09,7.79-7.09Zm-.33,2.87q-3.09,0-5,5.41-2.33,6.74-2.34,19.72,0,13.3,2.42,20.47,1.86,5.45,4.9,5.45,3.26,0,5.38-6T556,274.65q0-14-2.34-20.8-1.87-5.45-5.18-5.45Zm12.33-1.64H567l14.19,40.79V256.18q0-5-.48-6.27c-.42-1.12-1.1-1.68-2-1.68h-.82v-1.47H586v1.47h-.83c-1,0-1.7.7-2.11,2.09a27.23,27.23,0,0,0-.38,5.86V302h-.62L566.83,258.2v33.46a24.45,24.45,0,0,0,.47,6.27q.66,1.68,2,1.68h.83v1.47H562v-1.47h.82c1,0,1.71-.7,2.13-2.09a27.25,27.25,0,0,0,.38-5.86V253.89a26.62,26.62,0,0,0-1.53-3.65,6,6,0,0,0-1.53-1.65,2.63,2.63,0,0,0-1.5-.36v-1.47Zm33,2.95v21.47h5.1a2.63,2.63,0,0,0,2.64-1.39q.89-1.84,1-6.47h.63v18.93h-.63a45.94,45.94,0,0,0-.48-5.11,4.88,4.88,0,0,0-1-2.2,2.71,2.71,0,0,0-2.15-.81h-5.1V292a39.74,39.74,0,0,0,.13,4.38,2.92,2.92,0,0,0,.48,1.24,1.52,1.52,0,0,0,1.3.46h3.92a5,5,0,0,0,2.85-.64,6.07,6.07,0,0,0,1.7-2.53,45.6,45.6,0,0,0,2.17-7.48h.7l-2,13.6H587.17v-1.47H588a2,2,0,0,0,1.56-.93,3.76,3.76,0,0,0,.75-1.93,43,43,0,0,0,.2-5.26V256.18q0-5.16-.44-6.35a2.13,2.13,0,0,0-2.06-1.6h-.82v-1.47H605l.24,12h-.66a39.22,39.22,0,0,0-.79-5.94,5.48,5.48,0,0,0-1.29-2.47,3.71,3.71,0,0,0-2.41-.6Zm30.08-4.18V264.3h-.63a48.45,48.45,0,0,0-1.1-8.6,13.44,13.44,0,0,0-2.27-5.08,4,4,0,0,0-3-1.88q-1.78,0-2.94,2.54a13.81,13.81,0,0,0-1.16,5.79,13.39,13.39,0,0,0,.73,4.53,31.25,31.25,0,0,0,5,8,50.16,50.16,0,0,1,4.44,6.27,19.21,19.21,0,0,1,1.83,5.15,29.48,29.48,0,0,1,.64,6.21,25.44,25.44,0,0,1-2,10.63q-2,4.47-5.25,4.47a4.9,4.9,0,0,1-1.9-.37,12.8,12.8,0,0,1-2.2-1.47,5.86,5.86,0,0,0-2.11-1.27c-.29,0-.51.2-.68.6a9.88,9.88,0,0,0-.37,2.51h-.63v-18.6h.63a54,54,0,0,0,1.19,8.74,12.52,12.52,0,0,0,2.3,4.82,4.37,4.37,0,0,0,3.39,1.93c1.42,0,2.55-.89,3.37-2.65a14.72,14.72,0,0,0,1.24-6.27,18.36,18.36,0,0,0-.47-4.06,14.59,14.59,0,0,0-1.46-3.82,56.41,56.41,0,0,0-3.65-5.09,51,51,0,0,1-4.24-6.2,20.34,20.34,0,0,1-1.91-5.12,27.18,27.18,0,0,1-.65-6.17,24.24,24.24,0,0,1,1.92-10.07c1.28-2.81,2.91-4.22,4.87-4.22,1.23,0,2.54.71,3.92,2.12.64.67,1.09,1,1.35,1s.54-.2.73-.61a9.34,9.34,0,0,0,.45-2.5Z" transform="translate(-3 -65.23)"/><path class="cls-2" d="M375.9,271c.25,9.41-4.71,17.89-6.8,25,1.58,7.6,7.54,5.21,10.51,11.42-10.25.76-9.59,1.17-14.53-4-11.93,12.87-35,8.73-36.4-9.84-.82-11.4,6.19-18,13.77-24.59-7.11-11.25-5.08-34.43,7.87-35.42,17.2-1.33,16.23,29.25,0,32.46,1-3,5.68-4.86,6.89-10.82,2.25-11-3.42-24.92-12.79-17.71-6,13.24,3.57,28,9.84,37.38,4.39,6.56,9.45,15,13.51,18.28C371.56,288,370.7,272,364.1,271c1.93-1.86,9.8-1.31,11.81,0Zm-12.79,29.51h0c-6.07-9.67-14-17.44-18.69-28.53h-3C327.25,287.72,349.15,322.13,363.11,300.55Z" transform="translate(-3 -65.23)"/><path class="cls-3" d="M168.54,373.06l1.68-1.6c2.81-2.12,12.32-7.25,14.88-8.06.09,2.52,1,6.36.3,8.45-3.45,1.31-12.83,1.64-16.86,1.21Zm70.21-19.73.49-7.2,11.62,4c-2.1,1.39-9,2.95-12.1,3.22Zm-43.23-8.39c-1-26.28-2.82-53.05,0-79.43.18-1.72.42-3.58.72-5.24.42-2.29.86-2.54,2.58-3.36,1.29,7.4,3.14,15.14,4.67,22.48.8,3.82,1.55,7.45,2.34,11.24,1,4.74,1.89,6.46,1.09,11.54-.31,1.95-6,39.93-6.59,40.7a16.33,16.33,0,0,1-4.82,2.06Zm33.23-14.23c-2.4.06-2.3-.85-3-2.86-2-5.65-2.15-9-3.33-14.65-.69-3.32-1.4-6.63-2.07-9.93-1.08-5.28-1-5.19-.16-10.54q1.67-10.56,3.32-21c1-6.05-.05-4.89,3.85-8.1a74.26,74.26,0,0,1,6.77-5.35l-5.36,72.48Zm-68.26-80.33a2,2,0,0,1-.62-.5c-1.68-1.61-1.57-1.95-1.3-3.31a23.46,23.46,0,0,1,1.5-4.38l.43,8.19Zm108.17-14.54c1.56,1.61,1.42,3.7.87,6.21-.35,1.6-1,4.3-2.29,5.44l1.42-11.65Zm-43.18-10.4c-.49,2-3.58,3.82-5.38,5a118.82,118.82,0,0,1-13,7.9,7.1,7.1,0,0,1-.82-2.74c-2.6-13.38-6.2-28.09-8.56-41.25l2.77-.89,5,27.74c9,2.05,14.28-2.45,21.73-4.68a76.8,76.8,0,0,1-1.76,8.87Zm-56.27-40.79c-.09-3.18-.14-3.52,1.42-5.54a58.6,58.6,0,0,1,6.3-6.95,31.83,31.83,0,0,0,3.27-3.27l4.11,18.6a38.45,38.45,0,0,1-4.07,2.49l-10.68,8.72-.34-14Zm81.11-16.76c2.44,1.28,8.81,8.64,10.56,11.87,1.63,3,1.06,6,.82,9.62-.22,3.31-.4,6.93-.88,10.21-.32-.42-1-1.16-1.51-1.86a14,14,0,0,0-1.58-1.89c-5-5.14-5.91-3.38-8.93-2a32.87,32.87,0,0,1-5,2.22l6.47-28.21Zm-40.71,11.21c-1.55-2.87-3.81-17.72-3.79-21.9,0-3.29.24-2.82,3.24-3.34,4.76-.82,13.35-1.57,17.78-1-.47,4-4.67,19.81-5.88,24.71l-11.35,1.48Zm37.92,55.71.14-2.43c-1.74.7-17.33,13.78-19.2,15.3l-14.12,11.44c-1.54,1.38-1,4.5-1.84,6.55l-3-15.08c2.84-2.55,19.91-10,25.46-17.89,2.68-3.79,4.25-18.14,5.44-21.36.54-1.47,9.18-5,10.51-5.45,2.45,3.23,4.59,7.11,6.87,10.76,1.66,2.66.92,3.73.52,7.19-.3,2.67-.56,5.3-.92,8-.89,9-2.13,17.91-3,26.88-.47,4.61-1.14,9.19,2.41,11.36,7.61,4.65,20.31-14.33,22.76-20.87a28,28,0,0,0,1.9-12.61c-.44-5-4.27-8.06-4.48-10.48-.9-.76-5.3-8.69-5.64-9.39-1.53-3.19,4.73-30.41,1.16-39.63-3.89-10-16-19.88-24.78-26.33a42,42,0,0,0-4.28-3c-.63.91-1,3.28-1.27,4.43-.38,1.57-.69,3-1.07,4.61L230.51,202.1c-.71,1.19-13.28,6.18-15.57,6.69-.35-2.94-3.43-16.71-2.9-18.21A94,94,0,0,1,229,189c3.59-6.85,5.45-17,7.37-25.29,1-4.42,2.11-8.87,3.07-13.36,1.36-6.35-6.42-8-7.3-8.75-3.06.26-9.15-1.06-19.32,0-15.18,1.6-20.37,4.3-18.08,22.68.76,6.12,2.66,11.8,3.37,17.48l-2.61,1c-1.53-3-5.73-30.54-7.29-33.29a53.25,53.25,0,0,0-11.05,6.71c-5.19,4.38-13.67,12.34-17.27,18.06-2.89,4.59-2.31,9.64-2.16,15.72.13,5.68.38,11.34.65,17,.47,10.07,1.39,8.6-1.94,14.91-3,5.68-9.52,18.77-9.68,26.1a9.33,9.33,0,0,0,2.21,6.75l12,14.79c1.22,1.5,2.73,3.35,5.45,3.47,8.57.37,6.24-12.28,5.86-20.2-.21-4.47-2.14-31.57-1.32-33.4,2.1-4.65,3.2-7.8,6.17-11.49,1.87-2.32,6.66-7.16,9.88-8.34l9.28,44.92c-1.39,1.17-3.14,2-4.71,3.1-5.93,4.18-6.43,6.94-7.42,15.33-1.09,9.22-1.44,19.22-1.62,28.6-.31,16.78-.07,28.09.87,44.48.23,4.08,1,10.71.75,14.51-2.78,2-7.89,4.06-11.05,5.75-6.3,3.36-15.66,8.33-18,15.47-1.81,5.62,1.73,9.32,5.23,11,6.64,3.21,22.29,2.13,29.4,0,11.68-3.58,6.52-11.09,6.64-25.21,1.57-.7,8.47-4,9.86-4.33s2.91.1,4.46-.28l3.48-22.18c1.15,1.62,1.77,4.19,2.87,6.07,1.32,2.25,2.72,3.26,3.87,4.92a22.78,22.78,0,0,1,6.78.83c.7,4.54-2.37,21-1.38,23.84,9.43,0,31.62-3.2,37.28-11.37a10.12,10.12,0,0,0,1.65-9.33c-1.39-4-2.71-3.62-7-5.26-2.92-1.11-5.77-2.18-8.78-3.21s-6.31-2.41-9.27-3.1Z" transform="translate(-3 -65.23)"/><path class="cls-3" d="M80.36,183.19l-.13,201.68c5.57.24,11.05.7,16.46,1.05,3,.2,14.44,1.31,16.58.87V180.65Z" transform="translate(-3 -65.23)"/><path class="cls-3" d="M41,185.39c-.23,2.85.5,8.66.66,11.88,3,60.81-.46,122.86-5.76,183.27l36.68,2.81,0-199.42Z" transform="translate(-3 -65.23)"/><path class="cls-3" d="M80.34,160.68c5.93,1,13.61-1.27,18.33-3.37a37.63,37.63,0,0,0,6.81-3.92,45.38,45.38,0,0,0,14.64-54.32c-2-4.76-5.58-10.35-8.64-13.13-.77-.7-1.74-1.94-2.66-2.7a41.31,41.31,0,0,0-10-6.44c-4.55-2.13-12.64-4.44-18.5-3.48Z" transform="translate(-3 -65.23)"/><path class="cls-3" d="M72.65,159.46V74.55c-3.71.34-10.09,3.82-12.66,5.6-25.52,17.67-24.93,56.56-.18,73.55C62.48,155.53,68.63,159.13,72.65,159.46Z" transform="translate(-3 -65.23)"/><path class="cls-3" d="M217.25,81.1c-14.64,3.92-21.88,30.42-13.6,46.43,8.78,17,29.15,5.54,31.12-19.85C235.76,95.07,229.93,77.71,217.25,81.1Z" transform="translate(-3 -65.23)"/></svg>