<svg id="Layer_1" data-name="Layer 1" xmlns="http://www.w3.org/2000/svg" viewBox="0 0 598.64 255.48"><defs><style>.cls-1,.cls-5{fill:#005070;}.cls-2,.cls-4{fill:gray;}.cls-3{fill:#fefefe;}.cls-4,.cls-5{fill-rule:evenodd;}</style></defs><title>logo-iisb</title><path class="cls-1" d="M514.62,137.07H571.2a7.18,7.18,0,0,0,5.27-2.24,7.45,7.45,0,0,0,2.24-5.48,7,7,0,0,0-2.24-5.21A7.33,7.33,0,0,0,571.2,122H514.62ZM569.4,97.76a7.64,7.64,0,0,0,4.91-2.42,7.07,7.07,0,0,0,1.88-4.94A7.54,7.54,0,0,0,573.95,85a7,7,0,0,0-5.27-2.33H514.62V97.76ZM602,90.4a31.48,31.48,0,0,1-5.56,18A31.19,31.19,0,0,1,602,141.56a32.3,32.3,0,0,1-16.87,16.87A30.12,30.12,0,0,1,573,160.95H493.26a6.13,6.13,0,0,1-6.1-6.1V64.91a6.13,6.13,0,0,1,6.1-6.1h77.19a30.12,30.12,0,0,1,12.21,2.51,32.3,32.3,0,0,1,16.87,16.87A30.13,30.13,0,0,1,602,90.4Z" transform="translate(-7.82 -6.67)"/><path class="cls-1" d="M394,82.68a7,7,0,0,0-5.3,2.36,7.68,7.68,0,0,0-2.24,5.44,7.33,7.33,0,0,0,2.24,5.36,7.16,7.16,0,0,0,5.3,2.27l44.52-.18q.36,0,.36.18A29.5,29.5,0,0,1,451,100.63a32.71,32.71,0,0,1,10,6.79,31.71,31.71,0,0,1,6.73,9.93,30.29,30.29,0,0,1,2.42,12.09,30,30,0,0,1-2.51,12.18,33.53,33.53,0,0,1-6.73,10,31.32,31.32,0,0,1-10,6.79,30.12,30.12,0,0,1-12.21,2.51h-77a1.22,1.22,0,0,1-.9-.36,2.76,2.76,0,0,1-.36-1.08,53.4,53.4,0,0,1,1.17-8.26,16.27,16.27,0,0,1,4.58-8.26,17.07,17.07,0,0,1,9.07-5,53.62,53.62,0,0,1,9.6-.9h51.88a7.24,7.24,0,0,0,5.3-2.24,7.45,7.45,0,0,0,2.24-5.48,7,7,0,0,0-2.24-5.21,7.39,7.39,0,0,0-5.3-2.15H391.83a29.5,29.5,0,0,1-12.12-2.51,32.8,32.8,0,0,1-10-6.82A31.34,31.34,0,0,1,360.6,90.4a30.13,30.13,0,0,1,2.51-12.21A32.3,32.3,0,0,1,380,61.31a30.12,30.12,0,0,1,12.21-2.51h77.37a1.06,1.06,0,0,1,.9.54q.36.18.36.9a53.31,53.31,0,0,1-1.17,8.26,16.27,16.27,0,0,1-4.58,8.26,17.4,17.4,0,0,1-9.42,4.94,60.13,60.13,0,0,1-10.68,1Z" transform="translate(-7.82 -6.67)"/><path class="cls-1" d="M337.62,58.8a2.76,2.76,0,0,1,1.08.36,1.22,1.22,0,0,1,.36.9v74a55.42,55.42,0,0,1-1.17,11.22,17.6,17.6,0,0,1-5.83,9.78,20.37,20.37,0,0,1-9.6,4.67,65.27,65.27,0,0,1-9.6,1.26,1.23,1.23,0,0,1-1.26-1.26v-74a55.38,55.38,0,0,1,1.17-11.22,17.59,17.59,0,0,1,5.83-9.78,22,22,0,0,1,9.51-4.58,57.46,57.46,0,0,1,9.51-1.35" transform="translate(-7.82 -6.67)"/><path class="cls-1" d="M288.79,58.8a2.76,2.76,0,0,1,1.08.36,1.22,1.22,0,0,1,.36.9v74a55.42,55.42,0,0,1-1.17,11.22,17.6,17.6,0,0,1-5.83,9.78,20.37,20.37,0,0,1-9.6,4.67,65.27,65.27,0,0,1-9.6,1.26,1.23,1.23,0,0,1-1.26-1.26v-74a55.38,55.38,0,0,1,1.17-11.22,17.59,17.59,0,0,1,5.83-9.78,22,22,0,0,1,9.51-4.58,57.45,57.45,0,0,1,9.51-1.35" transform="translate(-7.82 -6.67)"/><path class="cls-1" d="M415.87,189.68a.53.53,0,0,1-.15.27,1,1,0,0,1-.37.2,3.8,3.8,0,0,1-.64.11c-.26,0-.58,0-1,0s-.7,0-.95,0a2.92,2.92,0,0,1-.58-.11.56.56,0,0,1-.28-.2.31.31,0,0,1,0-.27l3.7-18.42a.43.43,0,0,1,.14-.27,1,1,0,0,1,.37-.2,3.69,3.69,0,0,1,.63-.11c.25,0,.57,0,.94,0s.7,0,.95,0a3,3,0,0,1,.59.11.5.5,0,0,1,.29.2.38.38,0,0,1,0,.27Zm-16-10.18a1.26,1.26,0,0,0-.47-1,2,2,0,0,0-1.35-.4,3.21,3.21,0,0,0-1.35.27,3.4,3.4,0,0,0-1,.73,4.57,4.57,0,0,0-.77,1.08,7.18,7.18,0,0,0-.51,1.34h1.25a10.42,10.42,0,0,0,2-.16,4.52,4.52,0,0,0,1.3-.43,1.87,1.87,0,0,0,.71-.64A1.5,1.5,0,0,0,399.82,179.5Zm3.73-.27a3.91,3.91,0,0,1-.49,1.95,4.13,4.13,0,0,1-1.51,1.49,8.33,8.33,0,0,1-2.61,1,18.61,18.61,0,0,1-3.77.33h-1.38c0,.23-.07.46-.09.68s0,.44,0,.63a2.47,2.47,0,0,0,.63,1.83,2.81,2.81,0,0,0,2,.62,9.91,9.91,0,0,0,1.78-.14,13.73,13.73,0,0,0,1.38-.32c.4-.12.72-.22,1-.32a1.86,1.86,0,0,1,.57-.14.29.29,0,0,1,.25.1.59.59,0,0,1,.08.33,4.24,4.24,0,0,1,0,.58,5.36,5.36,0,0,1-.13.65,3.33,3.33,0,0,1-.21.61,1.24,1.24,0,0,1-.29.44,1.89,1.89,0,0,1-.66.36,8.41,8.41,0,0,1-1.15.33c-.45.1-1,.18-1.52.25a14.61,14.61,0,0,1-1.71.1,9.41,9.41,0,0,1-2.52-.3,4.66,4.66,0,0,1-1.8-.91,3.77,3.77,0,0,1-1.08-1.57,6.39,6.39,0,0,1-.36-2.26,13.07,13.07,0,0,1,.19-2.16,11.85,11.85,0,0,1,.61-2.27,11.2,11.2,0,0,1,1.08-2.15,7.94,7.94,0,0,1,1.6-1.8,7.72,7.72,0,0,1,2.18-1.24,7.86,7.86,0,0,1,2.81-.47,7.51,7.51,0,0,1,2.35.32,4.72,4.72,0,0,1,1.61.86,3.43,3.43,0,0,1,.94,1.22A3.37,3.37,0,0,1,403.55,179.22Zm-19.64,1.08a4,4,0,0,0-1.17-1.24,2.65,2.65,0,0,0-1.48-.42,2.3,2.3,0,0,0-1.14.29,3.45,3.45,0,0,0-.93.78,5.07,5.07,0,0,0-.73,1.14,9.31,9.31,0,0,0-.51,1.37,10.91,10.91,0,0,0-.31,1.44,9.15,9.15,0,0,0-.11,1.37,3.16,3.16,0,0,0,.38,1.71,1.35,1.35,0,0,0,1.21.58,2.7,2.7,0,0,0,1.36-.4,5.28,5.28,0,0,0,1.29-1.06,7,7,0,0,0,1.06-1.58,7.52,7.52,0,0,0,.67-1.95Zm1.9,9.39a.62.62,0,0,1-.48.46,4.69,4.69,0,0,1-1.35.14,7.53,7.53,0,0,1-.75,0,1.92,1.92,0,0,1-.48-.1.4.4,0,0,1-.23-.18.46.46,0,0,1,0-.28l.39-2.15a4,4,0,0,1-.72,1,6.21,6.21,0,0,1-1.17,1,6.36,6.36,0,0,1-1.49.72,5.24,5.24,0,0,1-1.69.28,4.71,4.71,0,0,1-1.5-.22,3.56,3.56,0,0,1-1.1-.6,3.28,3.28,0,0,1-.76-.89,4.86,4.86,0,0,1-.48-1.08,6,6,0,0,1-.26-1.18,9.45,9.45,0,0,1-.08-1.19,13.57,13.57,0,0,1,.18-2.1,13.35,13.35,0,0,1,.57-2.22,12.63,12.63,0,0,1,1-2.13,7.87,7.87,0,0,1,1.41-1.8,6.33,6.33,0,0,1,1.88-1.25,5.84,5.84,0,0,1,2.39-.47,4.69,4.69,0,0,1,1.12.13,4.55,4.55,0,0,1,1,.34,4.29,4.29,0,0,1,.81.52,4.23,4.23,0,0,1,.62.63L386,170a.57.57,0,0,1,.14-.27.78.78,0,0,1,.34-.2,2.93,2.93,0,0,1,.61-.13,7.79,7.79,0,0,1,.93,0,7.27,7.27,0,0,1,.9,0,2.09,2.09,0,0,1,.54.13.45.45,0,0,1,.25.2.4.4,0,0,1,0,.27ZM361,181a4.35,4.35,0,0,0-.13-1.12,2,2,0,0,0-.42-.83,1.93,1.93,0,0,0-.75-.52,3.16,3.16,0,0,0-1.12-.18,3.06,3.06,0,0,0-1.35.29,3.75,3.75,0,0,0-1.08.79,5.12,5.12,0,0,0-.82,1.15,7.83,7.83,0,0,0-.57,1.37,9,9,0,0,0-.33,1.47,9.77,9.77,0,0,0-.11,1.42,4.42,4.42,0,0,0,.13,1.12,2,2,0,0,0,.42.84,2,2,0,0,0,.75.52,3.14,3.14,0,0,0,1.12.18,3,3,0,0,0,1.35-.29,3.65,3.65,0,0,0,1.07-.8,5.25,5.25,0,0,0,.82-1.15,7.87,7.87,0,0,0,.57-1.39,9.75,9.75,0,0,0,.33-1.46A10.43,10.43,0,0,0,361,181Zm3.91-.27a12.37,12.37,0,0,1-.21,2.23,11.16,11.16,0,0,1-.64,2.23,9.74,9.74,0,0,1-1.12,2,8,8,0,0,1-1.64,1.68,7.67,7.67,0,0,1-2.19,1.15,8.53,8.53,0,0,1-2.78.42,8.69,8.69,0,0,1-2.63-.35,4.82,4.82,0,0,1-1.84-1,4.22,4.22,0,0,1-1.1-1.68,6.73,6.73,0,0,1-.36-2.29,12.36,12.36,0,0,1,.21-2.23,11.16,11.16,0,0,1,.64-2.22,10.13,10.13,0,0,1,1.12-2.05A7.52,7.52,0,0,1,354,177a7.85,7.85,0,0,1,2.19-1.15,9.66,9.66,0,0,1,5.41-.07,4.8,4.8,0,0,1,1.84,1,4.2,4.2,0,0,1,1.1,1.68A6.73,6.73,0,0,1,364.92,180.78Zm-14.6-4.38a3.06,3.06,0,0,1,0,.38c0,.16,0,.33-.08.51a4.2,4.2,0,0,1-.14.54,3.32,3.32,0,0,1-.2.49,1.43,1.43,0,0,1-.26.37.41.41,0,0,1-.31.14h-2.93l-1.27,6.3c0,.15-.06.33-.08.53a4.11,4.11,0,0,0,0,.51,1.2,1.2,0,0,0,.28.88,1.25,1.25,0,0,0,.9.28,3.07,3.07,0,0,0,.62-.05,3.12,3.12,0,0,0,.45-.12l.33-.12a.68.68,0,0,1,.26-.05.24.24,0,0,1,.2.11.6.6,0,0,1,.08.36,4,4,0,0,1-.06.65,5.81,5.81,0,0,1-.16.7,5.55,5.55,0,0,1-.22.62,1.08,1.08,0,0,1-.67.67,3.72,3.72,0,0,1-.64.21,6.84,6.84,0,0,1-.79.14,6.77,6.77,0,0,1-.85.05,5.9,5.9,0,0,1-1.59-.19,2.89,2.89,0,0,1-1.14-.59,2.48,2.48,0,0,1-.7-1,4.5,4.5,0,0,1-.24-1.54c0-.11,0-.24,0-.38s0-.3.06-.46,0-.32.07-.49.06-.31.08-.44l1.32-6.54H341a.32.32,0,0,1-.29-.13.92.92,0,0,1-.09-.49,5.14,5.14,0,0,1,.05-.67,4.91,4.91,0,0,1,.17-.82,2.46,2.46,0,0,1,.32-.69.57.57,0,0,1,.47-.29h1.62l.61-3a.56.56,0,0,1,.14-.27.86.86,0,0,1,.34-.2,2.5,2.5,0,0,1,.6-.12,9,9,0,0,1,.92,0,8.83,8.83,0,0,1,.91,0,2,2,0,0,1,.57.12.57.57,0,0,1,.27.2.41.41,0,0,1,0,.27l-.61,3h2.89a.36.36,0,0,1,.34.16A1,1,0,0,1,350.32,176.4ZM336,189.71a.62.62,0,0,1-.13.26.67.67,0,0,1-.3.18,2.55,2.55,0,0,1-.52.11,6.77,6.77,0,0,1-.78,0,6.31,6.31,0,0,1-.76,0,1.79,1.79,0,0,1-.46-.11.38.38,0,0,1-.22-.18.35.35,0,0,1,0-.26l.41-2.19a5.28,5.28,0,0,1-.83,1.06,7.26,7.26,0,0,1-1.21,1,6.58,6.58,0,0,1-1.48.71,5.05,5.05,0,0,1-1.64.27,4.82,4.82,0,0,1-1.79-.29,2.91,2.91,0,0,1-1.82-2,5.43,5.43,0,0,1-.21-1.53,9.06,9.06,0,0,1,.07-1c0-.35.1-.72.17-1.09l1.66-8.33a.51.51,0,0,1,.14-.26.79.79,0,0,1,.34-.18,3.52,3.52,0,0,1,.61-.11c.25,0,.56,0,.92,0a8.7,8.7,0,0,1,.91,0,2.52,2.52,0,0,1,.55.11.44.44,0,0,1,.26.18.35.35,0,0,1,0,.26l-1.61,8.07a5.89,5.89,0,0,0-.11.69,6.45,6.45,0,0,0,0,.69,2.83,2.83,0,0,0,.07.65,1.36,1.36,0,0,0,.22.5,1,1,0,0,0,.38.32,1.47,1.47,0,0,0,.57.1,2.48,2.48,0,0,0,1.28-.4,5.2,5.2,0,0,0,1.27-1.09,7.84,7.84,0,0,0,1.07-1.65,8.85,8.85,0,0,0,.71-2.07l1.14-5.81A.43.43,0,0,1,335,176a.87.87,0,0,1,.36-.18,3.44,3.44,0,0,1,.61-.11,9.19,9.19,0,0,1,.92,0,8.72,8.72,0,0,1,.91,0,2.66,2.66,0,0,1,.55.11.44.44,0,0,1,.26.18.37.37,0,0,1,0,.26ZM323.4,176.4a2.94,2.94,0,0,1,0,.38c0,.16,0,.33-.08.51a4.31,4.31,0,0,1-.14.54,3.32,3.32,0,0,1-.2.49,1.44,1.44,0,0,1-.26.37.42.42,0,0,1-.31.14h-2.93l-1.27,6.3c0,.15-.06.33-.08.53a4.22,4.22,0,0,0,0,.51,1.2,1.2,0,0,0,.28.88,1.25,1.25,0,0,0,.9.28,3.06,3.06,0,0,0,.62-.05,3.11,3.11,0,0,0,.45-.12l.33-.12a.68.68,0,0,1,.26-.05.24.24,0,0,1,.21.11.61.61,0,0,1,.08.36,3.88,3.88,0,0,1-.06.65,5.81,5.81,0,0,1-.16.7,5.67,5.67,0,0,1-.22.62,1.38,1.38,0,0,1-.26.41,1.4,1.4,0,0,1-.41.26,3.73,3.73,0,0,1-.64.21,6.87,6.87,0,0,1-.79.14,6.79,6.79,0,0,1-.85.05,5.89,5.89,0,0,1-1.59-.19,2.9,2.9,0,0,1-1.15-.59,2.48,2.48,0,0,1-.7-1,4.49,4.49,0,0,1-.24-1.54c0-.11,0-.24,0-.38s0-.3.06-.46,0-.32.07-.49.06-.31.08-.44l1.32-6.54h-1.63a.32.32,0,0,1-.29-.13.92.92,0,0,1-.09-.49,5.24,5.24,0,0,1,.05-.67,4.85,4.85,0,0,1,.17-.82,2.42,2.42,0,0,1,.32-.69.57.57,0,0,1,.47-.29h1.62l.61-3a.57.57,0,0,1,.14-.27.86.86,0,0,1,.34-.2,2.48,2.48,0,0,1,.6-.12,9,9,0,0,1,.92,0,8.84,8.84,0,0,1,.91,0,2,2,0,0,1,.56.12.57.57,0,0,1,.27.2.41.41,0,0,1,0,.27l-.61,3H323a.36.36,0,0,1,.34.16A1,1,0,0,1,323.4,176.4Zm-10.49-4.64a4.11,4.11,0,0,1-.29.94,1.69,1.69,0,0,1-.47.62,1.78,1.78,0,0,1-.74.33,5,5,0,0,1-1.08.1,4.35,4.35,0,0,1-1-.1,1.1,1.1,0,0,1-.6-.33,1,1,0,0,1-.24-.62,3.57,3.57,0,0,1,.08-.94,4.35,4.35,0,0,1,.29-.92,1.63,1.63,0,0,1,.47-.62,1.83,1.83,0,0,1,.74-.34,4.56,4.56,0,0,1,1.08-.11,4.06,4.06,0,0,1,1,.11,1.16,1.16,0,0,1,.6.34,1,1,0,0,1,.23.62A3.93,3.93,0,0,1,312.92,171.77Zm-3.87,17.93a.55.55,0,0,1-.14.26.85.85,0,0,1-.35.19,3.34,3.34,0,0,1-.6.11c-.25,0-.55,0-.92,0a9,9,0,0,1-.9,0,2.73,2.73,0,0,1-.56-.11.49.49,0,0,1-.27-.19.31.31,0,0,1,0-.26l2.17-10.86h-6l-1.26,6.3c0,.15-.06.33-.08.53a4.24,4.24,0,0,0,0,.51,1.2,1.2,0,0,0,.28.88,1.26,1.26,0,0,0,.9.28,3,3,0,0,0,.62-.05,3.52,3.52,0,0,0,.45-.12l.32-.12a.67.67,0,0,1,.25-.05.24.24,0,0,1,.2.11.61.61,0,0,1,.08.36,4,4,0,0,1-.06.65,7,7,0,0,1-.15.7,5.53,5.53,0,0,1-.22.62,1.09,1.09,0,0,1-.66.67,3.69,3.69,0,0,1-.64.21,6.84,6.84,0,0,1-.79.14,6.76,6.76,0,0,1-.84.05,5.9,5.9,0,0,1-1.59-.19,2.89,2.89,0,0,1-1.15-.59,2.48,2.48,0,0,1-.7-1,4.37,4.37,0,0,1-.24-1.54c0-.11,0-.24,0-.38s0-.3.05-.46l.08-.49c0-.16.05-.31.08-.44l1.31-6.54H296a.32.32,0,0,1-.28-.13.92.92,0,0,1-.09-.49,6.39,6.39,0,0,1,.05-.67,5.49,5.49,0,0,1,.18-.82,2.44,2.44,0,0,1,.32-.69.56.56,0,0,1,.46-.29h1.61l.61-3a.56.56,0,0,1,.14-.27.89.89,0,0,1,.34-.2,2.54,2.54,0,0,1,.6-.12,9.21,9.21,0,0,1,.93,0,8.69,8.69,0,0,1,.9,0,2.06,2.06,0,0,1,.56.12.5.5,0,0,1,.26.2.41.41,0,0,1,0,.27l-.6,3h8.67a1,1,0,0,1,.83.27,1,1,0,0,1,.09.78Zm-15-12.84a3.71,3.71,0,0,1-.05.53,6.07,6.07,0,0,1-.15.71,3.26,3.26,0,0,1-.25.63c-.09.17-.2.26-.32.26a1,1,0,0,1-.46-.14l-.64-.31a5.45,5.45,0,0,0-.88-.31,4.71,4.71,0,0,0-1.18-.13,3.05,3.05,0,0,0-.93.13,2,2,0,0,0-.68.37,1.53,1.53,0,0,0-.41.55,1.56,1.56,0,0,0-.14.67,1,1,0,0,0,.38.78,4.84,4.84,0,0,0,1,.6l1.23.58a6,6,0,0,1,1.23.75,3.9,3.9,0,0,1,.94,1.1,3.17,3.17,0,0,1,.37,1.62,5.07,5.07,0,0,1-.44,2.12A4.67,4.67,0,0,1,291.4,189a6,6,0,0,1-2,1.1,8.45,8.45,0,0,1-2.69.4,9.16,9.16,0,0,1-1.38-.1,11.2,11.2,0,0,1-1.18-.25,4.5,4.5,0,0,1-.88-.34,3,3,0,0,1-.54-.35.81.81,0,0,1-.17-.26,1,1,0,0,1-.05-.34,3.08,3.08,0,0,1,0-.35c0-.14,0-.3.08-.47s.08-.34.12-.51a3.32,3.32,0,0,1,.16-.47,1.45,1.45,0,0,1,.2-.34.29.29,0,0,1,.23-.13.85.85,0,0,1,.47.18,7.44,7.44,0,0,0,.66.4,5.68,5.68,0,0,0,1,.4,4.92,4.92,0,0,0,1.48.19,3.5,3.5,0,0,0,1.07-.14,2.21,2.21,0,0,0,.75-.4,1.6,1.6,0,0,0,.44-.59,1.73,1.73,0,0,0,.14-.71,1.1,1.1,0,0,0-.37-.86,4.18,4.18,0,0,0-.92-.62c-.37-.19-.77-.39-1.21-.59a5.88,5.88,0,0,1-1.21-.74,3.56,3.56,0,0,1-.92-1.08,3.22,3.22,0,0,1-.37-1.62,4.8,4.8,0,0,1,.41-2,4.48,4.48,0,0,1,1.19-1.6,5.5,5.5,0,0,1,1.89-1.07,7.72,7.72,0,0,1,2.53-.38,8.59,8.59,0,0,1,1.23.08,8.34,8.34,0,0,1,1.07.22,5.31,5.31,0,0,1,.83.3,1.66,1.66,0,0,1,.51.33A.73.73,0,0,1,294.09,176.85Zm-12.86,2.41a8,8,0,0,1-.07,1.05c0,.35-.1.71-.18,1.08l-1.65,8.29a.51.51,0,0,1-.14.26.85.85,0,0,1-.35.19,3.48,3.48,0,0,1-.61.11c-.25,0-.56,0-.93,0a8.74,8.74,0,0,1-.9,0,2.45,2.45,0,0,1-.54-.11.51.51,0,0,1-.26-.19.38.38,0,0,1,0-.26l1.6-8.05a6.86,6.86,0,0,0,.11-.74,6.44,6.44,0,0,0,0-.66,2,2,0,0,0-.28-1.12,1.06,1.06,0,0,0-1-.44,2.54,2.54,0,0,0-1.28.39,5.23,5.23,0,0,0-1.26,1.06,7.82,7.82,0,0,0-1.06,1.57,7.19,7.19,0,0,0-.66,1.9l-1.21,6.08a.52.52,0,0,1-.14.26.82.82,0,0,1-.35.19,3.4,3.4,0,0,1-.61.11c-.25,0-.56,0-.92,0a8.79,8.79,0,0,1-.9,0,2.62,2.62,0,0,1-.55-.11.47.47,0,0,1-.26-.19.37.37,0,0,1,0-.26l2.68-13.44a.57.57,0,0,1,.13-.26.66.66,0,0,1,.3-.18,2.6,2.6,0,0,1,.52-.11,6.64,6.64,0,0,1,.78,0,6,6,0,0,1,.76,0,1.94,1.94,0,0,1,.46.11.38.38,0,0,1,.21.18.4.4,0,0,1,0,.26l-.43,2.21a6.19,6.19,0,0,1,.84-1.07,6.51,6.51,0,0,1,1.21-1,7,7,0,0,1,1.49-.71,5.07,5.07,0,0,1,1.67-.28,4.48,4.48,0,0,1,1.77.31,3,3,0,0,1,1.15.84,3.17,3.17,0,0,1,.64,1.22A5.57,5.57,0,0,1,281.23,179.27Zm-18.44,10.41a.54.54,0,0,1-.15.27,1,1,0,0,1-.37.2,3.79,3.79,0,0,1-.64.11c-.26,0-.58,0-1,0s-.7,0-.95,0a2.91,2.91,0,0,1-.58-.11.56.56,0,0,1-.28-.2.32.32,0,0,1,0-.27l3.7-18.42a.43.43,0,0,1,.14-.27,1,1,0,0,1,.37-.2,3.69,3.69,0,0,1,.63-.11c.25,0,.57,0,.94,0s.7,0,.95,0a3,3,0,0,1,.59.11.5.5,0,0,1,.29.2.38.38,0,0,1,0,.27Z" transform="translate(-7.82 -6.67)"/><path class="cls-1" d="M558.7,181a4.35,4.35,0,0,0-.13-1.12,2,2,0,0,0-.42-.83,1.93,1.93,0,0,0-.75-.52,3.16,3.16,0,0,0-1.12-.18,3.06,3.06,0,0,0-1.36.29,3.75,3.75,0,0,0-1.08.79,5.1,5.1,0,0,0-.82,1.15,7.78,7.78,0,0,0-.58,1.37,9,9,0,0,0-.33,1.47,9.86,9.86,0,0,0-.11,1.42,4.39,4.39,0,0,0,.13,1.12,2,2,0,0,0,.42.84,2,2,0,0,0,.75.52,3.14,3.14,0,0,0,1.12.18,3,3,0,0,0,1.36-.29,3.66,3.66,0,0,0,1.07-.8,5.23,5.23,0,0,0,.82-1.15,7.82,7.82,0,0,0,.57-1.39,9.68,9.68,0,0,0,.33-1.46,10.43,10.43,0,0,0,.1-1.41m3.91-.27a12.43,12.43,0,0,1-.21,2.23,11.12,11.12,0,0,1-.64,2.23,9.71,9.71,0,0,1-1.12,2A8,8,0,0,1,559,189a7.66,7.66,0,0,1-2.19,1.15,8.53,8.53,0,0,1-2.78.42,8.69,8.69,0,0,1-2.63-.35,4.82,4.82,0,0,1-1.84-1,4.21,4.21,0,0,1-1.1-1.68,6.73,6.73,0,0,1-.36-2.29,12.42,12.42,0,0,1,.21-2.23,11.2,11.2,0,0,1,.64-2.22,10.16,10.16,0,0,1,1.12-2.05,7.51,7.51,0,0,1,1.64-1.69,7.84,7.84,0,0,1,2.19-1.15,9.66,9.66,0,0,1,5.41-.07,4.8,4.8,0,0,1,1.84,1,4.2,4.2,0,0,1,1.1,1.68A6.73,6.73,0,0,1,562.61,180.78ZM544,189.69a.51.51,0,0,1-.14.26.82.82,0,0,1-.35.19,3.4,3.4,0,0,1-.61.11c-.25,0-.56,0-.92,0a8.79,8.79,0,0,1-.9,0,2.62,2.62,0,0,1-.55-.11.46.46,0,0,1-.26-.19.37.37,0,0,1,0-.26l2.65-13.4a.51.51,0,0,1,.14-.26.83.83,0,0,1,.34-.2,3,3,0,0,1,.6-.13,7.76,7.76,0,0,1,.93,0,7.34,7.34,0,0,1,.91,0,2.33,2.33,0,0,1,.56.13.47.47,0,0,1,.26.2.38.38,0,0,1,0,.26Zm3.9-18a4.16,4.16,0,0,1-.29.94,1.63,1.63,0,0,1-.49.62,1.8,1.8,0,0,1-.74.33,5,5,0,0,1-1.09.1,4.35,4.35,0,0,1-1-.1,1.1,1.1,0,0,1-.6-.33,1,1,0,0,1-.24-.62,3.41,3.41,0,0,1,.09-.94,4.06,4.06,0,0,1,.28-.92,1.75,1.75,0,0,1,.48-.62,1.8,1.8,0,0,1,.73-.34,4.55,4.55,0,0,1,1.08-.11,4.14,4.14,0,0,1,1,.11,1.14,1.14,0,0,1,.61.34,1,1,0,0,1,.23.62A3.67,3.67,0,0,1,547.93,171.73Zm-8.06,5.44a4.13,4.13,0,0,1-.08.78,5.89,5.89,0,0,1-.22.83,2.16,2.16,0,0,1-.34.65.57.57,0,0,1-.45.26.65.65,0,0,1-.43-.19l-.52-.41a3.9,3.9,0,0,0-.78-.42,3.21,3.21,0,0,0-1.2-.19,2.79,2.79,0,0,0-1.4.34,3.9,3.9,0,0,0-1.08.9,5.06,5.06,0,0,0-.76,1.25,11.4,11.4,0,0,0-.5,1.41,10.4,10.4,0,0,0-.28,1.37,9,9,0,0,0-.08,1.14,2.82,2.82,0,0,0,.53,1.85,2.06,2.06,0,0,0,1.67.63,4.15,4.15,0,0,0,1.44-.22,5.74,5.74,0,0,0,1-.48c.28-.18.53-.33.73-.48a1,1,0,0,1,.57-.21.22.22,0,0,1,.21.13.92.92,0,0,1,.07.4,4.2,4.2,0,0,1-.06.64,7.05,7.05,0,0,1-.15.78,6.42,6.42,0,0,1-.22.73,1.45,1.45,0,0,1-.33.53,3.45,3.45,0,0,1-.64.44,6.11,6.11,0,0,1-1,.44,9,9,0,0,1-1.24.31,8.06,8.06,0,0,1-1.39.12,5.15,5.15,0,0,1-3.84-1.3,5.28,5.28,0,0,1-1.28-3.85,12.76,12.76,0,0,1,.17-2,12.12,12.12,0,0,1,.56-2.21,11.66,11.66,0,0,1,1-2.15,7.81,7.81,0,0,1,1.52-1.84,7.5,7.5,0,0,1,6-1.67,6.52,6.52,0,0,1,1,.25,4.55,4.55,0,0,1,.85.38,3,3,0,0,1,.55.39,1,1,0,0,1,.23.31A.91.91,0,0,1,539.87,177.18Zm-18,3.11a3.93,3.93,0,0,0-1.16-1.22,2.69,2.69,0,0,0-1.48-.41,2.3,2.3,0,0,0-1.17.3,3.3,3.3,0,0,0-.94.81,5.62,5.62,0,0,0-.72,1.16,9.59,9.59,0,0,0-.51,1.38,10.7,10.7,0,0,0-.3,1.44,9.85,9.85,0,0,0-.1,1.35,5,5,0,0,0,.07.85,2.23,2.23,0,0,0,.25.72,1.39,1.39,0,0,0,.49.5,1.42,1.42,0,0,0,.78.19,2.69,2.69,0,0,0,1.35-.4,5.23,5.23,0,0,0,1.3-1.08,7.9,7.9,0,0,0,1.73-3.54Zm1.88,9.42a.62.62,0,0,1-.48.45,4.79,4.79,0,0,1-1.33.13,7.52,7.52,0,0,1-.75,0,1.87,1.87,0,0,1-.47-.1.39.39,0,0,1-.24-.18.49.49,0,0,1,0-.28l.42-2.16a4.18,4.18,0,0,1-.72,1,6.08,6.08,0,0,1-1.17,1,6.87,6.87,0,0,1-1.5.72,5.11,5.11,0,0,1-1.69.29,4.25,4.25,0,0,1-2-.42,3.48,3.48,0,0,1-1.28-1.13,4.75,4.75,0,0,1-.68-1.63,8.7,8.7,0,0,1-.21-1.92,13.27,13.27,0,0,1,.18-2.06,14,14,0,0,1,.56-2.23,12.39,12.39,0,0,1,1-2.15,8.24,8.24,0,0,1,1.41-1.82,6.38,6.38,0,0,1,1.88-1.27,5.88,5.88,0,0,1,2.4-.47,4.6,4.6,0,0,1,2.21.52,5,5,0,0,1,1.68,1.5l.24-1.19a.62.62,0,0,1,.48-.45,4.89,4.89,0,0,1,1.34-.13,5.93,5.93,0,0,1,.74,0,2,2,0,0,1,.47.11.43.43,0,0,1,.23.18.38.38,0,0,1,0,.26Zm-18.13-9.43a4.09,4.09,0,0,0-1.16-1.24,2.69,2.69,0,0,0-1.48-.41,2.28,2.28,0,0,0-1.16.3,3.46,3.46,0,0,0-.94.8,5.69,5.69,0,0,0-.73,1.17,9.71,9.71,0,0,0-.51,1.38,11.33,11.33,0,0,0-.3,1.44,9.92,9.92,0,0,0-.1,1.37,4.32,4.32,0,0,0,.09.93,2.09,2.09,0,0,0,.28.71,1.28,1.28,0,0,0,.49.45,1.5,1.5,0,0,0,.72.16,2.74,2.74,0,0,0,1.36-.4,5.28,5.28,0,0,0,1.3-1.08,7.75,7.75,0,0,0,1.73-3.55Zm1.75,9.95a8,8,0,0,1-.84,2.39,5.31,5.31,0,0,1-1.5,1.7,6.57,6.57,0,0,1-2.26,1,12.42,12.42,0,0,1-3.1.34,12,12,0,0,1-2.3-.2,7.79,7.79,0,0,1-1.7-.52.74.74,0,0,1-.33-.27.82.82,0,0,1-.09-.42c0-.06,0-.16,0-.3a3.55,3.55,0,0,1,.07-.47c0-.17.08-.34.13-.53a2.66,2.66,0,0,1,.19-.49,1.43,1.43,0,0,1,.25-.36.43.43,0,0,1,.32-.14,1,1,0,0,1,.45.13,6.65,6.65,0,0,0,.7.27,8.64,8.64,0,0,0,1.08.27,8.28,8.28,0,0,0,1.6.13,6.9,6.9,0,0,0,1.37-.12,3.18,3.18,0,0,0,1.06-.39,2.25,2.25,0,0,0,.73-.69,3,3,0,0,0,.4-1c.13-.65.26-1.2.4-1.64s.26-.8.37-1.08a4.32,4.32,0,0,1-.78,1,6.51,6.51,0,0,1-2.54,1.5,5.06,5.06,0,0,1-1.5.23,4.37,4.37,0,0,1-2-.39,3.44,3.44,0,0,1-1.29-1.08,4.44,4.44,0,0,1-.71-1.62,8.68,8.68,0,0,1-.22-2,13.64,13.64,0,0,1,.74-4.34,12.68,12.68,0,0,1,1-2.14,8.18,8.18,0,0,1,1.41-1.81,6.35,6.35,0,0,1,1.88-1.25,5.84,5.84,0,0,1,2.39-.47,4.6,4.6,0,0,1,2.21.52,5,5,0,0,1,1.68,1.51l.24-1.2a.62.62,0,0,1,.48-.45,4.89,4.89,0,0,1,1.34-.13,5.93,5.93,0,0,1,.74,0,2,2,0,0,1,.47.11.41.41,0,0,1,.23.18.38.38,0,0,1,0,.26Zm-12.26-18.45a4.17,4.17,0,0,1-.29.94,1.7,1.7,0,0,1-.47.62,1.78,1.78,0,0,1-.74.33,5,5,0,0,1-1.08.1,4.36,4.36,0,0,1-1-.1,1.1,1.1,0,0,1-.6-.33,1,1,0,0,1-.24-.62,3.58,3.58,0,0,1,.08-.94,4.35,4.35,0,0,1,.29-.92,1.63,1.63,0,0,1,.47-.62,1.83,1.83,0,0,1,.74-.34,4.56,4.56,0,0,1,1.08-.11,4.06,4.06,0,0,1,1,.11,1.16,1.16,0,0,1,.6.34,1,1,0,0,1,.23.62A4,4,0,0,1,495.12,171.77Zm-3.87,17.93a.55.55,0,0,1-.14.26.85.85,0,0,1-.35.19,3.34,3.34,0,0,1-.6.11c-.25,0-.55,0-.92,0a9,9,0,0,1-.9,0,2.74,2.74,0,0,1-.57-.11.49.49,0,0,1-.27-.19.31.31,0,0,1,0-.26l2.17-10.86h-6l-1.26,6.3c0,.15-.06.33-.08.53a4.24,4.24,0,0,0,0,.51,1.2,1.2,0,0,0,.28.88,1.26,1.26,0,0,0,.9.28,3,3,0,0,0,.62-.05,3.54,3.54,0,0,0,.45-.12l.32-.12a.68.68,0,0,1,.25-.05.24.24,0,0,1,.21.11.61.61,0,0,1,.08.36,3.88,3.88,0,0,1-.06.65,7,7,0,0,1-.15.7,5.65,5.65,0,0,1-.22.62,1.08,1.08,0,0,1-.66.67,3.68,3.68,0,0,1-.64.21,6.84,6.84,0,0,1-.79.14,6.75,6.75,0,0,1-.84.05,5.9,5.9,0,0,1-1.59-.19,2.88,2.88,0,0,1-1.15-.59,2.48,2.48,0,0,1-.7-1,4.37,4.37,0,0,1-.24-1.54c0-.11,0-.24,0-.38s0-.3.05-.46l.08-.49c0-.16.05-.31.08-.44l1.31-6.54h-1.63a.32.32,0,0,1-.28-.13.92.92,0,0,1-.09-.49,6.41,6.41,0,0,1,.05-.67,5.41,5.41,0,0,1,.17-.82,2.46,2.46,0,0,1,.32-.69.56.56,0,0,1,.46-.29h1.61l.61-3a.57.57,0,0,1,.14-.27.9.9,0,0,1,.34-.2,2.54,2.54,0,0,1,.6-.12,9.21,9.21,0,0,1,.93,0,8.68,8.68,0,0,1,.9,0,2.06,2.06,0,0,1,.57.12.51.51,0,0,1,.26.2.41.41,0,0,1,0,.27l-.6,3h8.67a.77.77,0,0,1,.92,1.05Zm-15-12.84a3.79,3.79,0,0,1-.05.53,6.08,6.08,0,0,1-.15.71,3.3,3.3,0,0,1-.25.63c-.09.17-.2.26-.32.26a1,1,0,0,1-.46-.14l-.64-.31a5.44,5.44,0,0,0-.88-.31,4.72,4.72,0,0,0-1.18-.13,3.06,3.06,0,0,0-.93.13,2,2,0,0,0-.68.37,1.54,1.54,0,0,0-.41.55,1.56,1.56,0,0,0-.14.67,1,1,0,0,0,.38.78,4.86,4.86,0,0,0,1,.6l1.23.58a6,6,0,0,1,1.23.75,3.89,3.89,0,0,1,.94,1.1,3.17,3.17,0,0,1,.37,1.62,5.07,5.07,0,0,1-.44,2.12A4.67,4.67,0,0,1,473.6,189a6,6,0,0,1-2,1.1,8.45,8.45,0,0,1-2.69.4,9.16,9.16,0,0,1-1.38-.1,11.15,11.15,0,0,1-1.18-.25,4.51,4.51,0,0,1-.88-.34,2.92,2.92,0,0,1-.54-.35.8.8,0,0,1-.17-.26,1,1,0,0,1-.05-.34,3.08,3.08,0,0,1,0-.35c0-.14,0-.3.08-.47s.08-.34.12-.51a3.33,3.33,0,0,1,.16-.47,1.46,1.46,0,0,1,.2-.34.29.29,0,0,1,.23-.13.85.85,0,0,1,.47.18,7.53,7.53,0,0,0,.66.4,5.7,5.7,0,0,0,1,.4,4.92,4.92,0,0,0,1.48.19,3.5,3.5,0,0,0,1.07-.14,2.22,2.22,0,0,0,.75-.4,1.61,1.61,0,0,0,.44-.59,1.74,1.74,0,0,0,.14-.71,1.1,1.1,0,0,0-.37-.86,4.2,4.2,0,0,0-.92-.62c-.37-.19-.77-.39-1.21-.59a5.89,5.89,0,0,1-1.21-.74,3.57,3.57,0,0,1-.92-1.08,3.23,3.23,0,0,1-.37-1.62,4.8,4.8,0,0,1,.41-2,4.48,4.48,0,0,1,1.19-1.6A5.49,5.49,0,0,1,470,175.8a7.72,7.72,0,0,1,2.53-.38,8.61,8.61,0,0,1,1.23.08,8.35,8.35,0,0,1,1.07.22,5.29,5.29,0,0,1,.83.3,1.66,1.66,0,0,1,.51.33A.73.73,0,0,1,476.29,176.85Zm-15.93,2.64a1.26,1.26,0,0,0-.47-1,2,2,0,0,0-1.36-.4,3.21,3.21,0,0,0-1.34.27,3.39,3.39,0,0,0-1,.73,4.59,4.59,0,0,0-.78,1.08,7.18,7.18,0,0,0-.51,1.34h1.25a10.41,10.41,0,0,0,2-.16,4.52,4.52,0,0,0,1.3-.43,1.87,1.87,0,0,0,.71-.64A1.5,1.5,0,0,0,460.36,179.5Zm3.73-.27a3.91,3.91,0,0,1-.49,1.95,4.13,4.13,0,0,1-1.51,1.49,8.34,8.34,0,0,1-2.61,1,18.62,18.62,0,0,1-3.77.33h-1.38c0,.23-.07.46-.09.68s0,.44,0,.63a2.47,2.47,0,0,0,.63,1.83,2.81,2.81,0,0,0,2,.62,9.9,9.9,0,0,0,1.78-.14,13.79,13.79,0,0,0,1.38-.32c.4-.12.72-.22,1-.32a1.87,1.87,0,0,1,.58-.14.29.29,0,0,1,.25.1.58.58,0,0,1,.08.33,4.25,4.25,0,0,1,0,.58,5.37,5.37,0,0,1-.13.65,3.28,3.28,0,0,1-.21.61,1.25,1.25,0,0,1-.29.44,1.89,1.89,0,0,1-.66.36,8.41,8.41,0,0,1-1.15.33c-.45.1-1,.18-1.52.25a14.62,14.62,0,0,1-1.71.1,9.41,9.41,0,0,1-2.52-.3,4.66,4.66,0,0,1-1.8-.91,3.77,3.77,0,0,1-1.08-1.57,6.39,6.39,0,0,1-.36-2.26,13.07,13.07,0,0,1,.19-2.16,11.85,11.85,0,0,1,.61-2.27,11.24,11.24,0,0,1,1.08-2.15,8,8,0,0,1,1.6-1.8,7.73,7.73,0,0,1,2.18-1.24,7.86,7.86,0,0,1,2.81-.47,7.51,7.51,0,0,1,2.35.32,4.71,4.71,0,0,1,1.61.86,3.44,3.44,0,0,1,.94,1.22A3.37,3.37,0,0,1,464.09,179.22Zm-14-3.06a2.2,2.2,0,0,1,0,.41,4,4,0,0,1-.13.51c-.37,1.08-.79,2.17-1.24,3.25s-.94,2.17-1.49,3.23-1.12,2.11-1.75,3.13a34.55,34.55,0,0,1-2,3,1.26,1.26,0,0,1-.36.34,1.81,1.81,0,0,1-.51.19,3.76,3.76,0,0,1-.7.08l-1,0c-.55,0-1,0-1.3,0a3.19,3.19,0,0,1-.73-.13.61.61,0,0,1-.34-.25,1,1,0,0,1-.1-.4l-1.59-12.07,0-.45c0-.14,0-.27,0-.39a1.22,1.22,0,0,1,.07-.46.51.51,0,0,1,.27-.25,1.88,1.88,0,0,1,.58-.14,9,9,0,0,1,1,0c.4,0,.72,0,.95,0a2.17,2.17,0,0,1,.53.1.44.44,0,0,1,.25.21.93.93,0,0,1,.08.31l1.14,9.86v.37l.08-.13c.51-.78,1-1.56,1.4-2.34s.81-1.59,1.17-2.41.69-1.68,1-2.56.62-1.81.92-2.8a.66.66,0,0,1,.16-.32.9.9,0,0,1,.36-.2,3.35,3.35,0,0,1,.63-.1c.26,0,.57,0,1,0s.67,0,.91,0a3.09,3.09,0,0,1,.54.09.52.52,0,0,1,.26.15A.36.36,0,0,1,450.07,176.16Zm-15.76,3.11a8,8,0,0,1-.07,1.05c0,.35-.1.71-.18,1.08l-1.65,8.29a.51.51,0,0,1-.14.26.84.84,0,0,1-.35.19,3.47,3.47,0,0,1-.61.11c-.25,0-.56,0-.93,0a8.73,8.73,0,0,1-.9,0,2.44,2.44,0,0,1-.54-.11.51.51,0,0,1-.26-.19.38.38,0,0,1,0-.26l1.6-8.05a7,7,0,0,0,.11-.74c0-.25,0-.47,0-.66a2,2,0,0,0-.28-1.12,1.06,1.06,0,0,0-1-.44,2.54,2.54,0,0,0-1.28.39,5.22,5.22,0,0,0-1.26,1.06,7.79,7.79,0,0,0-1.06,1.57,7.17,7.17,0,0,0-.66,1.9l-1.21,6.08a.51.51,0,0,1-.14.26.81.81,0,0,1-.35.19,3.39,3.39,0,0,1-.61.11c-.25,0-.56,0-.92,0a8.77,8.77,0,0,1-.9,0,2.61,2.61,0,0,1-.55-.11.47.47,0,0,1-.26-.19.38.38,0,0,1,0-.26l2.68-13.44a.57.57,0,0,1,.13-.26.66.66,0,0,1,.3-.18,2.59,2.59,0,0,1,.52-.11,6.63,6.63,0,0,1,.78,0,6,6,0,0,1,.76,0,1.93,1.93,0,0,1,.46.11.39.39,0,0,1,.22.18.41.41,0,0,1,0,.26l-.43,2.21a6.19,6.19,0,0,1,.84-1.07,6.49,6.49,0,0,1,1.21-1,7,7,0,0,1,1.49-.71,5.07,5.07,0,0,1,1.67-.28,4.48,4.48,0,0,1,1.77.31,3,3,0,0,1,1.15.84,3.17,3.17,0,0,1,.64,1.22A5.57,5.57,0,0,1,434.3,179.27Z" transform="translate(-7.82 -6.67)"/><path class="cls-1" d="M606.46,176.85a3.78,3.78,0,0,1-.05.53,6.08,6.08,0,0,1-.15.71,3.26,3.26,0,0,1-.25.63c-.09.17-.2.26-.32.26a1,1,0,0,1-.46-.14l-.64-.31a5.44,5.44,0,0,0-.88-.31,4.72,4.72,0,0,0-1.18-.13,3.05,3.05,0,0,0-.93.13,2,2,0,0,0-.68.37,1.53,1.53,0,0,0-.41.55,1.55,1.55,0,0,0-.14.67,1,1,0,0,0,.38.78,4.86,4.86,0,0,0,1,.6l1.23.58a6,6,0,0,1,1.23.75,3.89,3.89,0,0,1,.94,1.1,3.17,3.17,0,0,1,.37,1.62,5.06,5.06,0,0,1-.44,2.12,4.68,4.68,0,0,1-1.27,1.67,6,6,0,0,1-2,1.1,8.45,8.45,0,0,1-2.69.4,9.16,9.16,0,0,1-1.38-.1,11.15,11.15,0,0,1-1.18-.25,4.51,4.51,0,0,1-.88-.34,2.92,2.92,0,0,1-.54-.35.81.81,0,0,1-.17-.26,1,1,0,0,1-.05-.34,3.08,3.08,0,0,1,0-.35c0-.14,0-.3.08-.47s.08-.34.12-.51a3.32,3.32,0,0,1,.16-.47,1.45,1.45,0,0,1,.2-.34.29.29,0,0,1,.23-.13.85.85,0,0,1,.47.18,7.46,7.46,0,0,0,.66.4,5.67,5.67,0,0,0,1,.4,4.92,4.92,0,0,0,1.48.19,3.5,3.5,0,0,0,1.07-.14,2.22,2.22,0,0,0,.75-.4,1.61,1.61,0,0,0,.44-.59,1.74,1.74,0,0,0,.14-.71,1.1,1.1,0,0,0-.37-.86,4.19,4.19,0,0,0-.92-.62c-.37-.19-.77-.39-1.21-.59a5.89,5.89,0,0,1-1.21-.74,3.57,3.57,0,0,1-.92-1.08,3.23,3.23,0,0,1-.37-1.62,4.8,4.8,0,0,1,.41-2,4.48,4.48,0,0,1,1.19-1.6,5.49,5.49,0,0,1,1.89-1.07,7.72,7.72,0,0,1,2.53-.38,8.61,8.61,0,0,1,1.23.08,8.36,8.36,0,0,1,1.07.22,5.29,5.29,0,0,1,.83.3,1.66,1.66,0,0,1,.51.33.73.73,0,0,1,.15.51m-15.93,2.64a1.26,1.26,0,0,0-.47-1,2,2,0,0,0-1.36-.4,3.21,3.21,0,0,0-1.34.27,3.39,3.39,0,0,0-1,.73,4.59,4.59,0,0,0-.78,1.08,7.18,7.18,0,0,0-.51,1.34h1.25a10.41,10.41,0,0,0,2-.16,4.52,4.52,0,0,0,1.3-.43,1.87,1.87,0,0,0,.71-.64A1.5,1.5,0,0,0,590.54,179.5Zm3.73-.27a3.91,3.91,0,0,1-.49,1.95,4.13,4.13,0,0,1-1.51,1.49,8.34,8.34,0,0,1-2.61,1,18.62,18.62,0,0,1-3.77.33h-1.38c0,.23-.07.46-.09.68s0,.44,0,.63a2.47,2.47,0,0,0,.63,1.83,2.81,2.81,0,0,0,2,.62,9.9,9.9,0,0,0,1.78-.14,13.79,13.79,0,0,0,1.38-.32c.4-.12.72-.22,1-.32a1.87,1.87,0,0,1,.58-.14.29.29,0,0,1,.25.1.59.59,0,0,1,.08.33,4.25,4.25,0,0,1,0,.58,5.25,5.25,0,0,1-.13.65,3.28,3.28,0,0,1-.21.61,1.24,1.24,0,0,1-.29.44,1.88,1.88,0,0,1-.66.36,8.4,8.4,0,0,1-1.15.33c-.45.1-1,.18-1.52.25a14.62,14.62,0,0,1-1.71.1,9.41,9.41,0,0,1-2.52-.3,4.67,4.67,0,0,1-1.8-.91,3.77,3.77,0,0,1-1.08-1.57,6.39,6.39,0,0,1-.36-2.26,13.07,13.07,0,0,1,.19-2.16,11.85,11.85,0,0,1,.61-2.27,11.24,11.24,0,0,1,1.08-2.15,8,8,0,0,1,1.6-1.8,7.73,7.73,0,0,1,2.18-1.24,7.86,7.86,0,0,1,2.81-.47,7.51,7.51,0,0,1,2.35.32,4.72,4.72,0,0,1,1.61.86,3.44,3.44,0,0,1,.94,1.22A3.37,3.37,0,0,1,594.26,179.22Zm-15.78,0a8,8,0,0,1-.07,1.05c0,.35-.1.71-.18,1.08l-1.65,8.29a.51.51,0,0,1-.14.26.85.85,0,0,1-.35.19,3.45,3.45,0,0,1-.61.11c-.25,0-.56,0-.93,0a8.73,8.73,0,0,1-.9,0,2.45,2.45,0,0,1-.54-.11.51.51,0,0,1-.26-.19.38.38,0,0,1,0-.26l1.6-8.05a6.85,6.85,0,0,0,.11-.74,6.44,6.44,0,0,0,0-.66,2,2,0,0,0-.28-1.12,1.06,1.06,0,0,0-1-.44,2.54,2.54,0,0,0-1.28.39,5.22,5.22,0,0,0-1.26,1.06,7.82,7.82,0,0,0-1.06,1.57,7.19,7.19,0,0,0-.66,1.9l-1.21,6.08a.51.51,0,0,1-.14.26.82.82,0,0,1-.35.19,3.38,3.38,0,0,1-.61.11c-.25,0-.56,0-.92,0a8.77,8.77,0,0,1-.9,0,2.61,2.61,0,0,1-.55-.11.46.46,0,0,1-.26-.19.37.37,0,0,1,0-.26l2.68-13.44a.58.58,0,0,1,.13-.26.66.66,0,0,1,.3-.18,2.6,2.6,0,0,1,.52-.11,6.64,6.64,0,0,1,.77,0,6,6,0,0,1,.76,0,1.93,1.93,0,0,1,.46.11.38.38,0,0,1,.22.18.4.4,0,0,1,0,.26l-.43,2.21a6.19,6.19,0,0,1,.84-1.07,6.51,6.51,0,0,1,1.21-1,7,7,0,0,1,1.49-.71,5.07,5.07,0,0,1,1.67-.28,4.48,4.48,0,0,1,1.77.31,3,3,0,0,1,1.15.84,3.16,3.16,0,0,1,.64,1.22A5.57,5.57,0,0,1,578.48,179.27Z" transform="translate(-7.82 -6.67)"/><path class="cls-2" d="M262.5,207.64a8.77,8.77,0,0,0-1.23.81,5.16,5.16,0,0,0-.88.88,3.36,3.36,0,0,0-.52,1,3.06,3.06,0,0,0-.18,1,2.19,2.19,0,0,0,.16.84,1.79,1.79,0,0,0,.53.72,2.63,2.63,0,0,0,1,.51,4.81,4.81,0,0,0,1.48.19,5.67,5.67,0,0,0,1-.08,6.87,6.87,0,0,0,1-.24,7.84,7.84,0,0,0,.91-.36,5.06,5.06,0,0,0,.79-.47c-.37-.38-.73-.76-1.07-1.15s-.69-.77-1-1.17-.65-.79-1-1.21-.62-.84-.92-1.28m1.83-4.11a17.25,17.25,0,0,0,2-1.08,6.39,6.39,0,0,0,1.2-1,2.62,2.62,0,0,0,.57-.87,2.33,2.33,0,0,0,.15-.8,1.33,1.33,0,0,0-.09-.45,1.18,1.18,0,0,0-.32-.44,1.81,1.81,0,0,0-.61-.32,3.25,3.25,0,0,0-1-.12,3.5,3.5,0,0,0-1.41.25,2.49,2.49,0,0,0-.88.61,2,2,0,0,0-.44.78,2.73,2.73,0,0,0-.13.77,2.78,2.78,0,0,0,0,.49,5.13,5.13,0,0,0,.15.6,5.32,5.32,0,0,0,.27.71C264,202.94,264.17,203.22,264.33,203.53Zm4.83,11.1a13.59,13.59,0,0,1-3.18,1.49,12.28,12.28,0,0,1-3.82.57,10.66,10.66,0,0,1-2.69-.32,6.33,6.33,0,0,1-2.11-.95,4.63,4.63,0,0,1-1.38-1.54,4.34,4.34,0,0,1-.5-2.1,6.12,6.12,0,0,1,.29-1.86,5.89,5.89,0,0,1,.92-1.76,8.71,8.71,0,0,1,1.64-1.62,14.78,14.78,0,0,1,2.44-1.49,13.63,13.63,0,0,1-.64-1.3,10.07,10.07,0,0,1-.41-1.13c-.09-.35-.17-.66-.21-1a4.64,4.64,0,0,1-.07-.74,5.87,5.87,0,0,1,.11-1.12,4.76,4.76,0,0,1,.41-1.21,4.92,4.92,0,0,1,.82-1.17,5,5,0,0,1,1.3-1,7.61,7.61,0,0,1,1.88-.69,11.16,11.16,0,0,1,2.56-.26,10.69,10.69,0,0,1,2.8.31,5.53,5.53,0,0,1,1.83.83,3,3,0,0,1,1,1.18,3.3,3.3,0,0,1,.3,1.36,4.86,4.86,0,0,1-1.35,3.4,10.21,10.21,0,0,1-2,1.62,24.23,24.23,0,0,1-3,1.66c.27.4.53.77.79,1.12s.52.68.79,1,.54.65.83,1l.9,1a8.68,8.68,0,0,0,1-1.55,7.18,7.18,0,0,0,.55-1.42c.1-.4.17-.69.19-.86a1,1,0,0,1,.13-.39.6.6,0,0,1,.31-.21,2.56,2.56,0,0,1,.57-.11,9.11,9.11,0,0,1,.93,0,5.87,5.87,0,0,1,1.28.1c.28.07.42.19.42.37a4.75,4.75,0,0,1-.15.92c-.09.43-.22.89-.37,1.36a11.09,11.09,0,0,1-.59,1.46,12.2,12.2,0,0,1-.78,1.41,7.65,7.65,0,0,1-.93,1.19,9.53,9.53,0,0,0,1.24,1,1.76,1.76,0,0,0,.91.31.58.58,0,0,1,.41.11.6.6,0,0,1,.1.41,3.55,3.55,0,0,1-.05.5c0,.23-.08.46-.13.7a6.35,6.35,0,0,1-.18.67,1.14,1.14,0,0,1-.25.45,1.09,1.09,0,0,1-.47.25,2.28,2.28,0,0,1-.73.11,2.16,2.16,0,0,1-.64-.11,4.76,4.76,0,0,1-.82-.36,11.61,11.61,0,0,1-1-.62C270,215.29,269.59,215,269.16,214.63Z" transform="translate(-7.82 -6.67)"/><path class="cls-1" d="M449.77,215.8a.51.51,0,0,1-.15.27.82.82,0,0,1-.36.19,3.36,3.36,0,0,1-.62.11c-.26,0-.57,0-.94,0a8.71,8.71,0,0,1-.92,0,2.61,2.61,0,0,1-.56-.11.48.48,0,0,1-.27-.19.38.38,0,0,1,0-.27l2.7-13.64a.53.53,0,0,1,.15-.27.86.86,0,0,1,.35-.2,3,3,0,0,1,.61-.13,7.74,7.74,0,0,1,.95,0,7.33,7.33,0,0,1,.93,0,2.35,2.35,0,0,1,.57.13.49.49,0,0,1,.27.2.38.38,0,0,1,0,.27Zm4-18.28a4.21,4.21,0,0,1-.29,1,1.66,1.66,0,0,1-.5.63,1.84,1.84,0,0,1-.76.34,5.12,5.12,0,0,1-1.11.1,4.42,4.42,0,0,1-1-.1,1.12,1.12,0,0,1-.61-.34,1,1,0,0,1-.24-.63,3.51,3.51,0,0,1,.09-1,4.13,4.13,0,0,1,.29-.94,1.79,1.79,0,0,1,.49-.63,1.84,1.84,0,0,1,.75-.35,4.64,4.64,0,0,1,1.1-.11,4.22,4.22,0,0,1,1.06.11,1.17,1.17,0,0,1,.62.35,1,1,0,0,1,.23.63A3.72,3.72,0,0,1,453.73,197.52Zm-13.91,12.2a1.85,1.85,0,0,0-.73-1.55,3.72,3.72,0,0,0-2.31-.57h-2.67L433,213.25h2.84a4.79,4.79,0,0,0,1.82-.31,3.62,3.62,0,0,0,1.22-.79,3.07,3.07,0,0,0,.71-1.13A3.83,3.83,0,0,0,439.83,209.72Zm.69-8.43a1.77,1.77,0,0,0-.15-.75,1.5,1.5,0,0,0-.46-.55,2.24,2.24,0,0,0-.78-.35,4.68,4.68,0,0,0-1.19-.12h-2.2l-1,5.14H437a3.83,3.83,0,0,0,1.65-.31,3.15,3.15,0,0,0,1.69-1.9A3.66,3.66,0,0,0,440.52,201.29Zm4.14-.75a5.68,5.68,0,0,1-.25,1.7,5.11,5.11,0,0,1-.73,1.47,5.41,5.41,0,0,1-1.16,1.18,5.8,5.8,0,0,1-1.52.82,4,4,0,0,1,1.23.43,3.32,3.32,0,0,1,1,.78,3.46,3.46,0,0,1,.62,1.13,4.57,4.57,0,0,1,.22,1.46,6.34,6.34,0,0,1-.2,1.53,6,6,0,0,1-.63,1.54,6.55,6.55,0,0,1-1.11,1.44,6.75,6.75,0,0,1-1.66,1.19,9.14,9.14,0,0,1-2.23.82,13,13,0,0,1-2.95.3h-5.5a1.19,1.19,0,0,1-.91-.31,1,1,0,0,1-.15-1l3.45-17.28a1.44,1.44,0,0,1,.54-1,1.65,1.65,0,0,1,1-.3h4.78a13.29,13.29,0,0,1,2.72.24,5.72,5.72,0,0,1,1.92.74,3.29,3.29,0,0,1,1.18,1.25A3.8,3.8,0,0,1,444.65,200.54Zm-24.52,2.19a3.85,3.85,0,0,1-.05.54,6.28,6.28,0,0,1-.16.73,3.3,3.3,0,0,1-.25.64c-.09.18-.2.27-.32.27a1,1,0,0,1-.46-.15l-.65-.31a5.62,5.62,0,0,0-.89-.31,4.86,4.86,0,0,0-1.2-.14,3.14,3.14,0,0,0-1,.14,2.05,2.05,0,0,0-.7.38,1.63,1.63,0,0,0-.56,1.24,1,1,0,0,0,.39.79,5,5,0,0,0,1,.61l1.25.59a6.13,6.13,0,0,1,1.25.76,4,4,0,0,1,1,1.12,3.23,3.23,0,0,1,.38,1.65,5.15,5.15,0,0,1-.44,2.15,4.76,4.76,0,0,1-1.29,1.7,6.06,6.06,0,0,1-2.06,1.12,8.61,8.61,0,0,1-2.74.41,9.32,9.32,0,0,1-1.41-.1,11.2,11.2,0,0,1-1.2-.26,4.54,4.54,0,0,1-.89-.35,3.06,3.06,0,0,1-.55-.36.82.82,0,0,1-.17-.26,1,1,0,0,1-.05-.35,3.18,3.18,0,0,1,0-.36c0-.14,0-.3.08-.48s.08-.35.12-.52a3.32,3.32,0,0,1,.16-.48,1.49,1.49,0,0,1,.2-.35.3.3,0,0,1,.23-.13.87.87,0,0,1,.48.18,7.49,7.49,0,0,0,.67.41,5.8,5.8,0,0,0,1,.41,5,5,0,0,0,1.51.19,3.56,3.56,0,0,0,1.09-.15,2.23,2.23,0,0,0,.77-.41,1.63,1.63,0,0,0,.44-.6,1.76,1.76,0,0,0,.15-.72,1.12,1.12,0,0,0-.38-.87,4.31,4.31,0,0,0-.94-.63c-.38-.19-.78-.39-1.23-.6a6,6,0,0,1-1.23-.75,3.61,3.61,0,0,1-.94-1.1,3.28,3.28,0,0,1-.38-1.65,4.89,4.89,0,0,1,.41-2,4.57,4.57,0,0,1,1.21-1.63,5.58,5.58,0,0,1,1.93-1.09,7.88,7.88,0,0,1,2.57-.39,8.71,8.71,0,0,1,1.25.08,8.56,8.56,0,0,1,1.09.22,5.27,5.27,0,0,1,.84.3,1.71,1.71,0,0,1,.52.33A.74.74,0,0,1,420.13,202.73Zm-16.22,2.69a1.28,1.28,0,0,0-.48-1,2.07,2.07,0,0,0-1.38-.41,3.26,3.26,0,0,0-1.37.28,3.43,3.43,0,0,0-1.06.74,4.69,4.69,0,0,0-.79,1.1,7.34,7.34,0,0,0-.52,1.36h1.28a10.55,10.55,0,0,0,2-.16,4.57,4.57,0,0,0,1.33-.43,1.9,1.9,0,0,0,.73-.65A1.53,1.53,0,0,0,403.92,205.42Zm3.79-.28a4,4,0,0,1-.5,2,4.21,4.21,0,0,1-1.54,1.52,8.5,8.5,0,0,1-2.66,1,19,19,0,0,1-3.84.34h-1.41c0,.24-.07.46-.09.7s0,.44,0,.64a2.52,2.52,0,0,0,.64,1.87,2.87,2.87,0,0,0,2.06.63,10,10,0,0,0,1.81-.15,14.08,14.08,0,0,0,1.41-.32c.41-.12.74-.23,1-.32a1.89,1.89,0,0,1,.59-.15.29.29,0,0,1,.26.1.59.59,0,0,1,.08.34,4.43,4.43,0,0,1,0,.6,5.55,5.55,0,0,1-.13.66,3.28,3.28,0,0,1-.21.62,1.27,1.27,0,0,1-.3.44,1.93,1.93,0,0,1-.67.37,8.6,8.6,0,0,1-1.18.34c-.46.1-1,.18-1.55.25a14.85,14.85,0,0,1-1.75.1,9.58,9.58,0,0,1-2.57-.31,4.76,4.76,0,0,1-1.83-.93,3.85,3.85,0,0,1-1.1-1.6,6.51,6.51,0,0,1-.37-2.3,13.28,13.28,0,0,1,.19-2.19,12,12,0,0,1,.62-2.31,11.39,11.39,0,0,1,1.1-2.18,8.11,8.11,0,0,1,1.63-1.83,7.87,7.87,0,0,1,2.22-1.26,8,8,0,0,1,2.86-.48,7.66,7.66,0,0,1,2.39.33,4.83,4.83,0,0,1,1.64.87,3.49,3.49,0,0,1,1,1.24A3.43,3.43,0,0,1,407.71,205.15Zm-16.07,0a8.21,8.21,0,0,1-.07,1.07c0,.36-.1.73-.18,1.1l-1.68,8.44a.51.51,0,0,1-.15.27.86.86,0,0,1-.36.19,3.46,3.46,0,0,1-.62.11,9.45,9.45,0,0,1-1,0,8.67,8.67,0,0,1-.91,0,2.43,2.43,0,0,1-.55-.11.52.52,0,0,1-.27-.19.39.39,0,0,1,0-.27l1.63-8.2a7.08,7.08,0,0,0,.11-.75,6.71,6.71,0,0,0,0-.67,2.06,2.06,0,0,0-.29-1.14,1.08,1.08,0,0,0-1-.44,2.58,2.58,0,0,0-1.31.4,5.34,5.34,0,0,0-1.29,1.08,7.94,7.94,0,0,0-1.08,1.6,7.28,7.28,0,0,0-.67,1.94l-1.23,6.19a.52.52,0,0,1-.15.27.83.83,0,0,1-.36.19,3.35,3.35,0,0,1-.62.11c-.26,0-.57,0-.94,0a8.7,8.7,0,0,1-.92,0,2.61,2.61,0,0,1-.56-.11.47.47,0,0,1-.27-.19.38.38,0,0,1,0-.27l2.73-13.69a.58.58,0,0,1,.13-.27.68.68,0,0,1,.31-.18,2.61,2.61,0,0,1,.53-.11,6.73,6.73,0,0,1,.79,0,6.11,6.11,0,0,1,.77,0,2,2,0,0,1,.47.11.4.4,0,0,1,.22.18.41.41,0,0,1,0,.27l-.44,2.25a6.25,6.25,0,0,1,.85-1.09,6.66,6.66,0,0,1,1.23-1,7.09,7.09,0,0,1,1.52-.73,5.18,5.18,0,0,1,1.7-.28,4.57,4.57,0,0,1,1.8.31,3.06,3.06,0,0,1,1.18.85,3.25,3.25,0,0,1,.65,1.24A5.69,5.69,0,0,1,391.64,205.19ZM371.5,207a4.41,4.41,0,0,0-.13-1.14,2,2,0,0,0-.43-.84,2,2,0,0,0-.76-.53,3.2,3.2,0,0,0-1.14-.18,3.11,3.11,0,0,0-1.38.3,3.8,3.8,0,0,0-1.1.81,5.23,5.23,0,0,0-.83,1.17,8,8,0,0,0-.59,1.4,9.2,9.2,0,0,0-.33,1.49,10,10,0,0,0-.11,1.44,4.45,4.45,0,0,0,.13,1.14,2.08,2.08,0,0,0,.43.85,2,2,0,0,0,.77.53,3.22,3.22,0,0,0,1.14.18,3.1,3.1,0,0,0,1.38-.3,3.73,3.73,0,0,0,1.09-.81,5.37,5.37,0,0,0,.84-1.18,8.07,8.07,0,0,0,.58-1.41,9.94,9.94,0,0,0,.34-1.49A10.71,10.71,0,0,0,371.5,207Zm4-.27a12.71,12.71,0,0,1-.21,2.27,11.39,11.39,0,0,1-.65,2.27,9.94,9.94,0,0,1-1.14,2.08,8.14,8.14,0,0,1-1.67,1.71,7.78,7.78,0,0,1-2.23,1.17,8.67,8.67,0,0,1-2.83.43,8.84,8.84,0,0,1-2.68-.36,4.9,4.9,0,0,1-1.88-1.06,4.28,4.28,0,0,1-1.12-1.71,6.84,6.84,0,0,1-.37-2.33,12.71,12.71,0,0,1,.21-2.27,11.44,11.44,0,0,1,.65-2.26,10.29,10.29,0,0,1,1.14-2.09,7.65,7.65,0,0,1,1.67-1.72,8,8,0,0,1,2.23-1.17,9.84,9.84,0,0,1,5.51-.07,4.91,4.91,0,0,1,1.88,1.06,4.28,4.28,0,0,1,1.12,1.71A6.84,6.84,0,0,1,375.49,206.73Zm-18.91,9.07a.51.51,0,0,1-.15.27.82.82,0,0,1-.36.19,3.36,3.36,0,0,1-.62.11c-.26,0-.57,0-.94,0a8.7,8.7,0,0,1-.92,0,2.62,2.62,0,0,1-.56-.11.48.48,0,0,1-.27-.19.38.38,0,0,1,0-.27l2.7-13.64a.53.53,0,0,1,.15-.27.86.86,0,0,1,.35-.2,3,3,0,0,1,.61-.13,7.74,7.74,0,0,1,.95,0,7.33,7.33,0,0,1,.93,0,2.35,2.35,0,0,1,.57.13.49.49,0,0,1,.27.2.38.38,0,0,1,0,.27Zm4-18.28a4.25,4.25,0,0,1-.29,1,1.66,1.66,0,0,1-.5.63,1.84,1.84,0,0,1-.76.34,5.12,5.12,0,0,1-1.11.1,4.42,4.42,0,0,1-1-.1,1.12,1.12,0,0,1-.61-.34,1,1,0,0,1-.24-.63,3.51,3.51,0,0,1,.09-1,4.13,4.13,0,0,1,.29-.94,1.79,1.79,0,0,1,.49-.63,1.83,1.83,0,0,1,.75-.35,4.64,4.64,0,0,1,1.1-.11,4.22,4.22,0,0,1,1.06.11,1.17,1.17,0,0,1,.62.35,1,1,0,0,1,.23.63A3.69,3.69,0,0,1,360.54,197.52Zm-8.2,5.54a4.22,4.22,0,0,1-.08.79,6,6,0,0,1-.23.84,2.21,2.21,0,0,1-.34.66.58.58,0,0,1-.46.27.65.65,0,0,1-.44-.19l-.53-.42a3.93,3.93,0,0,0-.79-.42,3.26,3.26,0,0,0-1.22-.19,2.83,2.83,0,0,0-1.42.35,4,4,0,0,0-1.1.91,5.18,5.18,0,0,0-.77,1.27,11.62,11.62,0,0,0-.51,1.44,10.77,10.77,0,0,0-.28,1.4,9.1,9.1,0,0,0-.08,1.16,2.87,2.87,0,0,0,.54,1.89,2.1,2.1,0,0,0,1.7.64,4.24,4.24,0,0,0,1.47-.22,5.8,5.8,0,0,0,1.05-.49l.75-.49a1.06,1.06,0,0,1,.57-.21.22.22,0,0,1,.21.14.92.92,0,0,1,.07.4,4.22,4.22,0,0,1-.06.65,7.17,7.17,0,0,1-.16.79,6.94,6.94,0,0,1-.22.75,1.49,1.49,0,0,1-.33.54,3.54,3.54,0,0,1-.65.45,6.31,6.31,0,0,1-1,.45,9.1,9.1,0,0,1-1.26.32,8.23,8.23,0,0,1-1.41.12,5.25,5.25,0,0,1-3.91-1.33,5.38,5.38,0,0,1-1.3-3.92,13,13,0,0,1,.18-2.05,12.35,12.35,0,0,1,.57-2.25,11.89,11.89,0,0,1,1-2.18,8,8,0,0,1,1.55-1.87,7.4,7.4,0,0,1,2.13-1.3,7.3,7.3,0,0,1,2.79-.49,7.43,7.43,0,0,1,1.19.09,6.65,6.65,0,0,1,1.07.26,4.55,4.55,0,0,1,.87.39,3,3,0,0,1,.56.4,1.05,1.05,0,0,1,.23.32A.91.91,0,0,1,352.33,203.06Zm-16.4,12.76a.64.64,0,0,1-.13.27.71.71,0,0,1-.31.18,2.6,2.6,0,0,1-.53.11,6.7,6.7,0,0,1-.79,0,6.25,6.25,0,0,1-.78,0,1.83,1.83,0,0,1-.47-.11.39.39,0,0,1-.22-.18.36.36,0,0,1,0-.27l.41-2.23a5.42,5.42,0,0,1-.84,1.08,7.34,7.34,0,0,1-1.23,1,6.62,6.62,0,0,1-1.51.72,5.13,5.13,0,0,1-1.67.28,4.91,4.91,0,0,1-1.82-.3,3,3,0,0,1-1.86-2,5.5,5.5,0,0,1-.21-1.56,9.23,9.23,0,0,1,.07-1.06c0-.36.1-.73.18-1.11l1.69-8.48a.52.52,0,0,1,.15-.27.82.82,0,0,1,.35-.18,3.57,3.57,0,0,1,.62-.11c.26,0,.57,0,.94,0a8.82,8.82,0,0,1,.92,0,2.55,2.55,0,0,1,.56.11.45.45,0,0,1,.27.18.36.36,0,0,1,0,.27l-1.64,8.22a5.8,5.8,0,0,0-.11.7,6.51,6.51,0,0,0,0,.71,2.88,2.88,0,0,0,.07.66,1.4,1.4,0,0,0,.22.51,1,1,0,0,0,.39.32,1.5,1.5,0,0,0,.58.1,2.53,2.53,0,0,0,1.31-.41,5.28,5.28,0,0,0,1.3-1.11,8,8,0,0,0,1.09-1.68,9,9,0,0,0,.73-2.11l1.16-5.92a.44.44,0,0,1,.14-.27.89.89,0,0,1,.37-.18,3.47,3.47,0,0,1,.62-.11,9.33,9.33,0,0,1,.94,0,8.83,8.83,0,0,1,.92,0,2.68,2.68,0,0,1,.56.11.45.45,0,0,1,.27.18.38.38,0,0,1,0,.27Zm-16.51,0a.51.51,0,0,1-.15.27.84.84,0,0,1-.35.19,3.29,3.29,0,0,1-.62.11c-.26,0-.57,0-.94,0a8.91,8.91,0,0,1-.94,0,2.49,2.49,0,0,1-.55-.11.52.52,0,0,1-.27-.19.39.39,0,0,1,0-.27l4-20.15a.66.66,0,0,1,.14-.28.84.84,0,0,1,.36-.2,3,3,0,0,1,.62-.13,7.74,7.74,0,0,1,.95,0,7.31,7.31,0,0,1,.92,0,2.14,2.14,0,0,1,.56.13.49.49,0,0,1,.26.2.41.41,0,0,1,0,.28Zm-9.31-8.8a4.41,4.41,0,0,0-.13-1.14,2,2,0,0,0-.43-.84,2,2,0,0,0-.76-.53,3.2,3.2,0,0,0-1.14-.18,3.11,3.11,0,0,0-1.38.3,3.79,3.79,0,0,0-1.1.81,5.23,5.23,0,0,0-.83,1.17,8,8,0,0,0-.59,1.4,9.2,9.2,0,0,0-.33,1.49,10,10,0,0,0-.11,1.44,4.48,4.48,0,0,0,.13,1.14,2.08,2.08,0,0,0,.43.85,2,2,0,0,0,.77.53,3.21,3.21,0,0,0,1.14.18,3.1,3.1,0,0,0,1.38-.3,3.72,3.72,0,0,0,1.09-.81,5.37,5.37,0,0,0,.84-1.18,8.07,8.07,0,0,0,.58-1.41,9.86,9.86,0,0,0,.34-1.49A10.71,10.71,0,0,0,310.11,207Zm4-.27a12.71,12.71,0,0,1-.21,2.27,11.35,11.35,0,0,1-.65,2.27,9.91,9.91,0,0,1-1.14,2.08,8.13,8.13,0,0,1-1.67,1.71,7.78,7.78,0,0,1-2.23,1.17,8.68,8.68,0,0,1-2.83.43,8.84,8.84,0,0,1-2.68-.36,4.9,4.9,0,0,1-1.88-1.06,4.29,4.29,0,0,1-1.12-1.71,6.84,6.84,0,0,1-.37-2.33,12.65,12.65,0,0,1,.21-2.27,11.43,11.43,0,0,1,.65-2.26,10.26,10.26,0,0,1,1.14-2.09,7.65,7.65,0,0,1,1.67-1.72,8,8,0,0,1,2.23-1.17,9.84,9.84,0,0,1,5.51-.07,4.92,4.92,0,0,1,1.88,1.06,4.27,4.27,0,0,1,1.12,1.71A6.84,6.84,0,0,1,314.1,206.73ZM298.53,198c0,.08,0,.2,0,.36s0,.32-.07.51-.07.37-.12.56a3.6,3.6,0,0,1-.17.52,1.71,1.71,0,0,1-.23.39.35.35,0,0,1-.27.15,1.09,1.09,0,0,1-.53-.19c-.21-.13-.48-.27-.79-.42a8.15,8.15,0,0,0-1.1-.42,4.75,4.75,0,0,0-1.42-.19,3.79,3.79,0,0,0-1.4.23,2.68,2.68,0,0,0-.94.61,2.4,2.4,0,0,0-.54.84,2.59,2.59,0,0,0-.18.94,1.75,1.75,0,0,0,.28,1,3.23,3.23,0,0,0,.74.78,9.07,9.07,0,0,0,1.05.7c.39.22.79.45,1.2.7s.8.51,1.2.8a5.79,5.79,0,0,1,1.05,1,4.67,4.67,0,0,1,.74,1.32,4.92,4.92,0,0,1,.28,1.71,6.13,6.13,0,0,1-.59,2.67,6.4,6.4,0,0,1-1.65,2.14,7.88,7.88,0,0,1-2.58,1.43,10.16,10.16,0,0,1-3.36.52,9.59,9.59,0,0,1-1.83-.16,10.21,10.21,0,0,1-1.49-.39,6.3,6.3,0,0,1-1.09-.49,2.76,2.76,0,0,1-.66-.48,1,1,0,0,1-.21-.7,3.2,3.2,0,0,1,0-.37c0-.17,0-.35.08-.53s.08-.38.13-.59a4.09,4.09,0,0,1,.18-.54,1.88,1.88,0,0,1,.24-.4.38.38,0,0,1,.28-.15,1.16,1.16,0,0,1,.62.24c.24.16.54.33.9.52a7.84,7.84,0,0,0,1.27.53,5.67,5.67,0,0,0,1.76.24,5,5,0,0,0,1.59-.23,3.41,3.41,0,0,0,1.14-.62,2.62,2.62,0,0,0,.7-.92,2.7,2.7,0,0,0,.24-1.15,1.79,1.79,0,0,0-.28-1,3.21,3.21,0,0,0-.73-.79,7.48,7.48,0,0,0-1-.68c-.38-.21-.77-.44-1.17-.68s-.79-.51-1.17-.8a5.26,5.26,0,0,1-1-1,4.79,4.79,0,0,1-.73-1.33,5.06,5.06,0,0,1-.28-1.75,5.9,5.9,0,0,1,.55-2.54,6,6,0,0,1,1.53-2,7.21,7.21,0,0,1,2.34-1.3,9.22,9.22,0,0,1,3-.47,8.71,8.71,0,0,1,1.46.12,9.6,9.6,0,0,1,1.26.29,5.13,5.13,0,0,1,1,.39,2.66,2.66,0,0,1,.55.36.9.9,0,0,1,.23.3A1,1,0,0,1,298.53,198Z" transform="translate(-7.82 -6.67)"/><path class="cls-1" d="M604.66,202.73a3.85,3.85,0,0,1-.05.54,6.15,6.15,0,0,1-.16.73,3.34,3.34,0,0,1-.25.64c-.09.18-.2.27-.32.27a1,1,0,0,1-.46-.15l-.65-.31a5.59,5.59,0,0,0-.89-.31,4.85,4.85,0,0,0-1.2-.14,3.14,3.14,0,0,0-1,.14,2,2,0,0,0-.7.38,1.56,1.56,0,0,0-.42.56,1.58,1.58,0,0,0-.15.68,1,1,0,0,0,.39.79,5,5,0,0,0,1,.61l1.25.59a6.13,6.13,0,0,1,1.25.76,4,4,0,0,1,1,1.12,3.23,3.23,0,0,1,.38,1.65,5.15,5.15,0,0,1-.44,2.15,4.77,4.77,0,0,1-1.29,1.7,6.06,6.06,0,0,1-2.06,1.12,8.61,8.61,0,0,1-2.74.41,9.31,9.31,0,0,1-1.41-.1,11.22,11.22,0,0,1-1.2-.26,4.53,4.53,0,0,1-.89-.35,3,3,0,0,1-.55-.36.82.82,0,0,1-.17-.26,1,1,0,0,1-.05-.35,3.2,3.2,0,0,1,0-.36c0-.14,0-.3.08-.48s.08-.35.12-.52a3.33,3.33,0,0,1,.16-.48,1.51,1.51,0,0,1,.2-.35.3.3,0,0,1,.23-.13.87.87,0,0,1,.48.18,7.58,7.58,0,0,0,.67.41,5.82,5.82,0,0,0,1,.41,5,5,0,0,0,1.51.19,3.56,3.56,0,0,0,1.09-.15,2.23,2.23,0,0,0,.77-.41,1.64,1.64,0,0,0,.44-.6,1.76,1.76,0,0,0,.15-.72,1.12,1.12,0,0,0-.38-.87,4.28,4.28,0,0,0-.94-.63c-.38-.19-.78-.39-1.23-.6a6,6,0,0,1-1.23-.75,3.62,3.62,0,0,1-.94-1.1,3.29,3.29,0,0,1-.38-1.65,4.88,4.88,0,0,1,.41-2,4.56,4.56,0,0,1,1.21-1.63,5.59,5.59,0,0,1,1.93-1.09,7.88,7.88,0,0,1,2.57-.39,8.71,8.71,0,0,1,1.25.08,8.56,8.56,0,0,1,1.09.22,5.29,5.29,0,0,1,.84.3,1.7,1.7,0,0,1,.52.33.74.74,0,0,1,.15.52m-17,3.49a4,4,0,0,0-1.18-1.24,2.73,2.73,0,0,0-1.51-.42,2.35,2.35,0,0,0-1.19.3,3.38,3.38,0,0,0-1,.82,5.69,5.69,0,0,0-.73,1.18,9.61,9.61,0,0,0-.52,1.4,10.8,10.8,0,0,0-.31,1.46,10.12,10.12,0,0,0-.1,1.37,5.06,5.06,0,0,0,.07.87,2.27,2.27,0,0,0,.26.74,1.41,1.41,0,0,0,.5.51,1.45,1.45,0,0,0,.79.19,2.75,2.75,0,0,0,1.38-.41,5.3,5.3,0,0,0,1.32-1.1,8,8,0,0,0,1.76-3.61Zm1.91,9.6a.63.63,0,0,1-.49.46,4.9,4.9,0,0,1-1.36.14,7.62,7.62,0,0,1-.77,0,2,2,0,0,1-.48-.1.4.4,0,0,1-.24-.18.5.5,0,0,1,0-.28l.43-2.2a4.26,4.26,0,0,1-.74,1,6.15,6.15,0,0,1-1.19,1,7,7,0,0,1-1.53.73,5.2,5.2,0,0,1-1.73.29,4.33,4.33,0,0,1-2-.43,3.54,3.54,0,0,1-1.31-1.15,4.83,4.83,0,0,1-.7-1.66,8.85,8.85,0,0,1-.21-2,13.54,13.54,0,0,1,.18-2.1,14.18,14.18,0,0,1,.57-2.27,12.56,12.56,0,0,1,1-2.18,8.4,8.4,0,0,1,1.44-1.86,6.52,6.52,0,0,1,1.91-1.3,6,6,0,0,1,2.45-.48,4.67,4.67,0,0,1,2.25.53,5.1,5.1,0,0,1,1.71,1.53l.25-1.21a.63.63,0,0,1,.49-.46,5,5,0,0,1,1.36-.14,6,6,0,0,1,.76,0,2,2,0,0,1,.48.11.43.43,0,0,1,.24.18.39.39,0,0,1,0,.27Zm-12.82-12.76a4.22,4.22,0,0,1-.08.79,6,6,0,0,1-.22.84,2.23,2.23,0,0,1-.35.66.58.58,0,0,1-.45.27.65.65,0,0,1-.44-.19l-.53-.42a3.91,3.91,0,0,0-.79-.42,3.26,3.26,0,0,0-1.22-.19,2.84,2.84,0,0,0-1.42.35,4,4,0,0,0-1.1.91,5.2,5.2,0,0,0-.77,1.27,11.62,11.62,0,0,0-.51,1.44,10.68,10.68,0,0,0-.28,1.4,9.1,9.1,0,0,0-.08,1.16,2.87,2.87,0,0,0,.54,1.89,2.1,2.1,0,0,0,1.7.64,4.25,4.25,0,0,0,1.47-.22,5.84,5.84,0,0,0,1.05-.49c.29-.18.54-.34.75-.49a1.06,1.06,0,0,1,.58-.21.22.22,0,0,1,.21.14.93.93,0,0,1,.07.4,4.29,4.29,0,0,1-.06.65,7.18,7.18,0,0,1-.16.79,6.67,6.67,0,0,1-.22.75,1.48,1.48,0,0,1-.33.54,3.5,3.5,0,0,1-.65.45,6.3,6.3,0,0,1-1,.45,9.11,9.11,0,0,1-1.26.32,8.22,8.22,0,0,1-1.41.12,5.25,5.25,0,0,1-3.91-1.33,5.38,5.38,0,0,1-1.3-3.92,13,13,0,0,1,.18-2.05,12.35,12.35,0,0,1,.58-2.25,11.85,11.85,0,0,1,1-2.18,8,8,0,0,1,1.55-1.87,7.4,7.4,0,0,1,2.13-1.3,7.3,7.3,0,0,1,2.78-.49,7.43,7.43,0,0,1,1.19.09,6.62,6.62,0,0,1,1.07.26,4.53,4.53,0,0,1,.87.39,3,3,0,0,1,.56.4,1.07,1.07,0,0,1,.23.32A.91.91,0,0,1,576.73,203.06ZM560.36,215.8a.51.51,0,0,1-.15.27.82.82,0,0,1-.36.19,3.36,3.36,0,0,1-.62.11c-.26,0-.57,0-.94,0a8.72,8.72,0,0,1-.92,0,2.61,2.61,0,0,1-.56-.11.48.48,0,0,1-.27-.19.38.38,0,0,1,0-.27l2.7-13.64a.53.53,0,0,1,.15-.27.86.86,0,0,1,.35-.2,3,3,0,0,1,.61-.13,7.74,7.74,0,0,1,.95,0,7.33,7.33,0,0,1,.93,0,2.35,2.35,0,0,1,.57.13.49.49,0,0,1,.27.2.38.38,0,0,1,0,.27Zm4-18.28a4.25,4.25,0,0,1-.29,1,1.66,1.66,0,0,1-.5.63,1.84,1.84,0,0,1-.76.34,5.12,5.12,0,0,1-1.11.1,4.42,4.42,0,0,1-1-.1,1.12,1.12,0,0,1-.61-.34,1,1,0,0,1-.24-.63,3.51,3.51,0,0,1,.09-1,4.13,4.13,0,0,1,.29-.94,1.79,1.79,0,0,1,.49-.63,1.83,1.83,0,0,1,.75-.35,4.64,4.64,0,0,1,1.1-.11,4.22,4.22,0,0,1,1.06.11,1.17,1.17,0,0,1,.62.35,1,1,0,0,1,.23.63A3.69,3.69,0,0,1,564.32,197.52Zm-9.67,7.67a8.21,8.21,0,0,1-.07,1.07c0,.36-.1.73-.18,1.1l-1.68,8.44a.52.52,0,0,1-.15.27.86.86,0,0,1-.36.19,3.46,3.46,0,0,1-.62.11,9.46,9.46,0,0,1-1,0,8.66,8.66,0,0,1-.91,0,2.43,2.43,0,0,1-.55-.11.52.52,0,0,1-.27-.19.39.39,0,0,1,0-.27l1.63-8.2a7.08,7.08,0,0,0,.11-.75,6.71,6.71,0,0,0,0-.67,2.06,2.06,0,0,0-.29-1.14,1.08,1.08,0,0,0-1-.44,2.58,2.58,0,0,0-1.31.4,5.34,5.34,0,0,0-1.29,1.08,7.94,7.94,0,0,0-1.08,1.6,7.28,7.28,0,0,0-.67,1.94l-1.23,6.19a.52.52,0,0,1-.15.27.83.83,0,0,1-.36.19,3.36,3.36,0,0,1-.62.11c-.26,0-.57,0-.94,0a8.7,8.7,0,0,1-.92,0,2.63,2.63,0,0,1-.56-.11.48.48,0,0,1-.27-.19.38.38,0,0,1,0-.27l2.73-13.69a.58.58,0,0,1,.13-.27.68.68,0,0,1,.31-.18,2.61,2.61,0,0,1,.53-.11,6.73,6.73,0,0,1,.79,0,6.12,6.12,0,0,1,.77,0,2,2,0,0,1,.47.11.39.39,0,0,1,.22.18.41.41,0,0,1,0,.27l-.44,2.25a6.28,6.28,0,0,1,.85-1.09,6.68,6.68,0,0,1,1.23-1,7.09,7.09,0,0,1,1.52-.73,5.17,5.17,0,0,1,1.7-.28,4.57,4.57,0,0,1,1.8.31,3.06,3.06,0,0,1,1.18.85,3.25,3.25,0,0,1,.65,1.24A5.69,5.69,0,0,1,554.65,205.19Zm-20.25-6a1.65,1.65,0,0,1-.25.26,1,1,0,0,1-.32.16,3.09,3.09,0,0,1-.49.09,7,7,0,0,1-.73,0,6.07,6.07,0,0,1-.85,0,1,1,0,0,1-.43-.15.23.23,0,0,1-.08-.25,1.13,1.13,0,0,1,.18-.36l2.32-3.51a1.59,1.59,0,0,1,.28-.29,1.14,1.14,0,0,1,.4-.19,3.06,3.06,0,0,1,.6-.1c.24,0,.52,0,.87,0a6.47,6.47,0,0,1,1.08.07,1.71,1.71,0,0,1,.57.18c.11.08.16.17.14.26a.72.72,0,0,1-.17.31Zm-.22,7A4,4,0,0,0,533,205a2.73,2.73,0,0,0-1.51-.42,2.35,2.35,0,0,0-1.19.3,3.39,3.39,0,0,0-1,.82,5.72,5.72,0,0,0-.73,1.18,9.76,9.76,0,0,0-.52,1.4,10.91,10.91,0,0,0-.31,1.46,10.12,10.12,0,0,0-.1,1.37,5.06,5.06,0,0,0,.07.87,2.28,2.28,0,0,0,.26.74,1.42,1.42,0,0,0,.5.51,1.45,1.45,0,0,0,.79.19,2.75,2.75,0,0,0,1.38-.41,5.32,5.32,0,0,0,1.32-1.1,8.05,8.05,0,0,0,1.76-3.61Zm1.91,9.6a.63.63,0,0,1-.49.46,4.89,4.89,0,0,1-1.36.14,7.63,7.63,0,0,1-.77,0,2,2,0,0,1-.48-.1.4.4,0,0,1-.24-.18.5.5,0,0,1,0-.28l.43-2.2a4.25,4.25,0,0,1-.74,1,6.16,6.16,0,0,1-1.19,1,7,7,0,0,1-1.53.73,5.2,5.2,0,0,1-1.73.29,4.33,4.33,0,0,1-2-.43,3.54,3.54,0,0,1-1.31-1.15,4.82,4.82,0,0,1-.7-1.66,8.85,8.85,0,0,1-.21-2,13.46,13.46,0,0,1,.18-2.1,14.17,14.17,0,0,1,.57-2.27,12.56,12.56,0,0,1,1-2.18,8.38,8.38,0,0,1,1.44-1.86,6.52,6.52,0,0,1,1.91-1.3,6,6,0,0,1,2.45-.48,4.67,4.67,0,0,1,2.25.53,5.09,5.09,0,0,1,1.71,1.53l.25-1.21a.63.63,0,0,1,.49-.46,5,5,0,0,1,1.36-.14,6,6,0,0,1,.76,0,2,2,0,0,1,.48.11.44.44,0,0,1,.24.18.38.38,0,0,1,0,.27Zm-12.82-12.76a4.22,4.22,0,0,1-.08.79,6,6,0,0,1-.23.84,2.21,2.21,0,0,1-.34.66.58.58,0,0,1-.46.27.65.65,0,0,1-.44-.19l-.53-.42a3.93,3.93,0,0,0-.79-.42,3.26,3.26,0,0,0-1.22-.19,2.83,2.83,0,0,0-1.42.35,4,4,0,0,0-1.1.91,5.18,5.18,0,0,0-.77,1.27,11.61,11.61,0,0,0-.51,1.44,10.77,10.77,0,0,0-.28,1.4,9.1,9.1,0,0,0-.08,1.16,2.87,2.87,0,0,0,.54,1.89,2.1,2.1,0,0,0,1.7.64,4.24,4.24,0,0,0,1.47-.22,5.8,5.8,0,0,0,1.05-.49l.75-.49a1.06,1.06,0,0,1,.57-.21.22.22,0,0,1,.21.14.92.92,0,0,1,.07.4,4.22,4.22,0,0,1-.06.65,7.18,7.18,0,0,1-.16.79,6.8,6.8,0,0,1-.22.75,1.49,1.49,0,0,1-.33.54,3.54,3.54,0,0,1-.65.45,6.31,6.31,0,0,1-1,.45,9.1,9.1,0,0,1-1.26.32,8.23,8.23,0,0,1-1.41.12,5.25,5.25,0,0,1-3.91-1.33,5.38,5.38,0,0,1-1.3-3.92,13,13,0,0,1,.18-2.05,12.35,12.35,0,0,1,.57-2.25,11.89,11.89,0,0,1,1-2.18,8,8,0,0,1,1.55-1.87,7.4,7.4,0,0,1,2.13-1.3,7.3,7.3,0,0,1,2.79-.49,7.43,7.43,0,0,1,1.19.09,6.65,6.65,0,0,1,1.07.26,4.53,4.53,0,0,1,.87.39,3,3,0,0,1,.56.4,1.05,1.05,0,0,1,.23.32A.91.91,0,0,1,523.28,203.06Zm-17.5,2.36a1.28,1.28,0,0,0-.48-1,2.07,2.07,0,0,0-1.38-.41,3.26,3.26,0,0,0-1.37.28,3.43,3.43,0,0,0-1.06.74,4.69,4.69,0,0,0-.79,1.1,7.34,7.34,0,0,0-.52,1.36h1.28a10.55,10.55,0,0,0,2-.16,4.57,4.57,0,0,0,1.33-.43,1.9,1.9,0,0,0,.73-.65A1.53,1.53,0,0,0,505.78,205.42Zm3.79-.28a4,4,0,0,1-.5,2,4.21,4.21,0,0,1-1.54,1.52,8.5,8.5,0,0,1-2.66,1A19,19,0,0,1,501,210h-1.41c0,.24-.07.46-.09.7s0,.44,0,.64a2.51,2.51,0,0,0,.64,1.87,2.87,2.87,0,0,0,2.06.63,10,10,0,0,0,1.81-.15,14.08,14.08,0,0,0,1.41-.32c.41-.12.74-.23,1-.32a1.89,1.89,0,0,1,.59-.15.29.29,0,0,1,.26.1.59.59,0,0,1,.08.34,4.43,4.43,0,0,1,0,.6,5.55,5.55,0,0,1-.13.66,3.28,3.28,0,0,1-.21.62,1.27,1.27,0,0,1-.3.44,1.93,1.93,0,0,1-.67.37,8.6,8.6,0,0,1-1.18.34c-.46.1-1,.18-1.55.25a14.85,14.85,0,0,1-1.75.1,9.57,9.57,0,0,1-2.57-.31,4.76,4.76,0,0,1-1.83-.93,3.85,3.85,0,0,1-1.1-1.6,6.51,6.51,0,0,1-.37-2.3,13.28,13.28,0,0,1,.19-2.19,12,12,0,0,1,.62-2.31,11.39,11.39,0,0,1,1.1-2.18,8.11,8.11,0,0,1,1.63-1.83,7.87,7.87,0,0,1,2.22-1.26,8,8,0,0,1,2.86-.48,7.66,7.66,0,0,1,2.39.33,4.83,4.83,0,0,1,1.64.87,3.49,3.49,0,0,1,1,1.24A3.43,3.43,0,0,1,509.57,205.15Zm-18,10.66a.51.51,0,0,1-.15.27.87.87,0,0,1-.37.19,3.6,3.6,0,0,1-.63.11c-.26,0-.57,0-1,0a8.57,8.57,0,0,1-.9,0,2.42,2.42,0,0,1-.55-.11.52.52,0,0,1-.27-.19.33.33,0,0,1,0-.27l1.6-8.2c0-.24.08-.47.1-.7a5.18,5.18,0,0,0,0-.7,2.26,2.26,0,0,0-.27-1.17,1,1,0,0,0-.95-.44,2.43,2.43,0,0,0-1.27.4,5.56,5.56,0,0,0-1.26,1.08,7.63,7.63,0,0,0-1.07,1.6,7.44,7.44,0,0,0-.66,1.94l-1.25,6.19a.52.52,0,0,1-.15.27.82.82,0,0,1-.36.19,3.55,3.55,0,0,1-.62.11,9.31,9.31,0,0,1-.94,0,8.64,8.64,0,0,1-.91,0,2.54,2.54,0,0,1-.56-.11.52.52,0,0,1-.27-.19.35.35,0,0,1,0-.27l1.63-8.2a4.81,4.81,0,0,0,.13-.73,7.18,7.18,0,0,0,0-.73,2,2,0,0,0-.28-1.11,1,1,0,0,0-1-.44,2.45,2.45,0,0,0-1.27.4,5.58,5.58,0,0,0-1.26,1.08,7.48,7.48,0,0,0-1.07,1.6,7.27,7.27,0,0,0-.67,1.94L474,215.8a.52.52,0,0,1-.15.27.83.83,0,0,1-.36.19,3.36,3.36,0,0,1-.62.11c-.26,0-.57,0-.94,0a8.7,8.7,0,0,1-.92,0,2.63,2.63,0,0,1-.56-.11.48.48,0,0,1-.27-.19.38.38,0,0,1,0-.27l2.73-13.69a.58.58,0,0,1,.13-.27.68.68,0,0,1,.31-.18,2.61,2.61,0,0,1,.53-.11,6.72,6.72,0,0,1,.79,0,6.12,6.12,0,0,1,.77,0,2,2,0,0,1,.47.11.39.39,0,0,1,.22.18.41.41,0,0,1,0,.27l-.44,2.25a6.1,6.1,0,0,1,.86-1.09,6.7,6.7,0,0,1,1.21-1,6.84,6.84,0,0,1,1.48-.73,5,5,0,0,1,1.66-.28,4.54,4.54,0,0,1,1.54.24,2.85,2.85,0,0,1,1.07.66,2.91,2.91,0,0,1,.65,1,4.61,4.61,0,0,1,.28,1.22,6.87,6.87,0,0,1,.89-1.1,7.17,7.17,0,0,1,1.22-1,6.86,6.86,0,0,1,1.47-.73,4.87,4.87,0,0,1,1.64-.28,4.74,4.74,0,0,1,1.8.3,3,3,0,0,1,1.17.83,3.18,3.18,0,0,1,.64,1.24,5.79,5.79,0,0,1,.2,1.54,9.37,9.37,0,0,1-.06,1.08,9.79,9.79,0,0,1-.18,1.11ZM464.7,207a4.41,4.41,0,0,0-.13-1.14,2,2,0,0,0-.43-.84,2,2,0,0,0-.76-.53,3.2,3.2,0,0,0-1.14-.18,3.11,3.11,0,0,0-1.38.3,3.78,3.78,0,0,0-1.1.81,5.23,5.23,0,0,0-.83,1.17,8,8,0,0,0-.59,1.4,9.2,9.2,0,0,0-.33,1.49,10,10,0,0,0-.11,1.44,4.45,4.45,0,0,0,.13,1.14,2.07,2.07,0,0,0,.43.85,2,2,0,0,0,.77.53,3.22,3.22,0,0,0,1.14.18,3.1,3.1,0,0,0,1.38-.3,3.72,3.72,0,0,0,1.09-.81,5.35,5.35,0,0,0,.84-1.18,8,8,0,0,0,.58-1.41,9.86,9.86,0,0,0,.34-1.49A10.71,10.71,0,0,0,464.7,207Zm4-.27a12.65,12.65,0,0,1-.21,2.27,11.39,11.39,0,0,1-.65,2.27,9.91,9.91,0,0,1-1.14,2.08,8.11,8.11,0,0,1-1.67,1.71,7.77,7.77,0,0,1-2.23,1.17,8.68,8.68,0,0,1-2.83.43,8.84,8.84,0,0,1-2.68-.36,4.9,4.9,0,0,1-1.88-1.06,4.28,4.28,0,0,1-1.12-1.71,6.84,6.84,0,0,1-.37-2.33,12.71,12.71,0,0,1,.21-2.27,11.39,11.39,0,0,1,.65-2.26,10.29,10.29,0,0,1,1.14-2.09,7.65,7.65,0,0,1,1.67-1.72,8,8,0,0,1,2.23-1.17,9.84,9.84,0,0,1,5.51-.07,4.91,4.91,0,0,1,1.88,1.06,4.28,4.28,0,0,1,1.12,1.71A6.84,6.84,0,0,1,468.68,206.73Z" transform="translate(-7.82 -6.67)"/><path class="cls-1" d="M409.73,221.58c0,.08,0,.16,0,.24,0-.08,0-.16,0-.24" transform="translate(-7.82 -6.67)"/><path class="cls-1" d="M110.92,125.16c0,.09,0,.17,0,.26,0-.09,0-.17,0-.26M67.14,226.74h0Zm.41-.14-.09.05ZM101,179.8l-.54.39Zm.55-.38-.37.25Zm.74-.48-.37.23Zm22.1-21.51c-4.47,5.16-9,10.28-13.5,15.4C113.14,170.24,119.83,162.64,124.36,157.43Zm4.62-5.35-.73.85Zm-2.06-13-.76-.55ZM142.1,148a13.7,13.7,0,0,1-2.27-.8,25.13,25.13,0,0,1-4.28-2.34s-4.28-2.7-8.11-5.42c3.84,2.72,8.11,5.42,8.11,5.42a25.18,25.18,0,0,0,4.28,2.35A13.65,13.65,0,0,0,142.1,148Zm.75.17-.75-.17Zm.45.08-.45-.08Zm1.1.17-.63-.09Zm2.72.38-2.31-.33Zm2.36.41-.89-.17-1.48-.23,1.48.23Zm1,.26-.6-.16Zm.57.18-.57-.18Zm.87.32q-.41-.17-.87-.32Q151.53,149.79,151.94,150Zm3.79,2.43a10.77,10.77,0,0,0-3.79-2.43,10.74,10.74,0,0,1,3.79,2.43Zm-11.9,6.95.58-.61Zm-6.47,6c.49-.32.94-.62,1.35-.91C138.3,164.7,137.85,165,137.36,165.32Zm-2.21,1.37,1.61-1Zm-1,.6,1-.6Zm-22.36,16c-.11-.31-.21-.62-.3-.94C111.56,182.67,111.66,183,111.77,183.29Zm3.81,6.62a9.19,9.19,0,0,0-2-3.27,10.2,10.2,0,0,1-1.79-3.17,10.17,10.17,0,0,0,1.79,3.17A9.2,9.2,0,0,1,115.58,189.91Zm2.27,9.13-.19-.56Zm1.45,3.39-.27-.56Zm.28.55-.28-.55Zm.29.55-.29-.55Zm.76,1.32q-.39-.64-.76-1.32C120.12,204,120.37,204.42,120.63,204.85Zm5.88,5.59a3,3,0,0,1-.65,0c-1.34-.22-3.41-2.55-5.22-5.55,1.82,3,3.89,5.32,5.23,5.55A3,3,0,0,0,126.51,210.44Zm.39,0a2.62,2.62,0,0,1-.39,0A2.62,2.62,0,0,0,126.9,210.39Zm.18,0-.18,0Zm-.3-10.19a7.18,7.18,0,0,0,.2.76l0,.15,0-.15A7.14,7.14,0,0,1,126.79,200.15Zm-.24-2.14-.08.15h0Zm2.17-8.31h0Zm45.8-26.82-7.57,2.3s-.32.26-1,.7c.66-.44,1-.7,1-.7Zm6.42-3.46-.26.29Zm.7-1q-.15.25-.31.48Q181.49,158.69,181.64,158.45Zm-.68-9.34.17.35Zm-16.28-39.62-.91.45Zm3.38-2.16-.1.09a13.91,13.91,0,0,1-3.28,2.07,14,14,0,0,0,3.28-2.07ZM187.92,92c0-.07,0-.15,0-.22S187.91,91.94,187.92,92Zm7.13,16a42.32,42.32,0,0,0-2.14-4.69c-.82-1.56-2.11-4.5-3-6.53.93,2,2.23,5,3,6.53A42.28,42.28,0,0,1,195.06,108Zm.22.62c-.07-.2-.14-.41-.22-.62C195.13,108.18,195.21,108.39,195.27,108.59Zm1.92,6.21-.27-.58Zm.72,1.34-.32-.57ZM202,119.7c-1.4,0-2.82-1.51-3.94-3.37C199.14,118.19,200.56,119.74,202,119.7Zm.69,0-.36,0,.36,0Zm-.94.17h0m.07,0h0m.14,0h-.1m.2,0h-.08m14.63-27.4v0Zm-5,.67a1.51,1.51,0,0,1,.06-.31A1.53,1.53,0,0,0,211.59,93.12Zm0,.15a1.33,1.33,0,0,1,0-.15A1.51,1.51,0,0,0,211.58,93.27Zm.05.33a1.2,1.2,0,0,1-.05-.33A1.22,1.22,0,0,0,211.64,93.6Zm0,.09,0-.09Zm.11.2-.07-.11Zm.09.1-.09-.1Zm.07.06-.07-.06Zm.74.33-.16-.07Zm4.47,6.07a12.28,12.28,0,0,1-1.9-3.15,5.26,5.26,0,0,0-2.52-2.9,5.26,5.26,0,0,1,2.52,2.9A12.3,12.3,0,0,0,217.14,100.45Zm-10.9,5.61h0ZM202.89,70.9h-.61l-.46.92a1.92,1.92,0,0,1-1.45.77.33.33,0,0,0-.2.06.33.33,0,0,1,.2-.06,1.92,1.92,0,0,0,1.45-.76l.46-.92Zm3.34-9-.2,0h0Zm.19-.06-.15,0Zm2.28-5.94-.11.07Zm-5-10.78a7.84,7.84,0,0,1,1.45,1.72C204.63,46.27,204.14,45.69,203.66,45.14Zm-152.42,182-4.64-2.68-14.41-8.32A48.74,48.74,0,0,1,7.82,173.92v-79A48.74,48.74,0,0,1,32.19,52.71l68.42-39.5a48.75,48.75,0,0,1,48.74,0l49.48,28.57a17.09,17.09,0,0,0-10.31.3,16.84,16.84,0,0,0-6.88,5.81s-1.07,5.2-1.45,6a5.46,5.46,0,0,0-.61,4,4.71,4.71,0,0,1-.69,3.52s-8.26.43-16.11,1.45a14.83,14.83,0,0,0-2,.41c-7.54-.05-10.48-.61-13.58-1.33-3.25-.76-11.67,1.34-14.92,1.53s-7.46,0-9,.19-4,1.34-6.89,4.4S99,85.85,96.1,88.53a11.72,11.72,0,0,1-5.93,3.06s-7.65.38-8.42,4a8.19,8.19,0,0,0,.77,5.93,3.56,3.56,0,0,1,.67,2.3,4.88,4.88,0,0,0,.29,2.58,3.69,3.69,0,0,0,4,1.72c2.39-.38,4.88-1.82,5.84-1.91s5-6.79,6.5-7.94,8.51-8.32,12.91-10.81,10.71-6.12,13.87-11.19c0,0,1.72.48,2.68.86a78.84,78.84,0,0,0,9.95,2.1,38.81,38.81,0,0,0,5.15.28s7.87-.49,11.69-5.65c0,0-3.1,6.71-9,9s-8.25,8.77-9,11.25-3.3,5.78-3.41,3.61-7.53,3.7-7.53,3.7c-15.91,5-16.92,16.82-16.31,23.14q0,.29,0,.57,0-.28,0-.57a8.21,8.21,0,0,0,.56,1.8v0l0,.09c-.17,1.83-1.23,3.35-1.31,4.93a40,40,0,0,1-4.62,8.9c-2.75,4.38-5.3,14.58-7.54,18.66s-8.46,10.4-13.25,13.66-8.87,11-12.44,17.94-12.57,18-12.57,18c-5.28-.08-10.71,1.68-11.78,4.74S49,222.15,49,222.15A15.75,15.75,0,0,1,51.24,227.12Z" transform="translate(-7.82 -6.67)"/><path class="cls-1" d="M149.47,255.56l-.12.07a48.74,48.74,0,0,1-48.74,0L64.8,235a10.21,10.21,0,0,0,.21-1.41l.76-3.52c.23-1.07.69-3.36,1.3-3.29s1.38-1,1.61-1.91,0-2.29-.76-2.22-.92-.31-.92-.31,4.66-13.53,10.63-19A203.73,203.73,0,0,0,92.47,188a43.62,43.62,0,0,1,9.79-9c4-2.45,7.8-5.2,7.8-5.2,6.35-7.21,12.72-14.43,19-21.73-1.45-3.69-3.46-8.45-4.6-9.59-1.93-1.93-9.63-5.37-12.38-7.29-1-.48-2-2.93-2-3.78.08-1.59,1.14-3.1,1.31-4.93l0-.09c2.09,4.75,8.29,6.8,11.49,9.63,3.58,3.16,12.62,8.88,12.62,8.88a25.16,25.16,0,0,0,4.28,2.34c2.75,1.22,3.87,1,8.77,1.84a12.59,12.59,0,0,1,7.14,3.36c-8.87,1.63-12.23,7.85-15.6,10.91S123.62,173,123.62,173a5.66,5.66,0,0,0-2.75-.51,40.27,40.27,0,0,1-4.28.2s-4.28.61-5.3,3.16,0,8.16,2.34,10.81,2.24,4.48,3.57,10.19,6.22,13.15,8.67,13.56a2.54,2.54,0,0,0,2.86-3.37,63.54,63.54,0,0,1-1.73-6.12,18.28,18.28,0,0,1-.51-2.75,10.89,10.89,0,0,0,1-2.86c.2-1.32,1.22-5.61,1.22-5.61s1.63-.82,1.63-2-1.78-2-1.78-2,4.28-3.82,6.58-6.12,7.34-4.28,17.28-7.49,14.53-6.88,14.53-6.88l8.56-2.6s6-1.38,6.88-6.12-3.06-10.09-3.06-10.09-10.09-11.93-13.61-14.84-9.48-7-10.6-7.9-3.26-1.12-2.55-3.77,3.36-4.38,6.32-6.93,7-3.57,9.07-5.51,3.36-4.59,6.73-7.14c3-2.3,4.75-5.43,11.28-10.07a30.57,30.57,0,0,0,5.09-5s-2.17,3.92-2.89,5.16.1,3.2.83,4.54,2.79,6.19,3.92,8.36,2.68,5.47,2.89,7.53,3.3,9.18,6.29,8.87a2.39,2.39,0,0,1,.55,0,4.12,4.12,0,0,1-.94.17c2-.07,6.11-2.77,8.69-4.11s10.44-6.15,10.44-6.15a17.36,17.36,0,0,0,3.92-2c1.49-1.12,1.49-3,1.68-4.2s.28-3.26.47-4.29A11.2,11.2,0,0,0,227,94.4c-.47-1.87-1.68-3.17-6.15-3.17s-4.29,1.21-4.29,1.21-2.24-1.4-3.73-.84-1.59,2.33-.56,2.61a5.13,5.13,0,0,1,3,3.08c.37,1.4,2.8,4.29,2.8,4.29s-5,2.33-7.09,2.61a15.86,15.86,0,0,0-4.71,1.86c0-2-2.94-8.25-3.5-9.79s-1.54-5.45-1.54-5.45a45.73,45.73,0,0,0-2.38-14c-.15-.41-.33-.83-.53-1.25.1-.36.15-.56.15-.56,2.3-.08,1-2.45,1.91-2.45a1.92,1.92,0,0,0,1.45-.76l.46-.92h.61l.46-1.3a2.34,2.34,0,0,1,1.68-.92c1.3-.23,1.53-.38,1-1.91s0-4.82,0-4.82c.92-.08,1.3-.92,1.15-2.37a12.11,12.11,0,0,1,.31-3.37c1.83.23,2.52-2.29,2.52-2.29A2.67,2.67,0,0,0,208.85,51a30,30,0,0,1-3.73-4.15,7.85,7.85,0,0,0-1.46-1.73c-.4-.45-.78-.87-1.16-1.25l15.27,8.82a48.74,48.74,0,0,1,24.37,42.21v79a48.74,48.74,0,0,1-24.37,42.21Z" transform="translate(-7.82 -6.67)"/><path class="cls-3" d="M110.09,131.35a40,40,0,0,1-4.62,8.9c-2.75,4.38-5.3,14.58-7.54,18.66s-8.46,10.4-13.25,13.66-8.87,11-12.44,17.94-12.57,18-12.57,18c-5.28-.08-10.71,1.68-11.78,4.74S49,222.15,49,222.15s2.52,3.29,3.06,9.86,3.13,9.94,5.28,13,5,4.89,7.57,3.52-.08-6-.08-6-1.68-4.82-.84-5.74,1-3.21,1-3.21.54-2.45.76-3.52.69-3.37,1.3-3.29,1.38-1,1.61-1.91,0-2.29-.76-2.22-.92-.31-.92-.31,4.66-13.53,10.63-19A204,204,0,0,0,92.47,188a43.61,43.61,0,0,1,9.79-9c4-2.45,7.8-5.2,7.8-5.2s14.68-16.67,18-20.65L129,152c-1.45-3.69-3.46-8.45-4.6-9.59-1.93-1.93-9.63-5.37-12.38-7.29a6.1,6.1,0,0,1-2-3.78m.83-6.2q0,.13,0,.26Q110.93,125.29,110.92,125.16ZM227,94.4c-.47-1.87-1.68-3.17-6.15-3.17s-4.29,1.21-4.29,1.21-2.24-1.4-3.73-.84-1.59,2.33-.56,2.61a5.13,5.13,0,0,1,3,3.08c.37,1.4,2.8,4.29,2.8,4.29s-5,2.33-7.09,2.61a15.85,15.85,0,0,0-4.71,1.86c0-2-2.94-8.25-3.5-9.79s-1.54-5.45-1.54-5.45a45.78,45.78,0,0,0-2.38-14c-.15-.41-.33-.82-.53-1.24.1-.36.15-.56.15-.56,2.29-.08,1-2.45,1.91-2.45a1.92,1.92,0,0,0,1.45-.76l.46-.92h.61l.46-1.3a2.34,2.34,0,0,1,1.68-.92c1.3-.23,1.53-.38,1-1.91s0-4.82,0-4.82c.92-.08,1.3-.92,1.15-2.37a12.12,12.12,0,0,1,.31-3.36c1.84.23,2.52-2.29,2.52-2.29A2.67,2.67,0,0,0,208.85,51c-1.68-1.15-5.73-7.26-8-8.49a16.94,16.94,0,0,0-12.31-.46,16.84,16.84,0,0,0-6.88,5.81s-1.07,5.2-1.45,6a5.46,5.46,0,0,0-.61,4,4.71,4.71,0,0,1-.69,3.52s-8.26.43-16.11,1.45a14.83,14.83,0,0,0-2,.41c-7.54-.05-10.48-.61-13.58-1.33-3.25-.77-11.67,1.34-14.92,1.53s-7.46,0-9,.19-4,1.34-6.89,4.4S99,85.85,96.1,88.53a11.73,11.73,0,0,1-5.93,3.06s-7.65.38-8.42,4a8.19,8.19,0,0,0,.77,5.93,3.57,3.57,0,0,1,.67,2.3,4.89,4.89,0,0,0,.29,2.58,3.69,3.69,0,0,0,4,1.72c2.39-.38,4.88-1.82,5.83-1.91s5-6.79,6.5-7.94,8.51-8.32,12.91-10.81,10.71-6.12,13.87-11.19c0,0,1.72.48,2.68.86a78.72,78.72,0,0,0,9.95,2.1,38.81,38.81,0,0,0,5.15.28s7.87-.49,11.69-5.65c0,0-3.1,6.71-9,9s-8.26,8.77-9,11.25-3.3,5.78-3.41,3.61-7.53,3.7-7.53,3.7c-15.91,5-16.92,16.82-16.31,23.14q0,.29,0,.57,0-.28,0-.57c1.16,6.07,8.47,8.24,12,11.41s12.63,8.88,12.63,8.88a25.18,25.18,0,0,0,4.28,2.35c2.75,1.22,3.87,1,8.77,1.84a12.59,12.59,0,0,1,7.14,3.36c-8.87,1.63-12.23,7.85-15.6,10.91S123.62,173,123.62,173a5.67,5.67,0,0,0-2.75-.51,40.24,40.24,0,0,1-4.28.2s-4.28.61-5.3,3.16,0,8.16,2.34,10.81,2.24,4.49,3.57,10.2,6.22,13.15,8.67,13.56a2.54,2.54,0,0,0,2.86-3.36c-.61-1.22-1.43-5.2-1.73-6.12a18.32,18.32,0,0,1-.51-2.75,10.85,10.85,0,0,0,1-2.86c.2-1.32,1.22-5.61,1.22-5.61s1.63-.82,1.63-2-1.78-2-1.78-2,4.28-3.82,6.58-6.12,7.34-4.28,17.28-7.49,14.53-6.88,14.53-6.88l8.56-2.6s6-1.38,6.88-6.12-3.06-10.09-3.06-10.09-10.09-11.93-13.61-14.84-9.48-7-10.6-7.9-3.26-1.12-2.55-3.77,3.36-4.38,6.32-6.93,7-3.57,9.07-5.51,3.37-4.59,6.73-7.14c3-2.3,4.75-5.43,11.28-10.07a30.61,30.61,0,0,0,5.09-5s-2.17,3.92-2.89,5.16.1,3.2.83,4.54,2.79,6.19,3.92,8.36,2.68,5.47,2.89,7.53,3.3,9.18,6.29,8.87a2.43,2.43,0,0,1,.55,0,4.1,4.1,0,0,1-.94.18c2-.07,6.11-2.77,8.69-4.11s10.44-6.15,10.44-6.15a17.35,17.35,0,0,0,3.92-2c1.49-1.12,1.49-3,1.68-4.2s.28-3.26.47-4.29A11.2,11.2,0,0,0,227,94.4Z" transform="translate(-7.82 -6.67)"/><path class="cls-4" d="M125.37,65.56a2.85,2.85,0,1,1-2.85,2.85,2.85,2.85,0,0,1,2.85-2.85" transform="translate(-7.82 -6.67)"/><path class="cls-4" d="M172.31,64.1A2.85,2.85,0,1,1,169.46,67a2.85,2.85,0,0,1,2.85-2.85" transform="translate(-7.82 -6.67)"/><path class="cls-5" d="M202.2,112.18a2.85,2.85,0,1,1-2.85,2.85,2.85,2.85,0,0,1,2.85-2.85" transform="translate(-7.82 -6.67)"/><path class="cls-4" d="M117.08,116.08a2.85,2.85,0,1,1-2.85,2.85,2.85,2.85,0,0,1,2.85-2.85" transform="translate(-7.82 -6.67)"/><path class="cls-5" d="M175.89,152.15A2.85,2.85,0,1,1,173,155a2.85,2.85,0,0,1,2.85-2.85" transform="translate(-7.82 -6.67)"/><path class="cls-5" d="M120.82,180.25A2.85,2.85,0,1,1,118,183.1a2.85,2.85,0,0,1,2.85-2.85" transform="translate(-7.82 -6.67)"/><path class="cls-4" d="M59.74,214.27a2.85,2.85,0,1,1-2.85,2.85,2.85,2.85,0,0,1,2.85-2.85" transform="translate(-7.82 -6.67)"/><path class="cls-4" d="M105.61,167.36a2.85,2.85,0,1,1-2.85,2.85,2.85,2.85,0,0,1,2.85-2.85" transform="translate(-7.82 -6.67)"/><path class="cls-5" d="M195.38,77.58a2.85,2.85,0,1,1-2.85,2.85,2.85,2.85,0,0,1,2.85-2.85" transform="translate(-7.82 -6.67)"/></svg>