<?xml version="1.0" encoding="utf-8"?>
<!-- Generator: Adobe Illustrator 19.2.1, SVG Export Plug-In . SVG Version: 6.00 Build 0)  -->
<svg version="1.1" id="Capa_1" xmlns="http://www.w3.org/2000/svg" xmlns:xlink="http://www.w3.org/1999/xlink" x="0px" y="0px"
	 viewBox="0 0 500 164" style="enable-background:new 0 0 500 164;" xml:space="preserve">
<style type="text/css">
	.st0{fill-rule:evenodd;clip-rule:evenodd;fill:#5FBFBF;}
	.st1{fill-rule:evenodd;clip-rule:evenodd;fill:#014561;}
	.st2{fill-rule:evenodd;clip-rule:evenodd;fill:#014868;}
	.st3{fill:#014868;}
	.st4{fill:#5FBFBF;}
</style>
<g>
	<path class="st0" d="M50.2,29.3c10-8.1,22.4-13.4,36-14.6c-1,0.5-1.8,1.3-2.4,2.1c-1,1.5-2.2,3.9-1.9,5.8c0.3,1.9,1.2,2.7,1.5,3.5
		c0.3,0.8,1,1.6,1.4,2.2c0.4,0.6,0.5,0.9,0.6,1.4c0.1,0.5,0.1,1,0.2,1.1c0.1,0.2,0.1,0.5,0.1,1.1c0,0.1,0,0.7,0,0.7
		c0,0.5-0.6,1.1-1.4,1.4c-1,0.3-3.1,0.1-4.2,0.3c-1.1,0.2-1.4,0.7-2,0.7c-0.6,0-1.8-0.3-5.2,1.2c-1.6,0.7-2.7,1.2-3.4,1.7
		C65,35.3,58.9,32.7,50.2,29.3"/>
	<path class="st0" d="M29.6,106.7C26.6,99,25,90.7,25,82c0-20.5,9.1-38.9,23.5-51.3c-5.5,13-5.6,17.9-1.7,31.5
		c1.7-12,0.6-11.6,7.6-21.4c0.4-3.5-1.5-8.1-5.9-10.2c0.5-0.5,1.1-0.9,1.7-1.4c5.5,4,7.5,12,9.1,20.8c-1.2,1.4-2.6,3-3.6,4.2
		c-1.6,1.9-2.8,3.9-2.1,5.2c0.7,1.3,2.5,3,4.4,4.4c0.9,0.7,2.6,1.7,4.4,2.6c0.3,1,0.5,1.9,0.8,2.9c1.5,4.6,3.7,8.6,7.1,11.5
		c-0.5,1.4-0.5,2.4-0.6,3.7c-0.1,1.6,0.1,3.1,0.1,3.1l0.5-0.2c0,0,0.2,1.5,1.1,3c1,1.5,2.2,2.9,1.7,4.5c-0.5,1.6-0.7,3.1-1.9,4.4
		c-1.1,1.3-1.5,2.1-1.3,3c0.2,0.9,0.7,1.4,0.7,1.4s0,0.1-0.1,1.8c-0.2,1.7-1.3,6-1.7,7.2c-0.4,1.2-0.8,1.3-1.2,1.3
		c-0.4,0-4.4-2.7-7.4-3.3c-3-0.6-5.4-0.2-7-0.5c-1.6-0.2-5.9-0.6-7.9-0.5c-2,0.1-2.8-0.1-2.9-0.3c0-0.2-0.2-0.7-0.5-0.9
		c-0.3-0.2-0.5-0.7-1.1-1.8c-0.6-1.1-1.2-2-1.6-2.4c-0.4-0.4-0.7-0.6-0.7-0.6s-0.2-1.1-0.8-1.8c-0.6-0.7-1.1-0.9-2.6-0.1
		c-1.5,0.8-3,2.4-4.1,3.3C30.5,105.9,30,106.3,29.6,106.7"/>
	<path class="st1" d="M113.5,53c11.9,8.4,16.5,13.6,5.2,25.4c27.1,1.7,7.6-14.4,28.6-18C129.5,51.6,133.2,51.3,113.5,53"/>
	<path class="st1" d="M98.6,132.4c11.3-3,18.9-9.5,25.4-19.9c0.1,17.9-9.7,24.5-21,35.7C102.4,139.6,101.7,140.4,98.6,132.4"/>
	<path class="st2" d="M108.3,147.8l4.8-1.2l3.6-1.4c25.4-9.7,43.5-35.2,43.5-63.2c0-36.5-28.9-66.2-65-67.6c0.6,0.2,1.2,0.3,1.6,0.5
		c1.4,0.5,2.8,1.9,3.1,2.3c0.3,0.4,0.4,1.1,0.4,1.1s0.1,0.2,0.2,0.5c0.1,0.3,0.1,0.8,0.4,1.1c0.2,0.3,0.7,1.4,0.6,1.9
		c0,0.6-0.4,1-0.5,1.2c-0.1,0.1-0.1,0.4,0,0.6c0.1,0.1,0.8,0.7,0.9,0.9c0.2,0.2,0.3,0.5,0.5,0.8c0.2,0.3,0.4,0.6,0.7,0.9
		c0.3,0.3,0,0.8-0.3,1c-0.3,0.2-0.7,0.3-1,0.3c-0.3,0-0.4,0.2-0.4,0.4c0,0.2,0.3,0.5,0.5,0.7c0.2,0.2,0.1,0.3-0.1,0.6
		c-0.2,0.3-0.7,0.4-0.7,0.5c0,0.1,0.2,0.1,0.3,0.2c0.1,0.1,0.2,0.2,0.3,0.5c0.1,0.3-0.3,0.4-0.5,0.7c-0.3,0.2,0,0.6,0.1,1
		c0.1,0.3,0.1,0.7-0.4,1.4c-0.5,0.7-1.4,0.7-2.2,0.6c-0.8-0.1-2.1-0.4-2.3-0.3c-0.1,0.1-0.1,0.2,0,0.6c0.1,0.4,0,0.9-0.2,1.1
		c-0.2,0.2-0.6,0.8-0.8,1.3c-0.1,0.2-0.2,0.5-0.2,0.8c0.3,0.1,1,0.3,1,0.6c0.1,0.3-0.4,1-0.4,1s0.4,0.1,0.7,0.3
		c0.3,0.2,0.1,0.8,0.6,1.5c0.6,0.8,2.9,2.7,4.2,3.5c1.3,0.8,1.4,1.9,1.7,3.7c0.3,1.8,0.5,5.1,0,6.2c-0.5,1-0.4,1.8-0.3,3.1
		c0.1,1.3,0.3,3.1,0.4,5c0.1,1.8-0.8,3.8-0.8,3.8l3.4-0.3l0,0l0-0.1c6.9-3.1,5.9-5.9,6.4-11.4c10.9,9.4,14,12.8,3.6,23.2
		c-3.5-1.9-5.4-3-6.8-5c-1.6,0.7-3.5,1.5-4.3,1.7c-1.2,0.3-3.4,0.3-4.5,0.3c-1.1,0-1.4-0.4-1.7-0.4c-0.3,0-1.2,1.5-2,3.8
		c-0.8,2.3-0.5,4.1-0.5,5c0,0.9-0.2,1.1,0.2,1.3c0,0,0.1,0,0.1,0.1l0.2-0.1l-0.1,0.2c0.3,0.3,0.3,0.9,0.7,1.3c0.3,0.3,0.3,0.8,0.3,1
		c0.4-0.7,0.7-1.3,0.9-1.9c43.8,13.2,18.4,40-0.9,45.2c-5.1-6.3-8.9-13.2-9.6-22.4c-1.2,2.5-3.7,5.3-5,7.2c-2.3,3.4-5.4,7.7-6.4,9
		c-1.1,1.3-1.8,1.9-3.8,1.8c-2-0.1-3.4-0.9-4.6-1.1c-1.2-0.2-2.4-0.9-3.9-1.6c-1.5-0.7-2-0.7-3.8-1c-1.8-0.3-4.2-1.4-8.3-3.2
		c-4.1-1.8-5.9-2-8.2-2.5c-2.3-0.4-4.3-0.2-4.3-0.2s-0.2,0.5-1,1c-0.5,0.4-1.9,0.5-3.2,0.6c11.9,19.3,33.2,32.1,57.6,32.1
		C98,149.6,103.3,149,108.3,147.8"/>
	<path class="st0" d="M113.5,53c11.9,8.4,16.5,13.6,5.2,25.4c27.1,1.7,7.6-14.4,28.6-18C129.5,51.6,133.3,51.3,113.5,53"/>
	<path class="st0" d="M105.9,65.8c2.7,7.6,3.8,8.5,10,11.9c10.4-10.5,7.3-13.9-3.6-23.2C111.8,59.9,112.8,62.8,105.9,65.8"/>
	<path class="st0" d="M98.6,132.4c11.3-3,18.9-9.5,25.4-19.9c0.1,17.9-9.7,24.5-21,35.7C102.4,139.6,101.7,140.4,98.6,132.4"/>
	<path class="st0" d="M88.3,96.1c4.9-3.4,8.7-7.8,10-11.4c43.8,13.2,18.4,40-0.9,45.2C90.4,121.2,85.8,111.4,88.3,96.1"/>
	<path class="st2" d="M73.7,85.7c7,7.8,13.2,13.6,22.8-1.5C89.2,88.8,86.2,89.5,73.7,85.7"/>
	<path class="st2" d="M50.2,29.3c9.6,6.9,8.7,26.4,13.1,40.1C66.6,79.6,73.7,86.8,88.6,86c-8.5-6-8.6-11.2,0.1-25.1
		C79.6,42.3,76.9,39.8,50.2,29.3"/>
	<path class="st2" d="M48.6,30.7c4.4,2.1,6.4,6.7,5.9,10.2c-7,9.8-5.9,9.4-7.6,21.4C42.9,48.6,43,43.7,48.6,30.7"/>
	<polygon class="st3" points="415.7,111.3 415.7,52 445.3,81.6 475,52 475,111.3 458,111.3 458,94.4 445.3,107.1 432.6,94.4 
		432.6,111.3 	"/>
	<rect x="203.8" y="52" class="st3" width="17" height="59.3"/>
	<rect x="181.9" y="52" class="st3" width="17" height="59.3"/>
	<path class="st3" d="M318.2,68.9c8.5,0,12.7,4.2,12.7,12.7c0,8.5-4.2,12.7-12.7,12.7h-12.7V68.9H318.2z M288.5,52v59.3h29.7
		c19.8,0,29.7-9.9,29.7-29.7S338,52,318.2,52H288.5z"/>
	<rect x="352.1" y="73.2" class="st3" width="59.3" height="17"/>
	<rect x="352.1" y="94.4" class="st4" width="59.3" height="17"/>
	<rect x="352.1" y="52" class="st4" width="59.3" height="17"/>
	<path class="st3" d="M225,81.6c0-19.8,9.9-29.7,29.7-29.7s29.7,9.1,29.7,27.3h-17c0-6.9-4.2-10.3-12.7-10.3
		c-8.5,0-12.7,4.2-12.7,12.7c0,8.5,4.2,12.7,12.7,12.7c8.5,0,12.7-3.5,12.7-10.5h17c0,18.3-9.9,27.5-29.7,27.5S225,101.4,225,81.6"
		/>
</g>
</svg>
