<svg id="Capa_1" data-name="Capa 1" xmlns="http://www.w3.org/2000/svg" viewBox="0 0 205 150"><defs><style>.cls-1{fill:#005070;fill-rule:evenodd;}</style></defs><title>Logos página web</title><path class="cls-1" d="M91.31,93.66l-0.15.07,0.07-.15,0.24-.14-0.16.22h0ZM61.84,90.13H38.29l0.2-.89H51.87l0.42-1.81H39.07l0.59-2.56H53.07l0.34-1.8H40.13l0.72-2.57H54.13a3.3,3.3,0,0,0,.35-1.71c-0.87-.29-11.32-0.1-13.15-0.1l0.34-1.35h23.6l-3.43,12.8h0Zm80.81-29.06c0,3.08,1.66,14,1.66,16.26h-12c1.22-2.11,3.89-5.78,5.24-8.08l5.07-8.18h0Zm-113.51,17-0.53-.6a1.41,1.41,0,0,0-.53-0.6A17.86,17.86,0,0,0,33.62,75l0.28-.16c0.29-.22.14,0,0.21-0.25a0.75,0.75,0,0,1,.6-0.45c0.27,0.41.27,0,0,.45H34.56c0,0.59-2.07,8.23-2.3,8.54l-0.31-.66a20.37,20.37,0,0,0-2.53-4.24c-0.25-.23-0.07-0.12-0.28-0.18h0Zm67-15.81,0.53,0.9c0,1.72.85,1.34,0.52,6a33.53,33.53,0,0,1-5.73,15C86,91.57,78.69,90.13,69.63,90.13L78,58.8c3.58,0,12.53-.48,15.31.86C95,60.49,95,61,96.13,62.28h0ZM57.29,67.85L57,69.35H43.78l-0.18.9H67.17l3.06-11.43H46.63l-0.18.74,13.31,0-0.51,1.79H46L45.4,63.48H58.61l-0.42,1.81H44.92l-0.61,2.26c2.65,0.13,9.72,0,12.83,0a0.54,0.54,0,0,1,.15.3h0Zm-25.14,0-0.3.3c-0.61.4-1.06,0.86-1.74,1.27C28,70.7,24.63,71,22.21,71c-4.16,0-8.33,0-12.5,0L7.85,77.92c2.85,0,7.24-.25,9.83,0s4.06,2.64,5,4.91c0.58,1.35,5,12.81,5.38,14.34,16.51,0,33.35-.11,49.83,0,5.19,0,8.88-1.28,13.25-3.46l-0.82,3.45c9.16,0.19,20.21,0,29.57,0L128.19,84h15.19c-0.51-1.35,1.66-3.66,2.93-4.16,2.59-1,3.56,0,5.51,1.3a26.13,26.13,0,0,1,1-5.18c0.92-3.67,2.35-8,4.66-11a12.45,12.45,0,0,0,1.35-1.74l0.53-.53a16.58,16.58,0,0,0,1.7-1.39A10.64,10.64,0,0,1,163.12,60,12.94,12.94,0,0,1,168.54,59c4.31,0,8.63,0,12.95,0,3.24,0,7.9.05,9.82,3.13,0.84,1.34,1.43,3.73.77,5.2-1,2.34,1.37,3.33,3,1.91l0.3-.3c1.12-.8.49-2.1,0.66-3.1,0.34-2,1.22-5.17,1.16-7.14,0-.79-0.37-2.63-1.06-3l-0.53-.6c-0.55-1.67-6.78-2.94-8.29-3.23-1.07-.2-9.7-0.08-11.51-0.08-5.65,0-10.33-.36-15.41,2.05a13.94,13.94,0,0,0-3.41,2.31l-0.6.45a7.86,7.86,0,0,0-2.11,2l-0.3.3c-1.09.71-3.16,4.28-3.76,5l-0.71-5.92c-0.12-1-.26-2.05-0.33-3s-0.31-2.26-.31-3.15h-6.63c-1.24,0-1-.22-1.56.69-1.12,1.79-2.31,3.64-3.49,5.39-4.7,7-9.33,14.5-14,21.5C122.31,80.49,116.38,90,116,90.13H100l10.23-38.39h-7.82l-0.95,3.75c-2-1.39-2.46-2.12-5-2.88a27.37,27.37,0,0,0-7.26-.87H40.73l-0.6,2.71v0.31L39.9,54.6c-2.56-2.6-7.27-2.86-11.06-2.86h-14L13,58.51c2.64,0,14.69-.14,16.23,0,1.89,0.2,4.59.9,5,3.17C34.67,64.46,33.46,65.85,32.15,67.85Z"/><path class="cls-1" d="M146.86,84a1.5,1.5,0,0,1,1.38-1.42A1.41,1.41,0,1,1,146.86,84h0Zm39,2.26-0.45.6c-0.46,0-1.17,1.14-2.53,2-3.38,2.13-7.79,2.38-11.77,2.38-3.11,0-6.22,0-9.33,0-3.31,0-5.39-.06-7.83-1.66l-0.3-.3A13.59,13.59,0,0,1,152.38,87a9,9,0,0,1-.41-1.4c-0.14-.6-0.1-1-0.3-1.61l-0.3-1.56c-0.67-2.43-4-3-5.84-1.32-2.74,2.59-1.5,15,8.05,16.72,3.54,0.66,13.49.41,17.66,0.41a29.77,29.77,0,0,0,8.19-.84c1.42-.36,5.44-1.63,6.26-2.77l0.6-.45c3.13-2,4.22-9.84,5.55-11.77,2.41-3.51-2.83-4.76-3.58-.42C188,83.28,186.58,85.1,185.85,86.21Z"/><path class="cls-1" d="M192.78,72.21a1.06,1.06,0,1,1,.76,2,1.06,1.06,0,1,1-.76-2h0Zm-1.51-1.51a3.58,3.58,0,0,0-2.78,1.43,4.21,4.21,0,1,0,7.43,2,4.33,4.33,0,0,0-1.53-2.69A3.65,3.65,0,0,0,191.27,70.71Z"/><polygon class="cls-1" points="151.68 84 151.68 82.6 151.38 82.45 151.68 84"/><path class="cls-1" d="M34.11,74.62h0.6c0.27-.41.27,0,0-0.45A0.75,0.75,0,0,0,34.11,74.62Z"/><path class="cls-1" d="M96.65,63.18l-0.53-.9A1.19,1.19,0,0,0,96.65,63.18Z"/><path class="cls-1" d="M196.09,55.65a0.6,0.6,0,0,0-.53-0.6Z"/><path class="cls-1" d="M29.14,78.08a0.6,0.6,0,0,0-.53-0.6Z"/><path class="cls-1" d="M158.83,63.18a0.63,0.63,0,0,0,.53-0.53Z"/><path class="cls-1" d="M57.29,67.85l0.17-.29H57.14A0.54,0.54,0,0,1,57.29,67.85Z"/><polygon class="cls-1" points="39.9 54.6 40.12 54.76 40.13 54.45 39.9 54.6"/><polygon class="cls-1" points="91.31 93.67 91.47 93.44 91.23 93.59 91.31 93.67"/><path class="cls-1" d="M195,69.2l0.3-.3Z"/><path class="cls-1" d="M153.94,58.81l0.3-.3Z"/><path class="cls-1" d="M156.34,56.56l0.6-.45Z"/><path class="cls-1" d="M31.85,68.15l0.3-.3Z"/><path class="cls-1" d="M153.94,89.52l-0.3-.3Z"/><path class="cls-1" d="M185.4,86.81l0.45-.6Z"/><path class="cls-1" d="M185.7,94.64l0.6-.45Z"/></svg>