<svg id="Capa_1" data-name="Capa 1" xmlns="http://www.w3.org/2000/svg" viewBox="0 0 205 150"><defs><style>.cls-1,.cls-2{fill:#005070;fill-rule:evenodd;}.cls-2{stroke:#fff;stroke-miterlimit:10;stroke-width:2.39px;}</style></defs><title>Logos paÌgina web</title><path class="cls-1" d="M122.3,68.88h-8.11V83.29h11.16c6.24,0,11-1.27,11-7.17,0-6.81-5.95-7.25-14.09-7.25h0Zm0.87-27.23h-9v13h10.62c5.1,0,8.77-2.26,8.77-6.8,0-6.08-5-6.24-10.41-6.24h0Zm3.49,59.86h-38v-78h37.24c17.57,0,31.56,4.14,31.56,19.6,0,8-5.21,13.86-10.16,17,8.42,2.16,13,9.4,13,17.88C160.24,95.44,146.91,101.51,126.66,101.51Z"/><polygon class="cls-1" points="9.28 34.35 18.16 34.35 18.16 36.9 15.3 36.9 15.3 44.04 12.12 44.04 12.12 36.9 9.28 36.9 9.28 34.35"/><polygon class="cls-1" points="25.55 44.04 25.55 34.35 28.72 34.35 28.72 37.62 31.72 37.62 31.72 34.35 34.9 34.35 34.9 44.04 31.72 44.04 31.72 40.28 28.72 40.28 28.72 44.04 25.55 44.04"/><path class="cls-1" d="M45.87,38.54h1.24c1,0,1.51-.25,1.51-0.92a1.07,1.07,0,0,0-1.28-1H45.87v1.92h0Zm0,2.12V44H42.69V34.36h4.57c3.22,0,4.29.87,4.29,2.76a2.24,2.24,0,0,1-1.63,2.36c1,0.38,1.64.62,1.64,2.57,0,1.26,0,1.69.34,1.69V44H48.68a6.51,6.51,0,0,1-.16-1.69c0-1.26-.21-1.68-1.68-1.68h-1Z"/><polygon class="cls-1" points="59.4 44.04 59.4 34.35 67.3 34.35 67.3 36.62 62.58 36.62 62.58 38 66.56 38 66.56 40.26 62.58 40.26 62.58 41.78 67.48 41.78 67.48 44.04 59.4 44.04"/><polygon class="cls-1" points="75.16 44.04 75.16 34.35 83.06 34.35 83.06 36.62 78.33 36.62 78.33 38 82.33 38 82.33 40.26 78.33 40.26 78.33 41.78 83.24 41.78 83.24 44.04 75.16 44.04"/><path class="cls-1" d="M113.16,110.83h-1v1.8h1.39c0.78,0,1.38-.16,1.38-0.9s-0.74-.9-1.76-0.9h0Zm0.11-3.4h-1.12v1.63h1.33a0.92,0.92,0,0,0,1.1-.85c0-.76-0.62-0.78-1.3-0.78h0Zm0.44,7.47H109v-9.74h4.65c2.19,0,3.94.52,3.94,2.45a2.57,2.57,0,0,1-1.27,2.12,2.18,2.18,0,0,1,1.62,2.23C117.89,114.14,116.23,114.9,113.7,114.9Z"/><path class="cls-1" d="M126.44,108.1l-1,3.48h2l-1-3.48h0Zm2,6.8L128,113.61h-3.18l-0.36,1.29h-3.13l3.49-9.74h3.25l3.49,9.74h-3.18Z"/><polygon class="cls-1" points="135.46 114.9 135.46 105.17 138.65 105.17 138.65 112.63 143.03 112.63 143.03 114.9 135.46 114.9"/><path class="cls-1" d="M151.38,108.1l-1,3.48h2l-1-3.48h0Zm2,6.8L153,113.61h-3.17l-0.36,1.29H146.3l3.49-9.74H153l3.49,9.74h-3.18Z"/><polygon class="cls-1" points="166.72 114.9 163.24 109.6 163.37 111.81 163.37 114.9 160.31 114.9 160.31 105.17 163.3 105.17 166.78 110.48 166.65 108.26 166.65 105.17 169.71 105.17 169.71 114.9 166.72 114.9"/><path class="cls-1" d="M178.81,115.16a5.13,5.13,0,0,1-.31-10.25c3,0,4.64,1.47,4.89,4h-3a1.62,1.62,0,0,0-1.73-1.6c-1.13,0-1.8,1-1.8,2.84,0,1.36.29,2.65,1.92,2.65a1.63,1.63,0,0,0,1.63-1.65h3.08A4.36,4.36,0,0,1,178.81,115.16Z"/><polygon class="cls-1" points="187.59 114.9 187.59 105.17 195.53 105.17 195.53 107.43 190.79 107.43 190.79 108.83 194.8 108.83 194.8 111.1 190.79 111.1 190.79 112.63 195.72 112.63 195.72 114.9 187.59 114.9"/><path class="cls-2" d="M61.67,98.49a11.12,11.12,0,0,0,2.68,8.19,10.86,10.86,0,0,0,8.09,3c6.57,0,10-4.41,10-8.84,0-8.72-8.62-8.4-14-8.4V79.2c5.28,0.43,13.37-.64,13.37-7.75,0-5-4.41-6.79-8.83-6.79-5.28,0-9.16,2.7-9.81,8.08H42.92c0.75-17.46,14.86-24.88,30.7-24.88,18,0,29.2,8.29,29.2,21.22,0,6.89-2.69,12-8.83,15a16.28,16.28,0,0,1,10.88,15.84c0,17.67-13.26,26.61-33.61,26.61-17.67,0-31-9.16-30.7-28H61.67Z"/></svg>